/* XPM */
static char *_afe7cb408d64084b7cde5a9728e1be4njOXCDpRBHZhAMHj[] = {
/* columns rows colors chars-per-pixel */
"50 50 243 2 ",
"   c #030200",
".  c #0A0501",
"X  c #060A03",
"o  c #0C0A03",
"O  c #06080A",
"+  c #120E02",
"@  c #150A07",
"#  c #141204",
"$  c #1B1503",
"%  c #15150C",
"&  c #1A1609",
"*  c #1C1B0C",
"=  c #1A1A07",
"-  c #0C1212",
";  c #141414",
":  c #191612",
">  c #1D1B14",
",  c #181C1B",
"<  c #0A1010",
"1  c #231B03",
"2  c #271B08",
"3  c #321A00",
"4  c #211E14",
"5  c #251A15",
"6  c #1E2117",
"7  c #1F270F",
"8  c #262302",
"9  c #2A2101",
"0  c #24220D",
"q  c #2B230C",
"w  c #372706",
"e  c #252313",
"r  c #2A2413",
"t  c #2C2A15",
"y  c #24231C",
"u  c #2C251A",
"i  c #2C2A1C",
"p  c #272A1A",
"a  c #332B15",
"s  c #322D1C",
"d  c #372B19",
"f  c #343114",
"g  c #35311B",
"h  c #3C331C",
"j  c #3A3717",
"k  c #32310D",
"l  c #1B1F22",
"z  c #241C23",
"x  c #1A2321",
"c  c #252924",
"v  c #2C2B23",
"b  c #282927",
"n  c #322D23",
"m  c #332C29",
"M  c #2D3026",
"N  c #343225",
"B  c #3B3524",
"V  c #3E3B24",
"C  c #34352B",
"Z  c #3A362B",
"A  c #35382B",
"S  c #3C392C",
"D  c #2F3134",
"F  c #353533",
"G  c #3D3C32",
"H  c #3C3D3B",
"J  c #383736",
"K  c #372E33",
"L  c #452401",
"P  c #4D2A02",
"I  c #452A07",
"U  c #532C02",
"Y  c #4A390A",
"T  c #563606",
"R  c #433214",
"E  c #473B19",
"W  c #533816",
"Q  c #643B0C",
"!  c #613B16",
"~  c #433C24",
"^  c #423C2C",
"/  c #4A3E2C",
"(  c #453726",
")  c #553F22",
"_  c #523925",
"`  c #433633",
"'  c #433D33",
"]  c #4A3E34",
"[  c #463E3A",
"{  c #4C3F39",
"}  c #3D4134",
"|  c #3D423A",
" . c #4B441C",
".. c #59461B",
"X. c #6E440D",
"o. c #6A4208",
"O. c #74440A",
"+. c #74480D",
"@. c #714206",
"#. c #654413",
"$. c #6E4713",
"%. c #6D4811",
"&. c #684B1D",
"*. c #714712",
"=. c #75501C",
"-. c #454123",
";. c #4B4224",
":. c #45422B",
">. c #4B442C",
",. c #4C4A2D",
"<. c #494C25",
"1. c #534323",
"2. c #52462C",
"3. c #534D2D",
"4. c #584725",
"5. c #5A522D",
"6. c #444235",
"7. c #4A4335",
"8. c #4D4A34",
"9. c #464439",
"0. c #4B453B",
"q. c #45493B",
"w. c #4C493D",
"e. c #474931",
"r. c #524534",
"t. c #524D34",
"y. c #5A4D35",
"u. c #52453C",
"i. c #524B3C",
"p. c #594D3B",
"a. c #5C4639",
"s. c #4F5338",
"d. c #5C5332",
"f. c #55513C",
"g. c #5A543D",
"h. c #575636",
"j. c #4E5424",
"k. c #6C4C22",
"l. c #664829",
"z. c #655B2C",
"x. c #654E36",
"c. c #635B34",
"v. c #645A3C",
"b. c #675A37",
"n. c #755B35",
"m. c #6A623D",
"M. c #696338",
"N. c #71653D",
"B. c #79743D",
"V. c #3A3A43",
"C. c #3E444C",
"Z. c #4C4642",
"A. c #4C4C42",
"S. c #424449",
"D. c #4C4D4B",
"F. c #454744",
"G. c #524A46",
"H. c #534C42",
"J. c #5A4B43",
"K. c #534B48",
"L. c #564E4A",
"P. c #534A45",
"I. c #4D5145",
"U. c #545244",
"Y. c #595344",
"T. c #5B5A45",
"R. c #55544A",
"E. c #5B544B",
"W. c #5C5A4C",
"Q. c #56594A",
"!. c #575753",
"~. c #4B5154",
"^. c #625D49",
"/. c #645A45",
"(. c #635E51",
"). c #5E6258",
"_. c #6D694D",
"`. c #686547",
"'. c #766946",
"]. c #7C7445",
"[. c #7A734C",
"{. c #696759",
"}. c #696855",
"|. c #746C55",
" X c #757353",
".X c #7A755B",
"XX c #7A7559",
"oX c #706E62",
"OX c #787768",
"+X c #777569",
"@X c #836119",
"#X c #A27A32",
"$X c #956E37",
"%X c #817748",
"&X c #827B5C",
"*X c #867756",
"=X c #90724A",
"-X c #887B63",
";X c #7F8263",
":X c #88835A",
">X c #91865B",
",X c #948A5B",
"<X c #978350",
"1X c #9E8C4E",
"2X c #AC9A56",
"3X c #888567",
"4X c #968A67",
"5X c #9A946C",
"6X c #8A8975",
"7X c #989678",
"8X c #9C8C75",
"9X c #A79B6A",
"0X c #A59776",
"qX c #A28A64",
"wX c #B7A564",
"eX c #ADAB76",
"rX c #EFC07A",
"tX c #989786",
"yX c #908E81",
"uX c #A19E89",
"iX c #9EA08A",
"pX c #AAA68B",
"aX c #A8A484",
"sX c #B2A982",
"dX c #B3B38B",
"fX c #BDB28B",
"gX c #BAB898",
"hX c #B0B4A6",
"jX c #C5BC9A",
"kX c #C1A689",
"lX c #E5BF90",
"zX c #CCBEA2",
"xX c #D7C898",
"cX c #E7C386",
"vX c #EFCD94",
"bX c #D4C8A5",
"nX c #D6D3A5",
"mX c #D0CEAE",
"MX c #E9D7A6",
"NX c #F4D6B1",
"BX c #FFE2AD",
"VX c #EFEFC7",
"CX c #FFFFE3",
/* pixels */
"G.Z.[ Z.K.L.L.K.Z.Z.{ [ [ G.K.Z.S.C.S.D.I.q.6.8.e.s.s.h.f.8.' S / >./ ( i.Q.q.y | Z.F.] ' { u.{ 7.0.",
"G.Z.[ Z.G.K.K.G.K.L.Z.[ [ G.K.Z.D.~.~.L.w.:.-.,.-.-.2.2.>./ ( B d _ 7.B s Z F.R.F.D.Z.' ` { u.u.J.P.",
"G.Z.[ [ Z.P.Z.Z.L.L.Z.[ [ Z.Z.0.J.J.J./.a._ W l...4...5.l.4.) ) R ] p.g.' n F F.H Z.D.0.{ P.J.J.H.H.",
"G.0.' [ 0.Z.Z.[ K.Z.{ Z ` Z.Z.0.{ _ _ ) l.4.) k.k.&.k.&.k.k.k.l.E a r u r + o % y J D.L.L.E.J.a.0.0.",
"G.0.[ ' 0.0.0.[ Z.0.7.G ] Z.G.u.n.W L U ! l.! Q %.X.X.X.$.+.*.k.x.d @ . . . ; C 6 F Z.G.Z.P.J.{ u.P.",
"Z.9.' ' 0.P.0.[ 0.Z.0.[ 0.H.H.a./.! U U Q Q @XQ X.@.@.@.Q O.O.*.b.x.2.d # o y | b G 9.[ G ] u.u.7.7.",
"0.7.' ] 0.H.u.0.] 0.7.] 9.0.0./ l.U U U Q Q Q Q +.+.+.+.+.O.O.*.R 2.p.:.u & o   , C 9.Z.[ { u.J.[ 7.",
"0.7.' ] H.H.H.0.Z ' ' Z G ] Z d L L L U Q Q ! @X%.%.*.+.+.O.O.! R ~ B s B G y     , Z.E.E.E.J.{ u.P.",
"0.E.' n ] R.i.] 7.H.' Z i.^.H.p.R I I 3 W ..L &.=X=.#.U T T o.../.d d ( e * c y ;   o m P.J.{ { 0.0.",
"0.Y.^ u ^ i.6.' ] U.w.7.E.E.9.( 1 R 5.R R 1.w W  .w 3 3 Y T w 3 y.R h h 4 + X . b C [ 0.P.J.{ ( 7.7.",
"7.H.^ u ^ 0.7.7.6.H.0.7.H.8.s 5 :.9 a q q ( h h 1.x.N.N.z... .Y ( ~ d t u %     % J L.Z.{ J.J.{ 0.u.",
"7.H.^ s ^ i.w.i.i.Y.7.B ^ ^ u s 8.+ t ^ a t t ^ q y.3X5X,X<X9XfXE >.d 4 ^ s       ; G [ [ H.J.u.P.Z.",
"8.H.^ s ^ 7.] i.f.Y.] ^ 7.V s V = j 6X3XV = q ~ >.t.d.c.c.z.z.z.y.r.2 2 6.S +     o y 0.P.] ` { 7.7.",
"t.Y.' B ^ V s ^ S :.^ ^ 7.B r s f _.pX_.q a a q 2 a E 5.M.%X,X9X[.>.2 2 S M X   o O y Z.E.7.] J.P.P.",
"7.i.^ V ^ V s ^ B V B V ^ s 4 g XX&X Xj a / d d w ;.c.M... ...z.-X_ 2 d s &     . ; b Z.K.H.J.P.u.H.",
"S 7.' ^ u.' ^ 0.i.0.Z N S n B t.4X[.m.v.b.j 1 /.zXzXbXMXMXcXwX1X-XB s 6.i X   X   b H ' ` { { ( ' ' ",
"H.u.0.u.0.' 9.i.U.U.q.A A } 6.:.y.%X4XW z.= w j *XbXNXbXlXlXlXBX*X` K @ K - X O x x C.I.[ J ' ` 0.Z.",
"u.7.0.u.0.' 6.A.A.s.w.} } q.q.w.8X'.N.W 9XB.].B...x.kXNXlXvXrX$X( z K ; V.D , , D x M | A.Y.J.(.[ 7.",
"0.0.0.P.0.' 6.Z.0.A.A.| } q.e.} _.*X*XE ;XB.,X].9 w ) =XvXvX#XP x.` Z.: K F.F.} 6 <   6 w.J.{ /.P.P.",
"P.7.7.u.7.' 6.w.q.A.w.q.e.| } N J.-X[.9 ;XnXBX5X'.4X*XqXNXcX@XU -X{ J.u K G J A X     * u.7.( 7.] ' ",
"u.{ 7.Z.7.' ' w.9.w.w.9.} e.} A / .X.X8 j 5XnX;Xd.'.xXCXMXvXvXwX*X5 ( ` Y.B = o     o f y.y.r.a.7.Z.",
"0.7.{ 0.7.S ' Z.6.q.q.q.| I.I.q.m (.7X3Xj.Y h.`.h.m.3X0X9X2X2X2X8Xd / a.^.~ f 8 $ o 8 j -./.'.2.7.Z.",
"0.7.[ u.7.` ' 0.6.9.6.G } s.Q.I.E.S ^.aXdXdXdXdX .3.= 8 :XwXwXvXsX( y.p.v./.|.v.k # w 1.d.4X8Xd @ @ ",
"0.] { 7.7.G G w.w.9.} A A | F.I.H % * :.<.;XnXVXCXmXjX5Xz.B.eXxXx.$ / 2.m.*X0X*X5.9  .[.>XbXjXq . . ",
"Z u u s m m n S Z G } N A Q.Q.M M x 7 } k h. .`..X6XpXgXmXnX9XM.f R B f _ 5.z.z.>XB.,X4X-XfXeXq . . ",
"] ` Z ' ] ' ] 7.9.N G A.q.M A A I.I.s.s.h.j <.t.s.`.|.|. X Xj.8 :.2 @ 3 R 1.N.4X,X,X5X[.m.4X.X#     ",
"P.[ ] u.H.H.w.H.H.q.w.Q.q.M A I.).| s.).VX5XeXf g._.{.Q.s.s.} j S * . . 8  .[.9X%X%XN.5.v.3Xv.o     ",
"u.] ] 0.H.i.Z.A.9.Q.U.} } | s.!.I.Q.).;XBX;XaXE = & @ . X 7 7 7 v n &   # 3.[.N.n.b.E -..X6X} X     ",
"0.] ' 0.w.0.0.Z.} I.0.q.Q.Q.| s.} I.s.;XdX:XeX/.u 2 . @ 6 M | ~.D D 6 . $ ;.v.4.d.d.<./.6XQ.X   X O ",
"0.' ] 0.H.w.w.w.I.q.q.OXiX).7 } | I.} ;XnXbXjX'.( @ . O 6 D | C.~.x O : s g ;.m.;.c.`..XoX7   X     ",
"{ ' ] i.H.i.0.w.s.q.I.yXhX).= } M ;XeXdXeX9X*X'.( @ O z D V.C.~.C.-   c 6.B :._.;.`._.T.S X   <     ",
"] ' ' 0.i.w.6.7.} Q.Q.).yXQ.7 7 p 7 } j `.[.'.a.2 @ . z V.C.C.).b - < M 0.i.8.h.|.XX^.B % X     ; , ",
"r.:.B B 6.t.i.t.e.e.T.7XpX_.f t 0 g t 0 } _.^.B * ' m 4 0.!.F.Z.o > 6 N U.W.{.6X{.w.p +       o 0.0.",
"7.~ g B V :.~ V j / 3.`. Xh.k f } V 6.f.:.t Z W.W.W.0.J J y ; 4 . y G Z.Q.Z.Z } > +       o > i 7.8.",
">.^ V ^ :.>.-.~ ~ ,.g._. X3.f g g q.Q.s.S A N u -XW.R.R.b o   o   v U.U.U.G e # o . o * p n S w.w.w.",
"S ^ ^ :.8.i.t.8.,.h.|.aXpX`.f j f w.0.i e S 9.A oXL.W.R.4   @ .   N A.6.9.6.N N Z Z S w.w.0.q.w.0.7.",
"B V ^ :.8.t.8.>.t.,._.gXmXXXf j Y.e.6.V * + H.iXD.A.E.G o   o   o Z q.G 6.0.0.R.Q.U.E.W.Q.9.Z C 0.7.",
"^ 6.7.t.w.r.8.8.g.:.T.pXmXXXV s.}.T.f.w.6.6.W.OXi J S :   . o . y 6.w.w.w.6.6.R.0.9.w.R.H.6.Z Z ] ' ",
"8.8.u.i.i.i.t.t.y.8.h.XX6X`.:.s.Y.T.8.:.R.{.U.* e v >       o 4 G ' ' q.A.Z N w.9.6.6.w.w.6.6.6.' ^ ",
"B Z ^ 6.7.8.t.Y.^ t.i.,.y.,.f f T.N 7 A S e * n 6.Z #   .     J ' C i Z 6.v i R.U.w.9.q.q.S Z G ^ ^ ",
"] Z S 6.0.i.8.7.t.8.8.,.h.t.~ i o e e e Z i p E.yX{.>     . : 9.Z 9.0.q.6.9.' N C Z G 6.' G Z Z ^ ^ ",
"7.^ ^ ' i.i.w.8.^ 6.8.i.g.g.t.:.tXtX}.7 & e 6.oX{.0.> . @     4 G 6.w.0.0.9.6.A 6.9.9.9.6.6.6.6.0.0.",
"0.] ^ ] 0.i.i.i.t.8.8.8.8.i.h.Q.{.;Xf.# o p 0.W.oXH.4 .     @ C 6.w.w.q.q.0.9.G I.w.w.w.0.q.0.q.i.i.",
"0.0.6.] 0.H.H.0.T.J.i.>.:.t._.6X.XW.*     N oXyX+X!.4       > D.' q.0.q.6.w.0.' H.w.q.6.6.6.e.0.0.0.",
"Z.w.7.' 7.H.Y.0.i.8.i.t.t.T.OX7X6Xe.+   o N H.Q.9.6.>       > 9.6.0.w.9.6.w.w.6.w.w.q.6.6.6.9.9.0.8.",
"0.G.{ Z ' P.H.7.^ ^ 7.f.i.^ 7.T.i.#   o # * & . C Z >     . c L.G 9.q.9.9.w.w.} w.0.q.0.q.0.w.w.0.w.",
"0.P.[ C ^ H.H.6.0.^ ^ r.^ r 2 t Q.e       e 6.v A 6.n o . . y K.A 6.0.9.q.w.9.S 9.9.w.w.w.H.A.A.i.u.",
"0.H.[ m S H.Y.' H.^ S 6.^ s B 8.f.A i = o N 0.% 4 6.Z.A y o . : m G 0.9.0.w.9.Z G 6.0.w.w.w.w.w.0.8.",
"0.Z.S ' H.H.7.H.H.Y.E.0.S n n B G N G } A A N , b c y b b m b b c N [ 6.6.9.' Z ^ ' ] 7.u.7.] 7.u.0.",
"0.u.' ' H.H.7.P.H.H.E.0.^ n n Z n c C G J G H M G J J J H V.V.H b J [ ' G H ] ' Z ' ' 7.u.r.r.7.0.0."
};
