/* XPM */
static char *f4b3ea8d02a84ad6a747e8fdb906e3754rEfsPeNZAvrZI7F[] = {
/* columns rows colors chars-per-pixel */
"50 48 190 2 ",
"   c None",
".  c #010001",
"X  c #0E0403",
"o  c #0A000A",
"O  c #070607",
"+  c #1C0806",
"@  c #11020C",
"#  c #130304",
"$  c #17130F",
"%  c #1A160E",
"&  c #150015",
"*  c #1C001C",
"=  c #190215",
"-  c gray11",
";  c #210906",
":  c #2B0C09",
">  c #230A08",
",  c #310E0B",
"<  c #3E110D",
"1  c #370B19",
"2  c #240613",
"3  c #282217",
"4  c #2A2218",
"5  c #240024",
"6  c #2B002C",
"7  c #280527",
"8  c #340035",
"9  c #360039",
"0  c #3B003B",
"q  c #3E1931",
"w  c #370625",
"e  c #3A3B3B",
"r  c #40120E",
"t  c #4E1512",
"y  c #591817",
"u  c #6C1E19",
"i  c #681D17",
"p  c #701F19",
"a  c #65081F",
"s  c #7B221B",
"d  c #75231B",
"f  c #490C27",
"g  c #5D112C",
"h  c #4D073B",
"j  c #5B0A39",
"k  c #4A1F39",
"l  c #7A0A26",
"z  c #721D21",
"x  c #453928",
"c  c #68563C",
"v  c #72533A",
"b  c #3E0040",
"n  c #420043",
"m  c #4B004B",
"M  c #530545",
"N  c #4E0050",
"B  c #540054",
"V  c #5C005C",
"C  c #570058",
"Z  c #770857",
"A  c #68094E",
"S  c #6A3450",
"D  c #640064",
"F  c #6B006B",
"G  c #74046A",
"H  c #780667",
"J  c #6F0070",
"K  c #730172",
"L  c #7C007C",
"P  c #7A0374",
"I  c #49494A",
"U  c #7C6647",
"Y  c #606060",
"T  c #76736F",
"R  c #7B7B7B",
"E  c #85241D",
"W  c #8E271F",
"Q  c #8F281E",
"!  c #9A0C30",
"~  c #8A1C3B",
"^  c #882524",
"/  c #962922",
"(  c #9F2B26",
")  c #942136",
"_  c #AB2F26",
"`  c #AD2E2C",
"'  c #A32D24",
"]  c #B03027",
"[  c #B43129",
"{  c #BD342A",
"}  c #DA1D3E",
"|  c #D4113F",
" . c #C2352B",
".. c #D03A2D",
"X. c #C62C39",
"o. c #C5303E",
"O. c #DD3D31",
"+. c #D7363E",
"@. c #E1263C",
"#. c #E42B3B",
"$. c #E53F33",
"%. c #E93439",
"&. c #E53C3B",
"*. c #EB3D3C",
"=. c #E7313A",
"-. c #EC4134",
";. c #EF4039",
":. c #F54336",
">. c #F94437",
",. c #F24239",
"<. c #FC4538",
"1. c #870655",
"2. c #B40A59",
"3. c #B41E5F",
"4. c #A61A5B",
"5. c #BB225B",
"6. c #B82256",
"7. c #A92344",
"8. c #8F0A77",
"9. c #84027E",
"0. c #89057A",
"q. c #8A0775",
"w. c #930B75",
"e. c #9A0F71",
"r. c #920978",
"t. c #9C1672",
"y. c #860B65",
"u. c #A30765",
"i. c #A60964",
"p. c #AD1A63",
"a. c #A3146A",
"s. c #A71667",
"d. c #B11C61",
"f. c #A7206D",
"g. c #AF3572",
"h. c #B72761",
"j. c #CC1D4A",
"k. c #D21141",
"l. c #D81143",
"z. c #C11751",
"x. c #D12F4C",
"c. c #CE3143",
"v. c #DB3546",
"b. c #D3304B",
"n. c #D73348",
"m. c #C72953",
"M. c #CA2D4A",
"N. c #E03743",
"B. c #E33941",
"V. c #8A714E",
"C. c #8C7350",
"Z. c #B75A7E",
"A. c #9D815A",
"S. c #A6885F",
"D. c #8E806E",
"F. c #B89769",
"G. c #B78074",
"H. c #C09D6E",
"J. c #C5887E",
"K. c #CEA975",
"L. c #C5A271",
"P. c #DCB57D",
"I. c #7E0082",
"U. c #810081",
"Y. c #880885",
"T. c #8A1481",
"R. c #962881",
"E. c #B15485",
"W. c #9B6B80",
"Q. c #B76383",
"!. c #BA6786",
"~. c #C67880",
"^. c #969697",
"/. c #CE8E8A",
"(. c #D19687",
"). c #DBA586",
"_. c #DDA885",
"`. c #E3BA82",
"'. c #C6B7B4",
"]. c #ECC386",
"[. c #EDC388",
"{. c #EEC98E",
"}. c #F2C78A",
"|. c #C2C3C3",
" X c #F0DACB",
".X c #FAE3C0",
"XX c #F2E7D6",
"oX c #FBF3E7",
"OX c #FFFFFF",
"+X c #F5F6F8",
/* pixels */
"                                              . . . . . . . . . . . . . .                           ",
"                                              X X X X X X X X X X X X X X X                         ",
"                                          . > ]  . . .{  . . . . . . . . .u .                       ",
"                                          . : $.>.>.>.>.:.:.:.>.>.:.:.:.>.E . .                     ",
"                                      . : _ { ;.:.:.:.:.:.@.} %.:.:.:.:.:.X.! a .                   ",
"                                      . , -.:.:.:.;.:.:.:.} k.%.:.:.:.:.:.#.l.l . .                 ",
"                                      . , $.:.:.:.:.:.:.:.} k.%.:.:.:.:.:.#.l.l . .                 ",
"                                      . : -.:.:.:.:.:.:.:.} k.%.:.:.:.:.:.#.l.l . .                 ",
"                                  . , Q ' -.:.>.*.6.p.p.3.i.u.j.@.%.:.%.@.z.u.j . .                 ",
"                                  . r ;.>.:.:.>.&.0.I.I.I.I.L 2.| %.:.#.| i.I.m . .                 ",
"                                  . < -.:.:.*.5.h.Z.Q.Q.Q.R.  u.i.j.#.2.i.g.Q.S . .                 ",
"                                  . < -.:.:.B.0.T._.[.[.[.    U.Y.2.| u.L Q.}.V.. .                 ",
"                                  . < ;.:.:.+.0.T._.].].`.    0 m 1.2.Z m W.XXC.. .                 ",
"                                  . < -.:.:.&.0.T.).].    . . . . N I.9 . R OX^.. .                 ",
"                                . . < -.:.:.B.0.T._.[.    - . . . S E.k . Y OXR . .                 ",
"                          . . . . . r -.>.>.B.9.T._.{.oX+Xe . . . C.[.c . .     . .                 ",
"                        * 5 5 6 = . 1 M.v.:.&.s.f.~./. XXXT I - . S.[.U . x   x . .                 ",
"                    . . 0 I.I.I.C . * L e.;.:.,.&.8.T.).{.oXOX    [.[.      }.V.. .                 ",
"                    = * m U.P D M < f V H n.v.:.*.s.t.~.(.'.|.    A.F.F.  F.F.c . .                 ",
"                . . n L I.U.N . t $.] O * P e.;.>.,.&.t.L 7 O . . . O V.}.U O O . .                 ",
"                & & N U.P F M > u >.{ , 1 D H n.N.N.n.8.L q 3 3 3 3 3 U L.v : : : :                 ",
"            . . m P I.U.m . y $.$.:.:.$.[ @ * P 0.0.9.Y.Y.J.P.P.P.P.P.c O d $.$.-./ . .             ",
"            . . N U.P J n + d <.:.:.:.>. .2 * D K J J J G G.K.K.K.K.K.c + ^ <.:.>._ + +             ",
"            . . N U.n o u O.$.:.:.:.:.>.v.P D & o @ o @ o % % % % % % ^ O.-.:.:.:.-.O.( . .         ",
"            o o m P 0 o z &.&.&.*.*.&.O.+.8.G = o o o o o o o o o o # E $.$.&.&.*.*.B.` o o         ",
"        . . m J 8 & n F P w.w.w.w.w.Z : t +.b.G F J F F F F F F F 7...d > j w.w.w.w.e.q.G C O .     ",
"        . . C U.8 . m U.9.9.9.L L L C . : -.B.w.U.Y.9.U.U.9.9.9.0.M.>.u . 0 L L L L 9.9.U.D O .     ",
"        . . C U.8 . n U.s.N.) = * * & . : $.;.v.v.v.n.8.9.m.v.v.v.;.:.u . o * * = g n.m.U.D O .     ",
"        O O C U.8 . n U.3.<./ . . . . . , -.,.:.>.>.;.e.9.n.>.>.:.:.:.u . . . . . t >.b.9.D O .     ",
"    . O m V P U.8 . n U.8.a.y.V b . . . : -.:.:.:.:.-.n.n.;.:.:.:.:.:.u . . . 5 V H a.e.U.D O .     ",
"    . . D U.I.I.8 . n U.I.I.U.U.C . . . : -.:.>.:.:.:.:.>.:.:.:.;.:.>.u . . . 8 U.U.I.I.U.D O .     ",
"    . O V U.U.L 8 . n U.U.U.U.U.C . . . : -.:.-.:.:.:.:.:.-.:.:.:.:.>.u . . . 8 U.I.I.I.U.D O .     ",
"    . O V U.U.U.8 . n U.U.U.U.U.C . . . , $.>.:.:.:.:.:.:.:.:.:.:.:.:.u . . . 8 U.U.U.U.U.D O .     ",
"    . . V U.U.U.V m n 8 8 0 8 8 b m 9 . 2 4.d.d.p.3.3.p.d.d.d.d.d.d.d.f . 5 m n 8 8 8 8 0 6         ",
"    . . D U.U.L U.U.0 . . . . . 5 U.D . & L I.I.I.I.I.I.I.U.I.I.I.I.U.0 . b Y.m . . . . . .         ",
"  O 0 n F U.U.I.U.U.V n b h n n h 0 h s ^ 5.p.9.9.U.U.L L I.9.I.U.s.5.) s g b b n 6 . . .           ",
". O D U.U.U.I.9.L U.U.U.U.U.U.Y.B . < -.>.>.B.0.I.I.I.U.U.U.9.I.I.m.>.:.>.s . 8 U.C . .             ",
". O F U.U.U.U.U.U.U.U.U.U.U.F m j i W ;.:.>.&.5.p.9.L B m P U.a.d.v.:.:.>.] i g m 0 .               ",
". O D U.U.I.9.U.U.U.U.L U.U.N . t :.:.:.:.:.:.:.&.r.P & . D U.x.>.:.:.:.:.:.>.Q . .                 ",
". O D U.9.I.I.L L U.I.U.F B 8 . t -.:.:.:.;.:.:.&.A N 9 6 m B o.>.>.:.:.:.:.>.W . .                 ",
". o F U.U.U.U.U.U.U.U.U.m . . . t :.:.:.>.:.>.<.O.; . F L * . _ >.>.>.>.>.>.>.W . . . .             ",
". o D U.U.L U.U.F V V V n 5 5 5 g x.x.b.b.b.M.[ ( w 6 J I.0 5 ^ ] o.x.b.b.x.b.~ 5 5 5 5             ",
". O D U.U.L U.U.8 . . . 0 L L L L 9.9.L 9.U.G @ @ F L U.U.L P 6 . B U.9.9.L 9.9.L L 9.C . . . .     ",
". O B D P U.F D 0 = * * m U.U.I.U.U.I.9.L U.F o o K U.U.U.U.U.5 . N U.U.L U.U.L U.I.U.D 5 * * =     ",
"    O o V U.6 . m I.L P L U.U.U.L U.U.U.U.U.F o o K U.U.L U.U.7 . B U.U.L U.U.U.U.U.U.L L L L D o . ",
"    . . B F 5 . n F F F F F F F F F F F F F C o o V F F F F F * . n F F F F F F F F F F F F F V o . ",
"        o o . . O o o o o o o o o o o o o o o . . o o o o o o . . O o o o o o o o o o o o o o o . . ",
"        . . . . . . . . . . . . . . . . . . . . . . . . . . . . . . . . . . . . . . . . . . . . . . "
};
