/* XPM */
static char *b428b2016dad45abe85b7b26b2db694bCy382UlHBx4I16gg[] = {
/* columns rows colors chars-per-pixel */
"50 50 151 2 ",
"   c None",
".  c #AC7C00",
"X  c #B17F00",
"o  c #AF8007",
"O  c #AF8008",
"+  c #B18205",
"@  c #B98600",
"#  c #BA8805",
"$  c #B28309",
"%  c #BA890A",
"&  c #B28613",
"*  c #B58914",
"=  c #BA8D16",
"-  c #B4891B",
";  c #BE921D",
":  c #B88E24",
">  c #BB9227",
",  c #BB9531",
"<  c #C28D00",
"1  c #CC9500",
"2  c #CF9800",
"3  c #D09800",
"4  c #C39313",
"5  c #CD9E1F",
"6  c #DDA200",
"7  c #E6AA01",
"8  c #EAAD00",
"9  c #EEB000",
"0  c #F3B300",
"q  c #F8B700",
"w  c #F8B801",
"e  c #F8BB0A",
"r  c #E8B117",
"t  c #F3BA17",
"y  c #F8BD13",
"u  c #F8BF1C",
"i  c #C19621",
"p  c #C59926",
"a  c #C59A28",
"s  c #C19D3C",
"d  c #CCA027",
"f  c #CBA12F",
"g  c #D2A424",
"h  c #CDA333",
"j  c #CFA738",
"k  c #D0A633",
"l  c #D3A937",
"z  c #D0A739",
"x  c #D2AA3C",
"c  c #F8C01E",
"v  c #F8C123",
"b  c #F3C12F",
"n  c #F8C32A",
"m  c #EFC039",
"M  c #F8C634",
"N  c #F8C83D",
"B  c #C29F44",
"V  c #C3A047",
"C  c #D5AE41",
"Z  c #D7B043",
"A  c #DCB64B",
"S  c #DDB84E",
"D  c #CBAD5E",
"F  c #E1BC53",
"G  c #E3BE58",
"H  c #CCAF64",
"J  c #CCB066",
"K  c #CFB36C",
"L  c #D1B468",
"P  c #D3BB7A",
"I  c #F8CA42",
"U  c #F1C649",
"Y  c #F4C94D",
"T  c #F8CC4C",
"R  c #E5C25B",
"E  c #E8C55F",
"W  c #F8CE52",
"Q  c #FBD056",
"!  c #FAD15A",
"~  c #E9C762",
"^  c #ECC965",
"/  c #E2C26A",
"(  c #EECD69",
")  c #F2CF6A",
"_  c #F9D363",
"`  c #F3D16C",
"'  c #F9D66D",
"]  c #F5D574",
"[  c #F8D773",
"{  c #F8D877",
"}  c #F7D87A",
"|  c #F8D979",
" . c #DAC48D",
".. c #DCC895",
"X. c #DFCC9C",
"o. c #F9DB82",
"O. c #F9DE8C",
"+. c #EBD595",
"@. c #EFD997",
"#. c #FAE197",
"$. c #FAE39E",
"%. c #DFCEA0",
"&. c #E1D0A3",
"*. c #E5D6AE",
"=. c #E5D6B0",
"-. c #EADBB3",
";. c #FBE6A6",
":. c #F6E4AE",
">. c #FBE7AC",
",. c #FBE8AF",
"<. c #FBEBB9",
"1. c #FCECBD",
"2. c #EDE2C6",
"3. c #EDE3CA",
"4. c #F7E9C0",
"5. c #FCEDC2",
"6. c #FCEFC7",
"7. c #FBEFCD",
"8. c #FCF0CA",
"9. c #F0E7D0",
"0. c #F2EAD7",
"q. c #F3ECDA",
"w. c #F3EDDB",
"e. c #FDF2D2",
"r. c #FDF3D4",
"t. c #FEF3D2",
"y. c #FDF4DA",
"u. c #FDF5DE",
"i. c #F5EFE0",
"p. c #F7F2E6",
"a. c #FEF7E4",
"s. c #FAF7EF",
"d. c #FEF9EB",
"f. c #FEF8E8",
"g. c #FEFAED",
"h. c #FEF8E8",
"j. c #FBF8F3",
"k. c #FEFBF0",
"l. c #FFFDF6",
"z. c #FFFDF7",
"x. c #FEFCF5",
"c. c #FFFDF6",
"v. c #FDFCF9",
"b. c #FFFDF9",
"n. c #FDFCFB",
"m. c #FEFDFC",
"M. c #FFFFFD",
"N. c #FFFEFD",
"B. c #FFFFFE",
"V. c white",
"C. c #FFFFFF",
/* pixels */
"                                                                                                    ",
"                                                                                                    ",
"                                                                                                    ",
"                                                                                                    ",
"                                                                                                    ",
"                                        . . . . . . . . . . . .                                     ",
"                                        $ $ + $ $ + $ $ $ $ . .                                     ",
"                                . . . p ~ ~ ~ ~ ~ ~ ~ ~ ~ ~ i . . . . .                             ",
"                                = = = k _ _ _ _ _ _ _ _ _ _ k = = * . .                             ",
"                            . o R ] ` Y e e e e e e e e e e Y ] ] R + . .                           ",
"                            i f ( [ W M w 8 6 6 6 7 3 6 8 w n W [ ( f ; . .                         ",
"                          . S | [ _ e w q 3 . . . . X . 3 w w e _ } } S . . .                       ",
"                      . a C ^ [ I n w 8 3 g Z Z x Z C C g 3 8 w n I [ ^ Z ; . .                     ",
"                      . j | { ' y w w 6 . Z | | | | | | Z . 6 w w y ' } | j . . .                   ",
"                      . j | I c w 8 < p G m v _ | | _ v m G p 1 9 e c N | j . . .                   ",
"                      - C | n q 0 7 % k ' n w W ' | ! e M ' a @ 7 0 w n | x + o o                   ",
"                  . B q.:.[ n 0 < 4 ~ U y 0 w e c ' [ ' I e 0 8 # # c v ] ] ( ; o . .               ",
"                  . B C.e.#.M 0 # = ] W q q w w e W _ } W u e 0 @ @ w v { { { i o . o               ",
"                  . B m.C.x.! 0 @ = ] T w w w w w w v [ | [ n 0 @ @ 0 n { } ] i . . .               ",
"                  . B v.C.C.! 0 @ = ) _ M y w w w w y I ! } T b % @ 0 n { { ] > . . .               ",
"                  . B m.C.b.Q 0 @ = ] { } M w w w w w w M } | ] = @ 0 n ] | ] 5 . . .               ",
"                  . B v.C.C.Q 0 # > 4.,.} ! T t q w w w t n ! ] = @ 0 n | { ] > . . .               ",
"                  . B m.C.C.! 0 @ , j.r.o.} } v w w w w w w Y ) = @ 0 n | { ] ; . . .               ",
"                  . B m.C.C.W 0 @ , s.v.a.;.{ _ W e w w w w y t # @ 0 n { { ] 5 . . .               ",
"                  . B v.C.C.! 0 @ , s.C.C.5.O.| ' v e w w w w 0 @ @ w n { { ] > . . .               ",
"                  . B C.C.C.! 0 @ , s.C.C.b.x.#.] ] W w w w w 0 @ @ w n { } { i . . .               ",
"                  . s 7.a.C.Q 0 @ , s.C.C.C.C.1.$.o._ n y w w 0 @ @ 0 n { { { ; . . .               ",
"                  . i ] <.C.Q 0 @ , s.C.C.C.C.C.d.o.[ | I w w 0 @ @ 9 n { { ] > . . .               ",
"                  . i ] #.<.I 0 @ , s.C.C.C.C.C.x.6.,.| ! N t 0 @ @ 0 n [ } ] > . . .               ",
"                  . i { [ ] n 0 @ , s.C.C.C.C.C.C.C.a.| } } n 0 @ @ 0 n | [ ] 5 . . .               ",
"                  . i { | [ n 0 @ , s.C.C.C.C.C.C.C.x.y.,.[ _ Y = @ 0 n { | [ > . . .               ",
"                  . i ] | | n 0 @ , s.C.C.C.C.C.C.C.C.C.7.o.o.] = @ 0 n | [ [ i . . .               ",
"                  . i } | [ n 0 @ , j.C.C.C.C.C.C.C.C.C.l.d.;.` = @ 0 n [ | } 4 . . .               ",
"                  . i R ( | n 0 1 a =.w.C.C.C.C.C.C.C.C.C.C.@.F 4 1 q n | ` R ; . . .               ",
"                      . z | n w q 7 + H C.C.C.C.C.C.C.C.C.C.D X 7 q q n | z . . .                   ",
"                      . z | T n e 0 1 l ..9.C.C.C.C.C.C.9...P L ) ! M Y | z . . .                   ",
"                      . j | } [ y w w 6 .  .C.C.C.C.C.C. .. &.C.C.d.o.} | j . . .                   ",
"                        i f E [ W N w 9 3 l J J H H J J P X.w.C.C.l.t.+.h = . .                     ",
"                          . A { } _ e w w 3 . . . + O . P C.C.C.C.C.v.X.. . .                       ",
"                            - 4 ) [ _ N w q 8 8 r -.3.2.i.C.C.C.C.w.V : . .                         ",
"                            . $ G ( ( U y y c e n t.l.C.C.C.p.0.w.=.$ . .                           ",
"                                $ $ $ f ' ' [ [ [ o.;.C.C.C.K & - * . .                             ",
"                                . . . p F F F F F F / =.=.*.B . . . .                               ",
"                                        . . . . . . . O . . . .                                     ",
"                                                            .                                       ",
"                                                                                                    ",
"                                                                                                    ",
"                                                                                                    ",
"                                                                                                    ",
"                                                                                                    "
};
