/* XPM */
static char *_9147af0f1a945fcdbaa9b81a68f7d36Ci5NQ0DEAglG95pg[] = {
/* columns rows colors chars-per-pixel */
"50 50 182 2 ",
"   c None",
".  c #4D4D4E",
"X  c gray31",
"o  c #4F4F50",
"O  c #505050",
"+  c #515151",
"@  c gray32",
"#  c #535353",
"$  c gray33",
"%  c #545455",
"&  c #565656",
"*  c gray34",
"=  c #565658",
"-  c #575758",
";  c #575759",
":  c #585858",
">  c #585859",
",  c gray35",
"<  c #58585A",
"1  c #59595A",
"2  c #59595B",
"3  c #5A5A5A",
"4  c #5B5B5B",
"5  c #5A5A5C",
"6  c #5B5B5D",
"7  c gray36",
"8  c #5C5C5D",
"9  c #5D5D5D",
"0  c #5C5C5E",
"q  c #5D5D5E",
"w  c #5D5D5F",
"e  c gray37",
"r  c #5E5E5F",
"t  c #5F5F5F",
"y  c #5E5E60",
"u  c #5F5F60",
"i  c #5F5F61",
"p  c #606060",
"a  c #606061",
"s  c gray38",
"d  c #606062",
"f  c #616162",
"g  c #616163",
"h  c #626262",
"j  c #626263",
"k  c gray39",
"l  c #626264",
"z  c #636364",
"x  c #636365",
"c  c #646464",
"v  c #646465",
"b  c #656565",
"n  c #646466",
"m  c #656566",
"M  c #656567",
"N  c gray40",
"B  c #666667",
"V  c #676767",
"C  c #666668",
"Z  c #676768",
"A  c #676769",
"S  c #686868",
"D  c #686869",
"F  c DimGray",
"G  c #68686A",
"H  c #69696A",
"J  c #69696B",
"K  c #6A6A6A",
"L  c #6A6A6B",
"P  c gray42",
"I  c #6A6A6C",
"U  c #6B6B6C",
"Y  c #6C6C6C",
"T  c #6C6C6D",
"R  c #6D6D6D",
"E  c #6C6C6E",
"W  c #6D6D6E",
"Q  c gray43",
"!  c #6E6E6F",
"~  c #6F6F6F",
"^  c #6F6F70",
"/  c #6F6F71",
"(  c gray44",
")  c #707071",
"_  c #717171",
"`  c #707072",
"'  c #717172",
"]  c #727272",
"[  c #727273",
"{  c gray45",
"}  c #727274",
"|  c #737374",
" . c #747474",
".. c #747475",
"X. c gray46",
"o. c #757576",
"O. c #767676",
"+. c #767677",
"@. c #777777",
"#. c #777778",
"$. c gray47",
"%. c #787879",
"&. c #797979",
"*. c #79797A",
"=. c gray48",
"-. c #7A7A7B",
";. c #7B7B7B",
":. c #7B7B7C",
">. c #7C7C7C",
",. c #7C7C7D",
"<. c gray49",
"1. c #7D7D7E",
"2. c #7E7E7E",
"3. c #7E7E7F",
"4. c gray50",
"5. c #7F7F80",
"6. c #808080",
"7. c #808081",
"8. c #818181",
"9. c #818182",
"0. c gray51",
"q. c #828283",
"w. c #838383",
"e. c #838384",
"r. c #848484",
"t. c #848485",
"y. c gray52",
"u. c #858586",
"i. c #868686",
"p. c #868687",
"a. c gray53",
"s. c #878788",
"d. c #888888",
"f. c #888889",
"g. c #898989",
"h. c #89898A",
"j. c gray54",
"k. c #8A8A8B",
"l. c #8B8B8B",
"z. c #8B8B8C",
"x. c gray55",
"c. c #8C8C8D",
"v. c #8D8D8D",
"b. c #8E8E8E",
"n. c #8E8E8F",
"m. c gray56",
"M. c #8F8F90",
"N. c #909090",
"B. c gray57",
"V. c #929292",
"C. c #939393",
"Z. c gray58",
"A. c #959595",
"S. c gray59",
"D. c #979797",
"F. c #979798",
"G. c #989898",
"H. c #989899",
"J. c gray60",
"K. c #9A9A9A",
"L. c #9B9B9B",
"P. c #9B9B9C",
"I. c gray61",
"U. c #9D9D9D",
"Y. c gray62",
"T. c #9F9F9F",
"R. c #A0A0A0",
"E. c gray63",
"W. c #A2A2A2",
"Q. c gray64",
"!. c #A4A4A4",
"~. c #A5A5A5",
"^. c gray65",
"/. c #A7A7A7",
"(. c gray66",
"). c #A9A9A9",
"_. c #AAAAAA",
"`. c gray67",
"'. c #ACACAC",
"]. c gray68",
"[. c #AEAEAE",
"{. c #AFAFAF",
/* pixels */
"                                                                                                    ",
"                                '.'.'.'.'.'.'.'.'.'./.R.Z.k.,.} _ _                                 ",
"                            '.'.'.'.'.'.'.'.'.'.'.'.'.'.'.'.~.I.k.$.J J J                           ",
"                            '.'.'.'.'.'.'.'.'.'.'.'.'.'.'.'.'.I.G.4.m ~ _  .~                       ",
"                          '.'.'.'.'.`.`.`.'.'.'.'.'.'.'.'.'.T.k.~.~.k.J.x.6.,.5.6.                  ",
"                        '.'.'.`.'.'.`.`.`.~./.`.`.'.'.'.'.!.N.!.'.`.N.'.`.J.s.e.y.y.y.              ",
"                      '.'.'.'.`.J.e.o.~ J ~ U U U / &.s.J.N.'.'.'.'.Y.`.'.'.Y.k.k.k.k.k.            ",
"                    '.'.'.~.y.m 3 3 e j j e e 6 6 6 - - 6 m y.!.'.'.~.`.'.'.'.R.x.x.l.x.x.          ",
"                  '.'.'.N.j o 3 m A A A m x x j i i e 3 3 - o x x.'.'.'.'.'.'.'.Y.N.N.N.N.N.        ",
"                '.'.`.6.+ + m ~ ~ ~ J J J J m m x j j i y - . - 6 :./.'.'.'.'.'.'.I.Z.N.Z.Z.        ",
"                '.`.&.X % U } _ _ / / ~ ~ U J J A A m x x - - 6 6 - #.~.'.'.'.'.'.(.G.Z.Z.Z.Z.      ",
"            '.'.'.6.+ $ ~ #.o.o.o.} } } _ / ~ ~ U U J x - y i i 6 6 3 :.'.'.'.'.'.'.E.G.Z.G.G.Z.    ",
"          '.'.'.J.$ + J &.&.&.#.o.&.#.o.o.} } / ~ ~ U i j A x x j i 6 6 N.'.'.'.'.'.(.J.G.Z.G.G.    ",
"        N.J.'.`._ + e ,.,.,.:.:.:.&.&.#.#.#.o.o._ A m U U U A A x x i e ~ (.'.'.'.'.'.Y.G.Z.Z.G.    ",
"    '.'.N.N.{.J.3 + ~ 6.6.6.5.5.,.>.:.:.&.&.&.#.} } } _ / ~ U J A m x j i N.'.'.'.'.'.E.Z.Z.Z.Z.Z.  ",
"  '.'.'.Z.E.'.y.$ 3 &.6.6.6.6.6.6.k.x.k.y.,.:.:.y.5.o.#.:.5.5.&./ A m m j ,.'.'.'.'.'.~.N.N.N.N.N.  ",
"  '.'.(.d.(.'. .+ h 4.r.r.r.r.6.Z.Y.Y.Y.J.y.,.y.Y.4._ d.I.T.T.I.x.o.U A x } `.`.'.'.'./.N.x.x.N.x.  ",
"  '.'.'.4.T.'.R $ K y.d.d.y.r.d.G.Z.,.N.Y.x.o.k.I.$. .x.J.6.d.J.Z.:.~ J A / ~.'.'.'.`.`.N.l.l.l.x.  ",
"  '.{.!.e N.'.R : K y.d.d.y.d.d.G.N.~ r.G.N.~ k.I.$. .N.G.~  .l.J.#.U ~ J _ ~.'.'.'.'.`.l.d.d.k.k.  ",
"  '.'.G. .$.!. .: m d.k.k.k.d.l.G.N.~ d.J.x.o.x.I.$.o.x.G._ o.x.J._ / _ ~ #./.'.'.'.'.~.k.y.r.y.y.  ",
"  '.'.Y.G. .4.$.3 b d.l.l.l.l.l.Z.G.x.I.Z.d.6.N.I.$.&.N.J.r.x.J.M._ } } _ ,.'.'.'.'.'.~.y.y.y.r.6.  ",
"  '.'.I.N.!.>.b $ e r.l.l.l.l.l.G.J.Z.J.Z.N.k.N.J.&.&.N.I.G.J.N.5.&.#.o._ e.'.'.'.'.'.E.y.6.6.6.6.  ",
"  '.'.T.l.{.'.>.$ e b &.l.N.N.l.G.N._ Z.Y.J.l.N.Y.o.>.N.J.$.6.6.,.:.&.#.} k.'.'.'.'.'.Y.6.4.4.4.    ",
"  '.'.Y.I.'.'.y.h b ,.K >.N.l.l.J.N._ x.I.x.4.N.J.$.,.N.G._ ,.6.5.,.:.&.#.x.'.'.'.'.'.P.,.,.,.,.    ",
"    {.Z.Z.'.'.N.e h r.d.Q 4.N.N.I.N._ l.G.N. .N.Y.o.,.Z.J._ ,.r.6.5.,.,.&.Z.'.'.'.'.'.G.>.>.>.>.    ",
"    '.T.N.'.'.N.h h r.N. .R N.N.Z.N.>.l.G.Z.$.N.J.4.r.N.Z.&.6.r.6.5.,.,.&.F.'.'.'.'.'.Z.$.>.$.>.    ",
"    '.'.Z.`.'.G.h b r.N.r. .N.l.N.l.N.N.l.N.l.l.x.x.l.k.k.y.d.r.e.6.6.,.,.Y.'.'.'.'.'.x.$.$.$.$.    ",
"    '.'.G.~.'.I.b b 4.l.d. .l.N.N.N.l.N.l.N.N.l.x.x.l.k.k.d.d.y.y.e.6.6.5.Y.'.'.'.'.'.d.$.$.$.$.    ",
"    '.'.~.E.'.Y.K h >.N.l.$.l.l.l.l.N.l.N.l.N.N.l.N.l.l.k.d.d.d.y.y.6.6.4.E.'.'.'.'.'.r.o.o.o.o.    ",
"    '.'.'.`.'.T.K j >.N.N.d._ d.N.N.N.N.l.N.N.l.N.l.N.l.k.k.d.d.d.y.y.6.r.(.'.'.'.'.'.6.o.o. . .    ",
"    '.'.'.'.'.~.R b $.N.N.x.4. .d.N.l.N.l.N.N.l.l.N.N.l.l.l.l.d.y.y.y.6.d.(.'.'.'.'.(.>. ._ o.      ",
"    '.'.'.'.'.(._ b $.N.l.N.N.r.>.r.N.l.N.l.N.N.l.N.l.N.l.l.l.k.d.d.y.r.k.(.'.'.'.'.!.$. ._ _       ",
"    '.'.'.'.'.`._ m o.N.x.N.x.N.l.4.d.x.N.x.N.x.N.x.N.l.x.l.l.l.l.d.y.r.l.'.'.'.'.'.E.$._ _ _       ",
"    '.'.'.'.'.`.$.m  .N.N.x.N.x.N.l.,.N.x.N.x.N.x.N.x.N.l.N.x.l.l.d.d.r.N.'.'.'.'.'.Y. ._ _ ~       ",
"    '.'.'.'.'.'.&.m _ x.x.N.x.N.N.x.r.l.N.x.N.x.N.x.N.x.x.x.l.l.k.d.y.y.N.'.'.'.'.{.I._ _ m e       ",
"    '.'.'.'.'.'.6.K _ l.N.x.N.x.x.N.x.x.x.N.x.N.x.N.x.N.N.l.N.l.k.k.d.d.G.'.'.'.'.'.Z._ ~ j ~       ",
"    '.'.'.'.'.'.r.b _ l.x.N.x.N.x.N.x.N.x.N.x.N.N.x.l.N.x.x.N.l.l.k.k.d.G.'.'.'.'.'.N.~ J e ~       ",
"    '.'.'.'.'.'.d.K _ k.N.x.N.x.N.x.N.x.N.x.N.x.N.d.d.N.N.N.x.l.l.d.d.d.I.'.'.'.'.'.l.~ b e ~       ",
"    '.'.'.'.'.'.l.K ~ k.x.N.x.N.x.N.x.N.x.N.x.N.l.l.$.r.x.N.l.l.l.l.k.d.T.{.'.'.'.'.d.R e m ~ J     ",
"    '.'.'.'.'.'.l.K R d.N.x.N.x.N.x.N.x.N.x.N.x.N.x.d.4.l.N.l.N.l.l.d.d.E.'.'.'.'.'.6.K m ~ R       ",
"      '.'.'.'.'.Z.R R r.l.N.x.N.N.x.N.x.N.x.x.N.N.x.N.r.4.N.x.x.l.l.d.l.!.'.'.'.'.'.4.m K R R       ",
"      '.'.'.'.'.Z.K R r.N.d.r.d.x.N.x.N.x.N.N.x.x.N.x.>.d.x.N.x.b.l.d.l.(.'.'.'.'.`.&.K R R R       ",
"      '.'.'.'.{.I.R R r.l.l.r.$.>.l.N.x.N.x.N.N.N.x.x._ k.x.x.N.l.l.l.l.(.'.'.'.'.(.o.R R R J       ",
"      '.'.'.'.'.Z.b K r.N.l.>.4.K _ 6.l.x.N.N.x.N.N.x.>.l.N.x.x.l.l.d.l.(.'.'.'.'.~. .J J J R       ",
"      '.'.'.(.Z.d.e $  .>.$.d.N.k.&._ >.6.d.6.4.4.r.r.K _ k.x.N.b.l.d.N.'.'.'.'.'.!._ R R K K       ",
"      '.'.(.T.!.T. .b _ d.l.N.l.N.x.N.l.r.r.,.6.6.r.6. .j h y.x.l.l.d.Z.'.'.'.'.'.I.R J J R R       ",
"      '.'.'.'.'.(. .K >.x.N.N.l.x.N.x.N.N.N.x.N.x.l.l.d.y.o.&.k.l.k.d.Z.'.'.'.'.'.I.R K R J J       ",
"      '.'.'.'.'.(.$.R $.N.N.l.N.N.x.N.x.N.x.N.N.x.l.k.d.6.4.&.o.d.d.d.G.'.'.'.'.'.Z.R R J R         ",
"      '.'.'.'.'.'.>.                                                    '.'.'.'.'.Z.R               ",
"                                                                                                    "
};
