/* XPM */
static char *f85bd679f2464a99f31294cc5fabc057v9aVOqCUlqmMYtDY[] = {
/* columns rows colors chars-per-pixel */
"50 50 226 2 ",
"   c #1D0900",
".  c #190700",
"X  c #1C150B",
"o  c #1F180E",
"O  c #240E00",
"+  c #280F00",
"@  c #210700",
"#  c #251201",
"$  c #2B1502",
"%  c #2B1904",
"&  c #2E1D0C",
"*  c #27180B",
"=  c #331600",
"-  c #331C04",
";  c #3B1B01",
":  c #311E0B",
">  c #261E13",
",  c #2F1F12",
"<  c #221713",
"1  c #301E10",
"2  c #3C2105",
"3  c #35220E",
"4  c #3B230B",
"5  c #2C251B",
"6  c #2D2A1F",
"7  c #292519",
"8  c #332313",
"9  c #3B2714",
"0  c #3D2916",
"q  c #34261B",
"w  c #352A1C",
"e  c #3B2C1C",
"r  c #382618",
"t  c #2D2D22",
"y  c #2F2726",
"u  c #352D24",
"i  c #3B2D23",
"p  c #352E2B",
"a  c #2E3022",
"s  c #353224",
"d  c #3C3124",
"f  c #35342C",
"g  c #3C342B",
"h  c #373B2D",
"j  c #3C3B2D",
"k  c #363A24",
"l  c #3D3632",
"z  c #363932",
"x  c #3C3B32",
"c  c #3F3C3B",
"v  c #421F02",
"b  c #4A1F00",
"n  c #452404",
"m  c #4C2501",
"M  c #4D2902",
"N  c #42260B",
"B  c #4A270D",
"V  c #442A0D",
"C  c #4D2C0C",
"Z  c #512700",
"A  c #542C02",
"S  c #592E01",
"D  c #532E0A",
"F  c #592E0B",
"G  c #4C320D",
"H  c #4D3104",
"J  c #563005",
"K  c #593105",
"L  c #54320D",
"P  c #5C350B",
"I  c #5E380D",
"U  c #442C13",
"Y  c #4B2E12",
"T  c #422B1C",
"R  c #422515",
"E  c #502F12",
"W  c #502B18",
"Q  c #4C3115",
"!  c #45321C",
"~  c #4D341C",
"^  c #543312",
"/  c #5A3612",
"(  c #5B3915",
")  c #51361A",
"_  c #563A1B",
"`  c #5B3B1B",
"'  c #563817",
"]  c #61370D",
"[  c #613A0F",
"{  c #633712",
"}  c #623B11",
"|  c #693F17",
" . c #643D19",
".. c #6A3E1A",
"X. c #422F22",
"o. c #4C2D22",
"O. c #443423",
"+. c #4A3525",
"@. c #453824",
"#. c #4A3925",
"$. c #43352C",
"%. c #4A352C",
"&. c #433A2D",
"*. c #4B3C2C",
"=. c #5A3F21",
"-. c #553B26",
";. c #423731",
":. c #443C33",
">. c #4B3D33",
",. c #453E3B",
"<. c #493E39",
"1. c #573E33",
"2. c #3E432E",
"3. c #3E4234",
"4. c #3E453B",
"5. c #674015",
"6. c #684216",
"7. c #64421C",
"8. c #6B441A",
"9. c #6F481D",
"0. c #714A1F",
"q. c #43432D",
"w. c #4A462D",
"e. c #48462B",
"r. c #5B4124",
"t. c #53412D",
"y. c #5B452B",
"u. c #504C2F",
"i. c #454234",
"p. c #4A4335",
"a. c #444835",
"s. c #4B4934",
"d. c #44433B",
"f. c #4B443B",
"g. c #42493E",
"h. c #4D4A3C",
"j. c #544435",
"k. c #5C4534",
"l. c #524C35",
"z. c #52453C",
"x. c #514A3D",
"c. c #594C3E",
"v. c #5A493A",
"b. c #57523F",
"n. c #634322",
"m. c #6B4623",
"M. c #6D4A24",
"N. c #6C4C2B",
"B. c #654529",
"V. c #734B23",
"C. c #744D2A",
"Z. c #75522C",
"A. c #7E542E",
"S. c #644C34",
"D. c #674836",
"F. c #704C32",
"G. c #64523D",
"H. c #745230",
"J. c #7E5733",
"K. c #453F42",
"L. c #464242",
"P. c #4B4542",
"I. c #464E41",
"U. c #4C4A43",
"Y. c #4B4649",
"T. c #4E4A4A",
"R. c #474248",
"E. c #504743",
"W. c #554D42",
"Q. c #534B43",
"!. c #5B4D44",
"~. c #514C4A",
"^. c #534C4A",
"/. c #5A4F4A",
"(. c #4D5243",
"). c #545245",
"_. c #5C5146",
"`. c #55534C",
"'. c #5B534B",
"]. c #5D594C",
"[. c #56594B",
"{. c #565351",
"}. c #5C5553",
"|. c #5D5A54",
" X c #5E5D59",
".X c #604F48",
"XX c #635444",
"oX c #62554C",
"OX c #645A4C",
"+X c #6A5A4C",
"@X c #685245",
"#X c #725C4B",
"$X c #775949",
"%X c #615653",
"&X c #645B52",
"*X c #6A5D53",
"=X c #675F5A",
"-X c #5A6052",
";X c #7F6043",
":X c #656051",
">X c #696256",
",X c #6C635A",
"<X c #64665B",
"1X c #736253",
"2X c #73655B",
"3X c #756A5E",
"4X c #7A6C5E",
"5X c #6D6564",
"6X c #6B6A66",
"7X c #6E6A69",
"8X c #756C63",
"9X c #796E63",
"0X c #726E6C",
"qX c #777161",
"wX c #7A7165",
"eX c #7B746B",
"rX c #7A746D",
"tX c #7B7A75",
"yX c #855A35",
"uX c #84614E",
"iX c #866F5B",
"pX c #856755",
"aX c #81776B",
"sX c #82786C",
"dX c #837970",
"fX c #83827E",
/* pixels */
"x.p.>.p.x.Q./.E././.T.R.K.K.Y.{.K.K.T.~.~.T.P.L.L.c ,.{.6X7X{.c q.q.s.s.a.l f l K.<.K.<.,.<.f.E.f.f.",
"c.p.:.<.z.Q.Q.U.P.<.,.K.Y.T.K.K.Y.Y.R.Y.T.T.U.L.P.d.,.P.^.|. X|.q.e.a.i.j j ;.,.,.K.K.P.p.>.f.f.Q.Q.",
"c.p.p.p.f.c.E.f.,.K.K.P.K.K.Y.Y.}.^.P.P./.^.~.P.P.U.P.<.l l P.`.j w.b.).U.f.U.~.,.R.E.Q.z.f.z.f.Q.x.",
"Q.f.>.p.f.E.U.p.P././.K.p p T.7X5X'.f.<.E.Q.z.<.<.Q./.E.;.u u u d s.:X>X&X`.~.P.:.<.E./.).x.x.x.f.f.",
"W.h.:.i.f.Q.f.<.f.U.P.l p l K.}.2X!.:.d ;.>.&.i $.>.f.z.<.$.i 5 $.W.>X:X%X%X/.K.p l i.U.x.x.l.h.Q.x.",
"h.p.:.i.f.Q.f.p.^.<.l <.}.%XE.g !.>.e 8 8 r 8 , 8 & , 8 r X.X.d !.*X*X'./.%X%X/.y p :.p.p.w.e.s.p.f.",
"f.i.x i.f.h.U.p.z.<.<.'.5X8X%X>.+.e 3 % % % & % % # # # # % 3 8 1..XoX!.oX=X%XK.p ;.>.p.w.w.w.u.p.i.",
"d.i.j i.f.Q.E.f.g <.Q..X/..XoX*XR 4 - % $ = : 4 9 0 R 4 % # + $ : %.K.!.oX%X<.< <.z.W.c.l.l.u.u.h.Q.",
"3.I.h.f x [._.:.p.g d f.2X9X*Xj.+ $ - 2 N V Y Y ) ) Q ) Q Q 4 4 # & 8 $.>.<.;.$.$.:.h.c.s.e.e.s.p.f.",
"i.h.a.t s U.h.j :.g d j.OX+Xv.O.$ ; 2 n V C C Y G C G Q ^ ^ B N & # % , i %.>.>.:.&.:.l.l.s.w.l.p.p.",
"4.I.3.t 6 a.h.j k e e O.*.$.e $ n n m M D D D D M M M J ^ / D C 4 2 # # : X.1.!.z.$.g i.x.l.s.s.f.Q.",
"g.I.3.t a a.b.h.&.g e w 8 & $ $ m M Z A A A S S M Z Z D K K K M G 4 2 % + 9 >.oX!.:.u j h.h.i.q.h.f.",
"g.g.4.h h h.].].OXb.*.e & & 8 4 D S Z A Z Z S Z S S A S K K S A H G G 2 $ % X.1.z.$.u ;.f.f.d.i.f.p.",
"g.I.4.h 2.(.:X>X1X_.e.8 % & 0 Q D S S A S Z Z S S S Z S K K S M 2 H ) 4 $ @ 1 X.$.g $.K.P.P.U.U.U.Q.",
"4.4.4.h z h.[.+XOXl.O.% # % 9 Q K S S S S Z S S S S Z Z S K S S H H G C ; % + * $.>.E.}.^.L.g.T.Q.W.",
"4.g.a.3.h a.).].OXu.e 3 - 2 U ^ P K S Z Z S S S S Z A A S S K J J J H G Y N % @ %.!.5X5X/.c x P.:.;.",
"p.U.i.d.[.x.u > $.! 3 = ; C ^ D K J J S S S J K J Z Z S J K J S Z S D D C Y 4 + j.4X,X:.f ,.c d.P.U.",
"p.Q.i.p.*X].i.g d 9 % $ v Z F F S Z Z M M M A A A Z M M A A S M b A Z D D E 2 + ! XXXX:.f.[.`.T.E.U.",
"p.Q.f.Q.>X&Xz.z.e.3 $ ; Y D D P J J J A A J J J J A A A K K J A Z F F D E ^ N $ ! XX!.p.`. X`.P.U.E.",
"p.Q.p.Q.&XQ.j &.w.& + 4 ^ B b F J J A S A S J J J A M A J J J A Z A F Z D ^ N = 0 c.c.:.(.`.R.d.U.E.",
":.f.p.U._.:.5 d e O   4 W m b A D A A M A M A A M M m M A A M M Z A Z m C C 4 $ # #.*.j :.I.Y.{.P.U.",
">.p.:.f.U.g w :.8 # $ U ` ^ P { I K K K K K P P K D S J K I K K F F F F / ' Q ;   O.*.g l x 4.T.f.f.",
"OX'.f.f.x.&.:.OX8 0 U ) _ ( { { ( I P I I I I I [ I I I } } 5.I { { { / ( n.-.U # O.&.&.p.3.x 4.i.>.",
"eX8X'.W.Q.:.f.qX> e ~ Y B M M b S A Z M M A A A J S J J K I K J S F F F / ' Y 4 . 8 d :.}.{.U.T.d.:.",
"W.&.d l i.i.Q.'.e % ! V ; M m Z M M M M M M Z M M M M M M M M Z Z A b b D E Y U % : O.:XtX-X XtX`.p.",
"d W.'.:.q g oXwXd % ! 2 = B b Z A A S J S A J J A S S A A A A S F A Z D D C U U % : g z.U.I.{.<X>X'.",
"i.9XtXi.X > h.&Xd % U 4 v / F P 5.5.6.6.5.5.6.6.5.5.5.6.6.6.6.6.{ | .. .^ E B U : w z.i.u U.6X{.^.p.",
"'.wX8Xp.X * u &.e % ! V B M.C.yXV.V.0.0.0.9.0.0.9.V.0.0.9.V.9.9.| V.A.C.n.E N 4 # e XXf.7 {.fXT.).h.",
":.Q.&X).s > g z.O.% ! U ^ H.yXyX5.6.6.6.6.6.6.6.6.6.6.6.6.6.6.6.| V.yXyXm.) 2 - . 8 OXc.6 |.rXz b.x.",
"u p.>X>X:.7 g &X&.& ! Y W C.M.V.6.5.6.6.6.6.6.6.6.6.6.6.6.6.6.6.{ 8.C.C.m.` G 4 : &.+X_.:.`. Xt j &.",
":.'.,X&Xf.&.&.p.$.% U U C m. .| 9.8.8.8.8.8.8.8.8.8.8.8.8.8.8.8...|  .8.M.F.N.S.v.XXOX[.`.`.T.x p.s.",
"W.'.Q.:.W.*XW.5 O.# U Y Y M.6.| 5.5.5.5.5.5.6.5.5.5.5.5.5.5.6.6.V.8. .7.Z.uXpXiX1X+X!.W.|.T.g.U.d.p.",
"&.,XdX'.$.Q.Q.* # % r.n n | Z [ ] I I I I I ] I I I I I I P I P J / ( _ n.y.G.G.e.w.2XeX0X6XL.d.h.f.",
"z.!.3X,X'.&X,XXXe $ U 2 ^ Z.] ] } [ [ [ [ [ [ [ [ [ [ [ [ [ [ 5.7.7.7._ =.y.S.G.XXc.2X6X0X0XY.L.h.h.",
"f.d f.,X&X[.>X8X4Xj.~ 2 n ( D | [ [ } [ [ [ [ [ [ [ [ [ 5.I I 5.7.7.( ' =.r.S.G.@Xl.oX/.}.6XR.L.f.p.",
"i.7 g ].`.p.).].qX1X#XS.^ B Z m.I I I I ] I I I I I I [ I P I I G / ( ' =.r.y.u.*.d f.:.L.}.g.L.i.p.",
"q.k s.[.).(.`.d.%..XuXiX$XB.B.B. .I [ } [ [ [ } [ [ [ [ [ [ 5.I I ( 7.u.7.=._ ! 8 w z.<.x T.,.d.i.i.",
"j i.[.[.g.`.`.c E.+XK.@X#X$XuXF.8.6.6.6.6.6.6.6.6.6.6.6.6.6.6.6.9.M.Z.H.N.=.e 4 # 8 z.g p <.p z i.&.",
"k k h.(.3.z I.4.=XrXK.%.%.D.pXD.m.8.8.8.9.8.9.8.8.8.8.9.9.8.8.8.9.0.Z.Z.N.=.G 9 # 8 >.i u d.p p :.:.",
"q.k 4.(.k 7 z 4.p rX5X.X%.o.$X-.8.8.8.8.6.8.6.8.8.8.8.6.6.8.8.8.7.7.M.M.M.=.@.G % 8 >.g ;.|.P.,.&.q.",
"2.k 2.(.-X3.z [.P.f./.!.%.o.1.D.8.6.9.9.8.8.6.6.9.8.6.6.8.0.8.5.9.m.8.7.n.` ) ! # r c.*XQ.p p <.:.&.",
"3.2.3.[.<X`.I.6X,.l <.1.T R o.W L K K K P K K J K K K J I P K D J J J J L L V 4 # T @X2X!.g p U.f.s.",
"a.q.3.).<X[.T.6XE.i i +.R R W v D A A S D A A A J A A A J K A M Z M M H L L C V $ #.1X4X/.;.<./.z.x.",
"s.a.j a.`.g.:.[.Q.q r O.R R B b D J J Z A J J J J J M A S K S S A A A J L ^ Q Q + T G.+Xz.*.<./.h.h.",
"h.p.&.i.).d.j x.:.& : Y v ; b B M M M m m M M A A M m m M M M M M M m M M C n 2 @ - X.>.*.<.<.z.p.p.",
"z.f.i.h.*X'.Q.'.*.: - Q b v D { Z M M m m M Z Z A M m n M M Z M Z S Z Z D M n 2 + : O.>.z.!./.z.h.h.",
"f.Q.f.Q.>X,X'.+XXX3 - ) ^ Z S F K J A M M Z D K K J M M M J J S A A Z J J D B B = ! D.+X*X*XoXQ.z.z.",
"<.p.>.z.,X*XW.!.OX& # V Q C M m L C C M n M G L ^ M B m M C C D m M m C G Q V U @ O.#X2X1X*X/.p.f.f.",
"p.p.i.a.).,X,X|.:.E.c.j.1.j.y.-.e.-.#.*.#.#.~ @.#.#.#.#.@.! ! @.! ! @.! @.q.@.@.&.c.W.Q./.:.g U.f.f.",
"a.q.&.j h.|.}.~.E.%X=X2X2X3X4X3XsXeXaXaXaXwXwX9XwXwX9X9X9X9X9X9XqXqXqXqXwXwXeXeX<X>Xh.:.l p p W.f.f."
};
