/* XPM */
static char *_e188466d49a49fce9f6f860e2692724hNwN064SDH2DTOPN[] = {
/* columns rows colors chars-per-pixel */
"32 50 135 2 ",
"   c None",
".  c #31302F",
"X  c #39362E",
"o  c #3F392B",
"O  c #2D2F32",
"+  c #313131",
"@  c #463B25",
"#  c #4B3D22",
"$  c #483D28",
"%  c #5F491D",
"&  c #75530E",
"*  c #7B560E",
"=  c #7F580B",
"-  c #644A17",
";  c #624B1B",
":  c #6B4F18",
">  c #6E5116",
",  c #745313",
"<  c #7B5811",
"1  c #4F4024",
"2  c #544321",
"3  c #5E533F",
"4  c #6E5625",
"5  c #6E5728",
"6  c #70592A",
"7  c #62563C",
"8  c #4C4C4D",
"9  c #524E46",
"0  c #575042",
"q  c #5C5442",
"w  c #59554E",
"e  c #4E4F50",
"r  c #545454",
"t  c #5C5C5C",
"y  c #605644",
"u  c #625846",
"i  c #645B48",
"p  c #636363",
"a  c #676768",
"s  c #676869",
"d  c #6B6B6C",
"f  c #737373",
"g  c #7E7B75",
"h  c #767678",
"j  c #77787A",
"k  c #7B7B7B",
"l  c #855B07",
"z  c #8A5D04",
"x  c #835C0D",
"c  c #8F6001",
"v  c #8B610B",
"b  c #946301",
"n  c #996701",
"m  c #9D6A03",
"M  c #A36D01",
"N  c #7F7F81",
"B  c #828383",
"V  c #878788",
"C  c #878889",
"Z  c #8C8C8C",
"A  c #8E8F90",
"S  c #8F9092",
"D  c #909090",
"F  c gray57",
"G  c #909192",
"H  c #939393",
"J  c #929394",
"K  c gray58",
"L  c #949495",
"P  c #949496",
"I  c #949596",
"U  c #959596",
"Y  c gray59",
"T  c #979696",
"R  c #969697",
"E  c #979797",
"W  c #949495",
"Q  c #979799",
"!  c #969798",
"~  c #989898",
"^  c gray60",
"/  c #98999A",
"(  c #99999A",
")  c #9B9B9B",
"_  c gray61",
"`  c #9D9D9D",
"'  c #9C9D9E",
"]  c gray62",
"[  c #9F9F9F",
"{  c #9C9C9C",
"}  c #A0A0A0",
"|  c #A0A0A1",
" . c gray63",
".. c #A1A2A2",
"X. c #A2A2A2",
"o. c gray64",
"O. c #A2A2A4",
"+. c #A4A4A4",
"@. c #A5A5A5",
"#. c gray65",
"$. c #A7A7A7",
"%. c #A4A4A4",
"&. c #A6A7A8",
"*. c #A7A8A9",
"=. c gray66",
"-. c #A9A9A9",
";. c #A8A9AA",
":. c #A9AAAB",
">. c #AAAAAA",
",. c gray67",
"<. c #ACACAC",
"1. c gray68",
"2. c #AEAEAE",
"3. c #AFAFAF",
"4. c #ABABAB",
"5. c #AFB0B0",
"6. c gray69",
"7. c #B1B1B1",
"8. c #B2B2B2",
"9. c gray70",
"0. c #B4B4B4",
"q. c #B4B5B6",
"w. c #B4B4B4",
"e. c gray72",
"r. c #BABABB",
"t. c #BBBBBB",
"y. c #BCBCBC",
"u. c #BCBCBD",
"i. c #C1C1C1",
"p. c gray76",
"a. c #C3C3C3",
"s. c gray77",
"d. c #C6C6C6",
"f. c #C2C2C2",
"g. c #C9C9C9",
/* pixels */
"                        r r t t t t r r                         ",
"                    p B k f ` {  .%.f N k t                     ",
"                p h &.s.B h 2.2.p.p.h B %.H f t                 ",
"            r k 1.$.C 5.h d #.$.:.#.d h H k A $.k r             ",
"          p k 2.>. .k w 7 3 y y y y 3 3 w h  .p.[ d f           ",
"        k 2.K k A g 7 4 z z z z z z z z 5 3 g A k K r.N         ",
"      d K r.A g 7 5 z b b c M M M M b b b z 5 7 g Z  .D k       ",
"    V ~ k g 7 5 z c M M b b M M M M b b M M c z 5 7 g k 8.N     ",
"  k _ V g 5 z b n c M M b b M M M M b n M M c n b c 5 g V B f   ",
"t K h d q z M M n c M M b b M M M M c b M M c n M M z q d h D t ",
"t  .y.~ y z M M n c M M b b M M M M b b M M c n M M z u K :.8.p ",
"r B y.~ y l M M n c M M b b M M M M b n M M c n M M z u :.6.8.p ",
"r h k f 3 z M M n c M M n b M M M M b b M M c n M M z q V B f r ",
"t ~ B h q z M M n c M M b b M M M M b b M M c n M M z q f k k r ",
"t  .p.~ q z M M n z M M n c M M M M b b M M z n M M z u K :.` t ",
"r f B d q z M M n b M M b b M M M M b b M M b n M M z u K  .h r ",
"t ~ V j q z M M n c M M b b M M M M b b M M b n M M ; 9 d f k r ",
"p 8.g./ q z M M n c M M b c M M M M b b M M z - 2 2 X 8 k S q.p ",
"t ` 8.J q z M M n c M M n b M M M M b b M M z # . + + 8 ~ d.8.t ",
"t D f a q z M M n c M M n c M M M M b b M M c l x = $ 8 d #.` t ",
"r f 1.C q v M M n c M M b b M M M M b b M M c n M M * q B f p r ",
"r J e.q.u z M M n c M M b b M M M M b b M M b n M M z u K K Z r ",
"t K O.` u z M M n c M M b b M M M M b b M M b n M M z q K :. .t ",
"r p h V q z M M n b M M b b M M M M b b M M c b M M z u K  .K t ",
"t ~ 6.d 3 z M m z x m M b b M M M M b b M M c n M M z q C f p e ",
"t [ 2.Z q z M v $ $ : M b b M M M M c b M M c n M M z q a J ~ t ",
"r A _ K q z M M < 1 m M b b M M M M b n M M c n M M z q A 1.y.p ",
"r a f B q z M m : 1 b M b b M M M M b n M M c n M M z q C T A t ",
"t K ! a q z m < # @ ; b b c M M M M b b M M c n M M z q p s a r ",
"t ` *.J u z x 2 b z < % b b M M M M c n M M c n M M z q A %.T t ",
"r V A B q z z ; , & > > n b M M M M b b M M z n M M z u %.>.Z r ",
"r d d a q z M v % # > M b b M M M M b n M M c n M M z u ) F d r ",
"t ~ #.L u z M M b z M M b b M M M M b n M M z n M M z 3 s f H t ",
"p 2.2.K q z M M n b M M n b M M M M z b M M b n M M z u K :.1.p ",
"p p.Z h q z M M n b M M b b M M M M b n M M b n M M z q h %.e.p ",
"t D k d q z M M n z M M b c M M M M b b M M z n M M , 9 f N h r ",
"r k %.K q z M M n c M M b b M M M M b n M M z & > : o e J N f r ",
"t [ 2.:.u z M M n b M M b b M M M M z b M M z # O O + 8 L 1.6.p ",
"r f Z t.i z M M n c M M b b M M M M b n M M z & > : @ 8 f %.g.p ",
"r k B B q z M M n c M M b b M M M M b n M M b n M M > 9 f k B t ",
"t ` O.j q z M M n c M M b b M M M M b b M M c n M M z u L V g t ",
"t  .p.~ q z M M n c M M b b M M M M b b M M c n M M z u K :.` t ",
"r d k d q z M M n c M M b b M M M M b b M M c n M M z q ! y.h r ",
"r V Z N q z M M n c M M b b M M M M b b M M c n M M z q s k V r ",
"t ` :.K q v M M n c M M b b M M M M b b M M z n M M z q B K q.a ",
"r f ` J q z M M n b M M n b M M M M b b M M c n M M z q T g.3.t ",
"p  .f p q z m M b c m M b c m M M M c b M M z n M M z q d y.[ t ",
"t $.~ V q = z l l l l l l l l z l l l l z l l l l l = q V h d r ",
"p 9.%.Z w 9 0 0 0 q 9 3 9 3 q 9 0 0 q 9 3 9 q 0 q 0 9 w Z T #.t ",
"r p p r r e e e e e e e 8 8 e e e e e e 8 e e 8 e e e e t t p r "
};
