/* XPM */
static char *_9f4a84c9c094f48ddc9f6f3d0334672Zb3Zd70RdLOjc5VG[] = {
/* columns rows colors chars-per-pixel */
"50 50 153 2 ",
"   c #0E1516",
".  c #101417",
"X  c #121816",
"o  c #13171A",
"O  c #151A1D",
"+  c #161D21",
"@  c #191E23",
"#  c #172123",
"$  c #1B2225",
"%  c #1D252A",
"&  c #1F282D",
"*  c #1E2831",
"=  c #21262B",
"-  c #212A2D",
";  c #3B362B",
":  c #3F382A",
">  c #242D33",
",  c #2C2E33",
"<  c #262F38",
"1  c #263136",
"2  c #293236",
"3  c #27333A",
"4  c #2A343B",
"5  c #2D393E",
"6  c gray19",
"7  c #343739",
"8  c #343C3F",
"9  c #383B3D",
"0  c #473B24",
"q  c #4D3F24",
"w  c #433A28",
"e  c #5E471A",
"r  c #5E491D",
"t  c #75520F",
"y  c #7D570C",
"u  c #684C15",
"i  c #624B1C",
"p  c #684E19",
"a  c #6D5117",
"s  c #6C5018",
"d  c #745413",
"f  c #795712",
"g  c #7E5A11",
"h  c #4F4024",
"j  c #534322",
"k  c #584520",
"l  c #5E543F",
"z  c #705724",
"x  c #735A26",
"c  c #685735",
"v  c #63573F",
"b  c #2D3740",
"n  c #2D3941",
"m  c #313C44",
"M  c #3A3F43",
"N  c #3B4145",
"B  c #344149",
"V  c #3D454A",
"C  c #404649",
"Z  c #434A4D",
"A  c #4F4F4F",
"S  c #524E47",
"D  c #575146",
"F  c #5D5442",
"G  c #535049",
"H  c #4C4E50",
"J  c #545454",
"K  c #5A5650",
"L  c #5D5952",
"P  c #5A5A5A",
"I  c #605745",
"U  c #625947",
"Y  c #635A49",
"T  c #646464",
"R  c #676868",
"E  c #6B6B6C",
"W  c #7A766D",
"Q  c #6F7071",
"!  c #737374",
"~  c #777778",
"^  c #777878",
"/  c #7B7B7B",
"(  c #855B06",
")  c #8D5E00",
"_  c #8C5F03",
"`  c #8A5E07",
"'  c #8D5F01",
"]  c #835C0C",
"[  c #8A5F0B",
"{  c #8F6003",
"}  c #8C6009",
"|  c #8D610A",
" . c #906101",
".. c #916101",
"X. c #926201",
"o. c #956401",
"O. c #976501",
"+. c #956403",
"@. c #946404",
"#. c #936301",
"$. c #996601",
"%. c #9B6701",
"&. c #9E6A02",
"*. c #A26C01",
"=. c #A26D01",
"-. c #A36D01",
";. c #A46D01",
":. c #A36D01",
">. c #807D77",
",. c #7F7F80",
"<. c #808181",
"1. c #828383",
"2. c gray52",
"3. c #868686",
"4. c #848484",
"5. c #898989",
"6. c #8D8D8D",
"7. c #8F8F8F",
"8. c #8C8C8C",
"9. c #8F8F90",
"0. c #8F9090",
"q. c #919191",
"w. c #939393",
"e. c #979797",
"r. c #939394",
"t. c #979798",
"y. c #9B9B9B",
"u. c #9C9C9D",
"i. c gray62",
"p. c #9F9F9F",
"a. c #9C9C9C",
"s. c gray63",
"d. c #A0A0A0",
"f. c #A1A1A2",
"g. c #A3A3A3",
"h. c #A5A5A5",
"j. c #A7A7A7",
"k. c #A4A4A5",
"l. c gray66",
"z. c #ABABAB",
"x. c gray68",
"c. c #ABABAB",
"v. c #B3B3B3",
"b. c #B4B4B4",
"n. c #BCBCBC",
"m. c gray",
"M. c #BCBCBC",
"N. c #C0C0C0",
"B. c #C1C1C1",
"V. c #C3C3C3",
"C. c #C6C6C6",
"Z. c #C5C5C5",
"A. c #C8C8C8",
/* pixels */
"3 1 1 > 1 1 1 2 # - m < 3 5 n 4 5 > n 5 V J J P P J P J A V m b < @ 4 4 4 3 1 > > < 4 1 3 # 1 8 5 4 ",
"1 1 1 > 1 1 4 2 $ # 7 4 > 4 5 2 m > M J ! ^ E u.a.i.i.E ^ ! J V , # 4 2 4 1 < 1 1 1 4 4 4 O > 4 4 3 ",
"> 1 1 1 3 > > 4 $ o # $ & - > 2 8 T ^ d.V.5.! x.c.N.N.! <.k.9.! P 7 5 4 b 3 3 1 1 1 2 5 5 + 1 5 5 4 ",
"1 1 < < > 1 > 1 $ o # O O O , A ! f.u.5.c.^ R f.d.f.k.R ! w.^ 5.d.! A 9 4 b 1 1 1 1 3 5 3 O 1 5 5 2 ",
", > 1 > > > , - O > 2 > O N P Q b.l.i.<.L F F F Y Y F F F K <.i.N.i.R R N 5 1 3 1 3 n n < O 1 3 5 4 ",
"1 3 > > 3 > > - O > 4 2 7 ! b.y.Q 9.W l z ` ) ) ) ) ) ) ` z F W 7.Q i.Z.~ V b 3 3 5 n 3 3 O > 3 5 5 ",
"4 4 2 1 > 1 1 - O - - N R e.n.w./ v x ` +.+.X.*.*.*.*.X.+.+.` x v >.7.g.7.! Z b b n b 3 3 + * 1 1 2 ",
"5 4 2 2 1 2 = = + = N 7.e./ W c z ) X.*.;.+.X.*.*.*.*.X.+.;.*.X.{ z c W / k.1.V 4 4 b n *   & > > 3 ",
"& > > = - = % # O 9 E w.2.W x } +.$.X.*.;.+.X.;.*.*.*.X.+.;.*.X.$.+.} x ! 2./ E N > % $ o o X + @ @ ",
"$ + @ # O o o $ - P e.! R F { *.*.&.X.*.;.+.X.*.;.*.*.X.+.;.*.X.$.;.*.) v R ! e.P O % O & & , > - - ",
"4 4 > > & X O 1 > P i.v.7.F ) *.*.$.X.*.;.$.X.*.-.-.-.X.$.;.*.X.%.;.*. .I 7.g.x.P $ = O & < 3 4 4 5 ",
"4 4 4 > > + % 1 - J 2.m.e.I { *.*.&.X.*.;.+.X.*.-.-.-.X.+.;.*.X.$.*.*.) I i.x.M.P > + . & 3 3 n 4 3 ",
"1 2 2 1 $ O , 1 - J ! / ! F ) *.*.&.X.*.;.+.X.;.-.;.*.X.$.;.*.X.%.;.*.) I 3.4.~ J , 3 @ $ 3 4 4 3 , ",
"- - 2 2 $ $ 4 4 < P t.<.! F ) *.;.$.X.*.;.$.X.*.-.*.*.X.+.;.*.X.$.;.*.) F ! / ~ J > > @ + 4 4 > > < ",
"1 - 4 4 $ $ 4 2 > P i.m.w.I ) *.*.&.X.*.;.+.X.-.-.-.*.X.$.;.*.X.$.;.*.) I q.j.a.P > - = @ = > > & - ",
"> 1 2 4 = $ 4 > - J ! 5.Q F ) *.*.$.X.*.;.+.X.-.-.-.;.X.+.;.*.X.$.*.*.` I 8.d.! J < - @ o > > > > < ",
"> 3 5 1 & % 4 - - P e.2.^ F { *.;.$.X.*.;.+.X.;.*.;.*.X.+.;.*.X.%.;.&.u S R ! / K - > @ + > 3 > > > ",
"> 5 3 > & $ 1 < 1 P l.N.e.F ) *.*.&.X.*.;.$.X.*.;.*.*.X.+.;.*.X.i q q ; A ,.w.M.P > 4 @ @ - 4 , 1 1 ",
"< b 3 1 $ = 3 1 < P a.v.w.F ) *.*.&.X.*.;.+.X.;.*.;.*.X.$.;.*.X.0 2 6 6 A e.C.l.P 2 > O O = 3 , 1 1 ",
"4 n 4 4 - & 3 1 > J w.E T F { &.*.$.X.*.;.+.X.*.;.*.;.X.+.;.*.X.} } ` q Z E y.e.P < -   O $ 2 4 3 1 ",
"4 4 < b & > m 4 4 J R z.2.F { *.;.$.X.*.;.+.X.*.-.;.*.X.$.;.*.X.$.;.&.y F ^ E T J & $ o + + 3 5 2 4 ",
"5 4 3 4 O > B 5 4 J 0.b.l.Y { *.*.&.X.*.;.$.X.*.-.*.*.X.+.;.*.X.&.*.*.{ I 7.t.6.J $ & + + $ , 3 3 4 ",
"4 3 , > o # B 5 1 P w.s.y.I { *.*.&.X.*.;.$.X.*.-.-.*.X.$.;.*.X.&.*.*.) I w.l.i.P > & @ @ * > 3 4 4 ",
"2 3 > % O + > 2 2 J T ^ 2.F ) *.;.$.X.*.;.+.X.*.-.-.;.X.+.;.*.X.$.*.*.) I 9.d.y.P > < $ + < < & - - ",
"@ @ O & % O $ $ $ P t.v.R F ) *.&.{ ` @.;.+.X.-.-.-.*.X.+.;.*.X.&.*.*.) F <.E P J $ 2 $ # + + O + # ",
"> = & + O > 4 4 3 P u.l.5.I ) *.| w : r ;.+.X.*.-.-.*.X.+.;.*.X.$.;.*.{ F T 7.e.J = O X $ # $ & & & ",
"4 4 5 $ O b b < 4 P 8.e.7.I ) *.*.g r %.;.$.X.*.-.-.-.X.$.;.*.X.$.;.*.{ F 7.j.n.P m 2 # + % 1 4 4 5 ",
"4 1 4 - O 4 4 > 4 J E ^ / F ) *.&.a j | ;.+.X.-.-.-.-.X.+.;.*.X.$.*.*.) I ,.0.7.J 2 4 $ # 2 4 4 4 5 ",
"m 3 2 3 @ > 5 , 3 P e.w.R F { $.g h h k @.@.X.-.-.;.*.X.$.;.*.X.%.;.*.{ l T R T J > , $ $ 1 4 5 5 5 ",
"5 7 4 4 $ > > > 2 P y.j.w.F { | h @.@.] r X.X.-.-.*.*.X.+.;.*.X.%.*.*.) I 0.j.i.P > 1 % $ 2 4 8 4 2 ",
"3 m 5 4 $ 4 3 1 1 J 7.e.<.F { } r ] ] f a X.X.-.-.-.*.X.$.;.*.X.%.;.*.) I e.l.7.J 2 > $ @ 2 5 5 4 1 ",
"2 5 4 2 O 4 b 3 4 A T R P F { &.| h w i ;.+.X.-.-.-.;.X.+.;.*.X.%.*.*. .I y.t.T J 3 - @ # 3 4 8 4 4 ",
"2 5 4 2 + > n 4 8 J y.d.7.I { *.*.+.{ &.;.+.X.*.*.;.*.X.+.;.*.X.&.*.*.{ F T Q w.J , > @ @ 3 b b 2 3 ",
"3 5 b 5 @ # - 4 5 P x.l.w.F ) *.*.&.X.*.;.$.X.*.;.*.*.X.$.;.*.X.$.;.*.{ I q.j.x.P % > o $ > 4 4 2 1 ",
", 5 4 2 $ > $ $ o P Z.5.! F { &.;.$.X.*.;.$.X.*.*.;.*.X.+.;.*.X.$.;.&.) I ^ d.b.P 2 > O O > 3 3 1 1 ",
"1 2 3 & 1 n 3 5 > P y.! R l { *.;.%.X.*.;.+.X.*.;.*.*.X.$.;.*.X.&.;.&.t D E ,.>.J + + o + < 7 3 > 1 ",
"2 4 2 = 4 5 1 3 4 J ! k.w.I { *.;.$.X.*.;.+.X.;.*.;.*.X.+.;.*.X.d a u w A 6.1.! J + @ . @ 1 5 5 3 3 ",
"1 2 4 & - 5 4 4 1 P i.x.d.Y ) *.*.&.X.*.;.+.X.*.-.-.*.X.+.;.*.X.0 6 2 6 A w.l.b.P n m % O 1 3 m 2 3 ",
"3 2 1 - - 2 4 5 3 J E 8.x.Y { *.;.$.X.*.;.$.X.*.-.-.-.X.$.;.*.X.y f d w Z Q i.A.P 5 b 5 + 3 7 5 3 3 ",
"4 5 4 1 - 2 3 5 > J / 3./ F ) *.;.%.X.*.;.+.X.*.-.-.-.X.+.;.*.X.$.*.$.d D ! / 2.P 3 < 4 % 4 7 3 < 3 ",
"4 5 b > - 4 1 1 - P a.s./ F X.*.*.&.X.*.*.+.X.*.*.;.*.X.+.;.*.X.&.*.*.{ I 5.8./ J 4 4 n % 3 b 4 3 4 ",
"4 m n > > 4 < 5 & P a.b.0.I ) *.*.&.X.*.;.$.X.*.;.*.*.X.$.;.*.X.$.*.*.) I w.j.t.J 3 3 5 % b 4 4 n 5 ",
"5 m n 1 > b 3 5 > J Q 2.E F ) *.;.$.X.*.;.$.X.*.*.;.*.X.+.;.*.X.$.;.*.) I e.M.! J 5 4 4 % m n b B b ",
"n n b < , 5 3 2 1 J 3.6.,.F { *.*.$.X.*.;.+.X.*.;.*.*.X.$.;.*.X.$.;.*.) F T ~ 5.J 5 b 3 % B n b n n ",
"n 4 4 4 > 4 4 1 2 J i.j.0.I { *.*.&.X.*.;.+.X.-.-.-.-.X.$.;.*.X.&.*.*.{ F ,.r.m.P 5 4 3 % B m n n B ",
"b 4 n 4 3 4 4 4 4 J E i.8.F { *.*.&.X.*.;.+.X.*.-.-.*.X.+.;.*.X.$.;.*.) I w.C.l.P 3 1 $ o m V B n n ",
"b b 4 * % < - > $ P d.! R F ) $.*.+.X.&.&.+.{ &.*.&.&.{ +.&.&.{ $.&.&.) F ! b.e.P > % > $ # 2 n 5 5 ",
"$ % > 3 3 1 3 & O P j.e.<.F ( ` ( ( ( ( } ( ( } ( ( ` ( ( ` ( ( ( ` ( ( I / ^ R J m 5 4 5 % > - & 1 ",
"3 3 3 4 4 3 4 5 # P M.i.3.J G G G G S G G G G G G G G G G G G G G G G G J 5.t.v.P n b < 1 & 5 5 5 4 ",
"2 1 1 1 1 > > 3 $ A P P J J A A A A J A A A A A A A A J A A A A A A G A A P P P J 4 b 3 1 $ 3 3 4 1 "
};
