/* XPM */
static char *f0ad2c10b7f84989deedd5d9c7a3daa5EY1u349oKf1yYNbA[] = {
/* columns rows colors chars-per-pixel */
"50 47 185 2 ",
"   c None",
".  c #251302",
"X  c #2A1603",
"o  c #2E1904",
"O  c #271708",
"+  c #2B1B0B",
"@  c #331B03",
"#  c #3A1E02",
"$  c #331E09",
"%  c #241C14",
"&  c #2C1E10",
"*  c #3E2103",
"=  c #34210D",
"-  c #3F260C",
";  c #2C2116",
":  c #2C241C",
">  c #2F281F",
",  c #332314",
"<  c #3A2612",
"1  c #3C2916",
"2  c #33261B",
"3  c #3A2C1E",
"4  c #2E2720",
"5  c #2F2B27",
"6  c #302720",
"7  c #342C24",
"8  c #3A2E22",
"9  c #342F2A",
"0  c #3B3125",
"q  c #36312B",
"w  c #3B342D",
"e  c #3F382F",
"r  c #3A3632",
"t  c #3D3934",
"y  c #3E3C39",
"u  c #442402",
"i  c #492702",
"p  c #4D2903",
"a  c #41260B",
"s  c #45290C",
"d  c #4B2B08",
"f  c #542C02",
"g  c #582F02",
"h  c #522E09",
"j  c #563006",
"k  c #5C3205",
"l  c #53300B",
"z  c #5D350A",
"x  c #412A11",
"c  c #492F13",
"v  c #49331C",
"b  c #523414",
"n  c #5A3611",
"m  c #5D3A14",
"M  c #5A3A19",
"N  c #613507",
"B  c #613609",
"V  c #63390D",
"C  c #693D0E",
"Z  c #613C15",
"A  c #6C3F10",
"S  c #443526",
"D  c #4C3822",
"F  c #43372B",
"G  c #43392E",
"H  c #573C20",
"J  c #433C35",
"K  c #493E33",
"L  c #423E39",
"P  c #6C4317",
"I  c #64401B",
"U  c #6E4419",
"Y  c #714211",
"T  c #724619",
"R  c #5E4020",
"E  c #4D4134",
"W  c #47433D",
"Q  c #46433F",
"!  c #47433E",
"~  c #45423D",
"^  c #45413B",
"/  c #49413A",
"(  c #48443F",
")  c #4A453D",
"_  c #4C443C",
"`  c #554637",
"'  c #50473D",
"]  c #54493D",
"[  c #624324",
"{  c #6A4623",
"}  c #6E4925",
"|  c #67482D",
" . c #6A492B",
".. c #714C27",
"X. c #654C34",
"o. c #694D33",
"O. c #654D3B",
"+. c #6C5034",
"@. c #474440",
"#. c #474540",
"$. c #484540",
"%. c #484641",
"&. c #4B4640",
"*. c #4B4743",
"=. c #4C4740",
"-. c #494641",
";. c #4B4843",
":. c #4E4943",
">. c #4C4944",
",. c #4D4A45",
"<. c #4C4A45",
"1. c #4D4B46",
"2. c #4E4B46",
"3. c #4F4D47",
"4. c #4E4A44",
"5. c #4F4D48",
"6. c #514D46",
"7. c #524D46",
"8. c #544C43",
"9. c #584E45",
"0. c #504D48",
"q. c #514E49",
"w. c #524F4A",
"e. c #524F49",
"r. c #575047",
"t. c #5B5247",
"y. c #53504A",
"u. c #57524B",
"i. c #54514C",
"p. c #56524D",
"a. c #56524D",
"s. c #58524B",
"d. c #59554F",
"f. c #5C544B",
"g. c #575550",
"h. c #5A5751",
"j. c #595651",
"k. c #595651",
"l. c #5B5853",
"z. c #5A5851",
"x. c #5C5953",
"c. c #5D5A53",
"v. c #5D5A54",
"b. c #5E5B55",
"n. c #5D5954",
"m. c #5F5C56",
"M. c #5F5C57",
"N. c #5D5A54",
"B. c #5F5C58",
"V. c #644F43",
"C. c #645345",
"Z. c #61564B",
"A. c #63594F",
"S. c #6A5D4F",
"D. c #765B40",
"F. c #635651",
"G. c #605D57",
"H. c #645D54",
"J. c #695F55",
"K. c #615E58",
"L. c #605E58",
"P. c #625F59",
"I. c #625E59",
"U. c #615E59",
"Y. c #7B644D",
"T. c #6A6056",
"R. c #63605A",
"E. c #67635D",
"W. c #65625C",
"Q. c #67645E",
"!. c #65625C",
"~. c #6C635B",
"^. c #71665B",
"/. c #74695F",
"(. c #7D6C5C",
"). c #5D6075",
"_. c #6A6660",
"`. c #776C62",
"'. c #796F65",
"]. c #7A7066",
"[. c #7E7369",
"{. c #827569",
"}. c #877D73",
"|. c #8C8278",
" X c #646C84",
/* pixels */
"                                        q.2.q.q.W W W J G.E.E._.                                    ",
"                                    L ;.:.2.2.0.W ~ :.@.J _ v.I.m.a.                                ",
"                                E.E.h.L ,.:.6.w.@.@.:.2.,.L w J e q u.Q.R.                          ",
"                            t ) m.v.v.J L ,.,.=.t @.*.2.2.L 9 q 5 e m.m.m.m.v.                      ",
"                          7.) e *.G.i.7 6 w r q 6 3 8 e J 9 9 r q 3.m.l.v.m.v.                      ",
"                      J a.B.m.l.J y L 2 @ @ $ X O X X o O $ $ 2 0 i.m.m.j.v.R.) L                   ",
"                    ^ J m.c.l.l.e.9 6 $ X X O # * u u # # @ O O $ 3 ) 3.i.I.i.r t t                 ",
"                  ^ w 9 j.I.I.I.:.$ o O @ u i g g f g i k g f # X o = 3 J #.y q w q                 ",
"                ~ y y q r e.j.e.8 X @ i p f p f g f f p g g g g p @ . X $ 3 y :.:.L w               ",
"                t r r q r t 9 2 X # f g f f p g g f g p g N g g f p @ . X @ G :.:.@.w L             ",
"                d.3.y > w 7 o X * g g f f p f g g f g f g k g g f f f * . o 1 *.5.@.r y             ",
"              I.G.R.l./ = $ . @ g g f f f f p g g f f p g k g g f f f k # . @ 8 #.L 9 q             ",
"              I.c.v.7.Q , X o i k g g g f f p g g g f f g N g f f f f k f @ X @ 2 q J d.j.          ",
"              i.m.I.i.y ; X u p k g g f f p f g g g f p f N g f f f f k f i X @ $ :.v.!.v.          ",
"            8.w w J w 7 + * p p k g f g f f p g f g f p f k g g f f f k f k # X = u.I.I.:.          ",
"          Q.I.e.q ^ , @ X p f p k g g f f p f g g g f p f N g f f f f g f k p X $ 9.v.*.t u.        ",
"          G.v.:.t L 6 O @ f f p k g f g p f p g g g f p f N g f f p f g g g f @ o ' g.L ~ m.        ",
"          G.i.t J y 2 X u f f p k k f f f f f f g f f p f k g f f f p g g g f u X S n.L *.l.#.      ",
"          ) J 6 9 9 + . f f f p k k f f g f f g f g f f p N g f f p p g f g f i X = L t w ~         ",
"        i.3.L q ,.8 . a N N k k B B B B B k k B N N N k N N N N N N N B N N k g @ o w @.t 0         ",
"  ].[./.:.:.t u.I.F % v j b b k k k g g k k k N N N N N N N N N N N N N B k k k # X 8 t *.s.        ",
"T.`.H.  e.L r h.I.J & 8 - a < s p f f p p f f f p p p p p p p f i f f p f f f p * X , *.F.l.!.[.].  ",
"f.'     @.t q n.G.L & 8 , = 2 < s f g g g g f g g g k g g g f f f f f f f f f f u X 1 :.n.e.9.F.H.Z.",
"8.8.T.|.t 2 : W i.J ; 8 i s c z V C C A A A A A A A A A A A A A C C V C A j g g * X G *.L y J.}._ 8.",
"  T.A./.9.: ; : t q % s f d I D...T T T T } T T T T T T T T T T U T } ~.o.Z u * o o K g.w e `.J.9.f.",
"      T.F.0 ; w q.L O f g g o. XZ.A U U A U A { A A { A A T { A P P  .).C.P h u @ o F f.J 9.J.9.    ",
"    _ F.T.' r 7 i.) O f g k U O.| A Z U U A U A A A A T U A A U P P U { U P k l - S A.Z.' f.f.      ",
"    f.f.' :.H.e J K o p g k I P U U U U U U A A } T } A U T { A U P U P U ..Y.(.^.Z.Z.A.8.8.8.      ",
"    A.'.f.) r.f.> , X f g g Z Z Z Z Z Z Z m m M m m m Z Z Z Z M m Z m Z m [ H.F.9.t.9.f.^.^.f.      ",
"      ~.`.f.r.f._ 2 + p g f z m n M M n n m n m m m m m M Z Z Z m m m n m I t.Z.' 9.F.^.'.'.~.      ",
"        J.J.f.J././._ h g g n Z Z m m m m m m n Z m Z m M Z Z m Z m m m m [ 9.9.8.6.f.F.~.H.G.      ",
"        9.r.9._ t.J./.X.o.M n n n m m m m m m m m m m m m m m n M n M n n M ` _ 8.E K =.J ) c.      ",
"        I.s.8._ 8.9.f.~./.C.m X.[ Z Z m Z m m Z m Z Z Z Z Z Z Z Z Z I o.{ Z H D 1 $ 8 ^ 0 d.e.      ",
"          j.^ ' 9.7.J.f.f.S.O. XF.P P P U P U U U P U U P P T U T T o. XC.P z p @ o F :.q w w       ",
"          J w / K ' {.Z.` M Z V.| U P P P P P P P T U P P P P P P P } V.| U B f @ o 3 q 7 t Q       ",
"          7.e 7 L / 9.T.] n M U } U U U U T T U T P T U P U U U U U U U } U C B u o 8 d.) ^ *.      ",
"          E.d.:.J.e.J =.] v x b n z z V V V V V V V V Z V V V V V V V V z V k f # o E E.j.w q       ",
"          R.d.v.v.d.9 0 G 3 ; 3 x f f f f f f f f f f f f f f f f f f f h g f g # o 9.E.c.^ q       ",
"          j.J ) v.i.9 0 a d 1 p f f f f k k k f g g f f g f f g f g g g f g g g * o _ m.I.:.r       ",
"          6.:.J *.L 4 < p i - i f p i u u * u f p p i u u i f i i u u i i i u u @ o 2 t ^ t J       ",
"          I.R.m.q.L 5 @ f f f f k k f p i u u g k f p p i i k f p p u k f f f p @ o 2 :.:.9.m.l.    ",
"          l.l.l.l.g.r $ f g p f k k k f f p p k f k f p f p k f f f i f k f f f @ o E I.G.!.I.5.    ",
"          I.G.v.n.g.r , j h f p j k j h p p p k f j p j i d j j f d p f h h p p @ = 9.Q.E.v.:.t     ",
"          d.l.v.g.*.2.P.T.H.H.F.A.S.H.A.Z.f.f.f.f.f.Z.A.f.f.f.t.t.t.f.f.f.f.A.f.d.G.u.~ ^ y q       ",
"                  L u.G.H.G.H.T.J.J.G.m.l.l.j.j.z.z.c.G.R.R.E.!.R.R.B.B.I.I.I.m.l.g.:.%             ",
"                                        5 q t J K ^ J J K ^ J t t J / E           r t               ",
"                                                                                                    "
};
