/* XPM */
static char *_8f29befffea4809c0f9bad5e7561654PUwXnnBqTrotn1g0[] = {
/* columns rows colors chars-per-pixel */
"50 50 127 2 ",
"   c #2E2916",
".  c #2E261D",
"X  c #2F291C",
"o  c #322C1E",
"O  c #36311E",
"+  c #342D23",
"@  c #363224",
"#  c #3A3525",
"$  c #3C3A25",
"%  c #373028",
"&  c #3C352B",
"*  c #3E392C",
"=  c #3F3733",
"-  c #3F3930",
";  c #413C26",
":  c #413C2D",
">  c #433D33",
",  c #483F36",
"<  c #463E3A",
"1  c #454126",
"2  c #45422D",
"3  c #49442E",
"4  c #464134",
"5  c #494336",
"6  c #4C4935",
"7  c #474139",
"8  c #4D463E",
"9  c #4E473F",
"0  c #4E463D",
"q  c #4C453B",
"w  c #4E483A",
"e  c #4C483C",
"r  c #4D493D",
"t  c #4E483C",
"y  c #4F493D",
"u  c #4F483E",
"i  c #4E4A3E",
"p  c #4F4B3F",
"a  c #4E493C",
"s  c #504B35",
"d  c #514D34",
"f  c #50463C",
"g  c #50473E",
"h  c #504A3A",
"j  c #514C39",
"k  c #534E38",
"l  c #50483D",
"z  c #504A3C",
"x  c #514B3D",
"c  c #51493E",
"v  c #50493F",
"b  c #52483E",
"n  c #504A3E",
"m  c #514B3F",
"M  c #524A3F",
"N  c #524C3C",
"B  c #504D3E",
"V  c #524C3E",
"C  c #534D3F",
"Z  c #544E3E",
"A  c #514B3E",
"S  c #53503F",
"D  c #4B4340",
"F  c #4C4441",
"G  c #4E4741",
"H  c #4C4442",
"J  c #4D4542",
"K  c #4E4643",
"L  c #4F4744",
"P  c #4E4641",
"I  c #4F4840",
"U  c #4F4842",
"Y  c #4F4840",
"T  c #514742",
"R  c #504941",
"E  c #514A40",
"W  c #534B40",
"Q  c #524B41",
"!  c #504943",
"~  c #514A42",
"^  c #524B43",
"/  c #554B41",
"(  c #504C40",
")  c #514D41",
"_  c #524C40",
"`  c #534D41",
"'  c #534C42",
"]  c #524E42",
"[  c #534F43",
"{  c #544C41",
"}  c #554D42",
"|  c #544D43",
" . c #564C42",
".. c #544E42",
"X. c #554F43",
"o. c #564E43",
"O. c #514A44",
"+. c #524B45",
"@. c #534C44",
"#. c #544D45",
"$. c #554E44",
"%. c #564F45",
"&. c #554E46",
"*. c #564F47",
"=. c #534C42",
"-. c #584E44",
";. c #524A48",
":. c #554E48",
">. c #565040",
",. c #555145",
"<. c #565044",
"1. c #575145",
"2. c #565144",
"3. c #595440",
"4. c #595146",
"5. c #585147",
"6. c #5A5247",
"7. c #585246",
"8. c #575048",
"9. c #575048",
"0. c #5B5348",
"q. c #5C5449",
"w. c #5E564B",
"e. c #5D564C",
"r. c #5B544A",
"t. c #5F584B",
"y. c #615B4F",
/* pixels */
"q q q , O.@.! ! ! T 8 , v $.G ! G G G q v v : > < H < < ! 6 ; ; : ,.6 4 7 5 4 @ q > > , , 4 f Z q 5 ",
"I ! 8 8 O.@.u v @.O.! < q ! , G K G ! q v g & > K ;.K < q 5 ; 3 @ 7 4 - 4 : 7 : q a z q , , , f T Z ",
"8 8 q 4 ! ! 8 8 7 G F > < 8 q $.K G ! q v g % = > < = = : ; ; 6 e ( [ ( 4 4 [ p % , Z g , g -.0.-.-.",
"G 8 < < v G q 8 q 8 8 : > v 7 $.! T $.a b T : > D H H D 8 6 s Z B ) ) ( - * i e : Z 0.o.g Z Z b q 5 ",
":.@.q < u 8 q < @.! g = 4 ! q 8 O.! $.v Z z : : D H < , , : : 5 4 : 4 Y : & a q & 5 b b g  . .f v v ",
"8 , > > 8 I q q G G 8 * , $.8 8 :.$.o.8 z q % : 7 H H F ! 4 ; s 6 4 7 ( q * a ` . % ; : , b M f j v ",
"< : & * q o.8 v > , , & < ! q 8 O.8 8 4 6 6 ; : & > > < > % ; 5 4 e 4 a 5 + * ,., , 5 > q , , > , > ",
"v 8 4 > ! o.! v : q 8 & : 4 > < 7 q q : 4 6 ; > , < T g q ; : Z 4 u 4 u a + > t.y.-.0.y.-.-.-.0.o.-.",
"8 v v % q w.<.4 q q 8 > 4 o.u <.O.$.g O ; ; > ; , < , = - % * z 5 4 e 4 - o > ,.v f q f g g f q 6 q ",
"q 5 , o < o.u 4 g ! o.> q ` q 8 $.$.f + : O ; > : < > > > % $ 5 e 4 Y 4 : + > ` z v f f Z b j f q q ",
"Z q 4 . : 4 5 4 a v v : > u 4 u :.$.Z ; 3 O ; s 5 q u ! ! 6 4 N e 4 i e e @ 4 ,.f q q q q f f f g z ",
"v 8 q o : q a q z o.q & : u a o.! ! Z ; s 3 6 s q u q I @.q > a e 4 i i i * e ,.Z Z / b g Z b b f f ",
"4 v v o : v v q v o.Z : > o.N o.q v 6 o 1 3 d 6 z v 8 8 T 4 , q 7 4 i i o.: q -.g g q q f 5 5 , 6 q ",
"q Z o.@ * > > * & 4 q & > o.v v ! o.6   $ 1 k 6 Z / 8 8 ! 4 > f e 4 ( p o.> 5 T g f 6 f q q f , g 8 ",
"v u ` & > & # > @ : > @ * v 5 a O./ 6 O ; 1 d d s 8 4 q 8 : * 4 i 4 ` p o.: > , T T Z T  .-./ Z f a ",
"q : q > q : > 5.a v q o + 4 4 4 , , , ; 3 ; 5 k z o.! / ! q 4 v Y 7 ` ` o.* : > ; ; ; : > > , < , > ",
"O.O.O.O.8 > > $.Z v Z &   : 4 4 4 q N q Z $ $ : > : 4 > > 4 , q q q q 4 4 > : ; 3 ; o 5 v 4 q q g g ",
"K K F G 8 > > -.o.o.0.: O 5 j z $.o.<.v 1.> > , 4 > 4 > : 4 > q q 8 q 4 ; ; ; ; 3 ; ; 5 Z ! $.T T T ",
"T K D G T 7 4 5.u v -.> $ f Z z N u N q 1.4 q ` 0.v o.z N 0.Z o.8 ! / 5 : ; ; ; 3 3 ; , Z $.r.! T T ",
"K D 7 7 G q < / q 5 Z > ; 6 k f u 4 q 4 5.4 q N q 4 4 > 4 ! 4 q q T ! 6 : ; ; 3 ; ; # 3 v 8 @.7 F T ",
"K 7 < , q < : q a 6 ! 4 > Z Z q <.u N q 7.4 4 q q 4 5 > q <.v v 8 v g 4 $ # # ; ; O o 5 j 4 q 8 8 , ",
"O.G , D q < > 8 a 4 z 4 : v v 6 N u v q <.4 > 5 : : > & : 8 6 4 8 ! 8 4 & O O O ; O o 5 / 5 8 ! 8 8 ",
"I G 7 D G < > g q > 4 : : v v 6 q q q 4 @.> < 8 v 8 ` q q -./ $.T ! T 8 $ # : 3 : : # < g , 8 ! , 8 ",
"7 7 > 7 , = : g g > q : : v Z v u u ` q ! : : q q q o.> < v 8 8 7 O.-., : ; a t.f s ; : > > 8 , , , ",
"& % + + . + % < & > & : & > Z , 4 / < 7 q % < q q 4 q 5 : & : % < & > > : . 6 N v 5 % * < : > < : : ",
"> = > 8 8 4 > > 4 q 4 4 ; & 4 & > q % , q ; 4 8 8 g v 4 : > F , 4 : > 4 > & 1.1.6 6 * 5 <.` o.-.g T ",
"O.q > q $./ q q q u 8 o., = q < ! 8 > 7 @., q ! 8 v v < > 7 @.T ! q q / & > 0.o.-.o.< q 0.! 8 8 g v ",
"0.q > < v v v o.q f q 5.8 * q q ! 8 > 8 T > = 8 ! ! ! q > I -.T o.q > 8 + , 0.z <.o.: q 5.o.0.q.o.o.",
"4 > 4 v $.! q v v 8 q v > + > > q < , 7 ! < * G < , q > & > , = > : + > + , e.$.r.$.% * < : 4 v u u ",
"> : q o.$.v q v v v 5 q : % , < : & > > - % . & > > > < = = > % > < * , > q 0.q.t.<.* % % . + * : : ",
"4 , > q v 6 q o.f v q q > < @.G e.r.e.;.<.$.> q :.G ! $.! ! O.! 8 o.8 8 ! : < F < F : > q * 4 p 6 4 ",
"q 4 4 z o.v a q q Z q q 4 4 0.7 :.T :.7 ! w.< < ! < 4 v 8 q 8 ! q $.8 , $.+ + & % > : , q * > 4 e e ",
"6 5 @ 2 e 6 ,.) B 6 6 6 4 6 6 p ! ! 5.o.w.0.> * 8 q q q q 4 q v g g g T U 7 < ,.r.@.5./ ! q : g q q ",
"a 2 X @ $ $ : @ : $ - 2 @ @ 2 - ` $.5.Z ` ! : < @.! v g g q q g 8 8 8 T ) - - [ ! I ` ! v 5 : , q q ",
"a 4 O $ 4 4 4 : 2 2 2 2 @ @ $ $ v v o.o.0.8.q 7 o.v g v v q q v 8 8 q g ( 4 - ] u e ` N / q & , / / ",
"$ $ # : 6 6 B 6 ) B ) B 2 @ $ - 4 > 4 8 r.0.> # o.v q q q q q g 8 F 8 8 ( - - ) u u N o.o.g ; 4 5 f ",
"# $ 2 6 6 6 6 6 S B S B 4 $ $ @ , < 8 / 6.@.: : 0.o.v 8 q q 4 q D 7 e e e - - ] 6 6 d B N 5 @ 1 , 5 ",
": 6 [ ) B ) 6 B 6 - 6 e - $ $ @ & : q q 8 < : ! o.8 q 8 v v v v I K e D D - 4 ,.( B 6 6 k 6 # : 6 6 ",
"* - B 7 4 B 6 ) B 2 - 6 6 - - $ + + * : : & % , q > > < q q 8 8 q 7 7 e e - 4 ,.) 6 6 6 d 6 $ 2 > ; ",
"4 2 B 2 4 [ 6 ,.S - 4 6 6 4 4 - / q < 8 -.T % * q < : : > : & & = = - - - @ @ 6 e 2 2 2 6 2 $ 2 ; > ",
"2 - @ - B B 4 e S B e e e 4 @ @ 8 q g 4 g q * , q q 8 q 4 Y e & - e 6 7 7 4 4 X @ @ $ $ $ $ $ 2 ; : ",
"4 6 - 4 B B e e 6 6 e 6 B 6 - @ g q u q 8 q : , 4 q ` u u ,.U - - e e 6 7 e 6 @ e 6 r 6 6 6 2 6 5 6 ",
"4 4 - 4 B B e e e e e e e e 4 @ v g g q v q & 4 < 4 ` I I <.[ > - ( e 7 e e q * S [ B 6 6 6 6 6 f z ",
"e e 4 - i [ e e ] i 7 e 4 4 4 - v q 8 q q q & > , 4 u I u ,.[ 4 4 ( e e e e 8 : B e 6 6 4 4 6 6 5 5 ",
"e e 4 4 i ,.B e e e e e e 4 - - v q q 4 8 8 % : 8 8 o.! D ) [ 7 4 ( e 6 q 6 g : e e 7 7 7 e e i q q ",
"e e 4 - e [ i e 4 4 e r r 4 - @ v 4 q , q 8 & > v v N v e H ) 7 * e 7 e 5 q v > Y ( D e r p L i 8 f ",
"e r - @ - i e 7 4 4 7 7 - - @ @ ! q q 4 g g : > q q ! v 7 e e 4 # a e 6 5 q u < Y e e H r L H H 8 8 ",
"B B 4 @ - e e e i e 4 @ @ @ @ @ / q g q ! g : 4 v v 5.5.( r r < * a r 7 q 4 q - 7 7 e H ;.;.;.H 8 8 ",
"r ,.- - B e ,.( ) ) ) @ - % @ X 7 7 - < 7 - @ + % = + % - % - . > u u r q q u * > , , q / T g T g g ",
"e ] 4 - ,.e ;.H ;.;.[ @ < - - @ - - - - < - + % - < % = 7 7 7 % - Y r r 8 q 8 > : < , q / g , g 8 g "
};
