/* XPM */
static char *_d3ca74599b64253dc56970eea020a00Q1I4pSE5FamFmlii[] = {
/* columns rows colors chars-per-pixel */
"50 50 133 2 ",
"   c #0A0E0E",
".  c #0E0F11",
"X  c #0E1315",
"o  c #0F161C",
"O  c #101317",
"+  c #121816",
"@  c #12161A",
"#  c #151A1D",
"$  c #161D21",
"%  c #191E23",
"&  c #172123",
"*  c #1A2225",
"=  c #1D252A",
"-  c #1F282C",
";  c #1F2931",
":  c #20262C",
">  c #212A2E",
",  c #232730",
"<  c #242D33",
"1  c #282F36",
"2  c #262F38",
"3  c #253036",
"4  c #243137",
"5  c #273037",
"6  c #263137",
"7  c #253336",
"8  c #273236",
"9  c #263035",
"0  c #263437",
"q  c #263135",
"w  c #283234",
"e  c #283335",
"r  c #293335",
"t  c #293036",
"y  c #283136",
"u  c #293237",
"i  c #283337",
"p  c #293236",
"a  c #273039",
"s  c #253238",
"d  c #273238",
"f  c #27313A",
"g  c #27313B",
"h  c #25323A",
"j  c #26333B",
"k  c #273538",
"l  c #27343A",
"z  c #26333C",
"x  c #27343C",
"c  c #27343D",
"v  c #27363D",
"b  c #273339",
"n  c #293038",
"m  c #283138",
"M  c #2A3139",
"N  c #293239",
"B  c #283339",
"V  c #2B3238",
"C  c #2A3338",
"Z  c #28323B",
"A  c #2A333A",
"S  c #2C3339",
"D  c #293438",
"F  c #2B3439",
"G  c #2A3539",
"H  c #29343A",
"J  c #28353B",
"K  c #2B343B",
"L  c #2A353B",
"P  c #2B363A",
"I  c #2C3739",
"U  c #2D343A",
"Y  c #2C353A",
"T  c #2D363B",
"R  c #2C373B",
"E  c #29333C",
"W  c #29333D",
"Q  c #28353D",
"!  c #2A343D",
"~  c #29363C",
"^  c #2B363C",
"/  c #2A373D",
"(  c #2B353E",
")  c #29363E",
"_  c #2A373F",
"`  c #2C353C",
"'  c #2D363D",
"]  c #2C373D",
"[  c #2E373C",
"{  c #2C353E",
"}  c #2C363F",
"|  c #2E373E",
" . c #2A343B",
".. c #2B383E",
"X. c #2B3A3F",
"o. c #2D383C",
"O. c #2E393D",
"+. c #2D383E",
"@. c #2E393F",
"#. c #2F3A3E",
"$. c #2D383D",
"%. c #303B3F",
"&. c #2A3740",
"*. c #2D3740",
"=. c #2D3741",
"-. c #2D3740",
";. c #2B3840",
":. c #2A3940",
">. c #2B3841",
",. c #2B3A41",
"<. c #2C3941",
"1. c #2F3A40",
"2. c #2C3942",
"3. c #2D3A42",
"4. c #2E3B43",
"5. c #2F3C42",
"6. c #2D3B44",
"7. c #2E3B44",
"8. c #2E3D44",
"9. c #2D3A42",
"0. c #303940",
"q. c #303B41",
"w. c #303A43",
"e. c #303D45",
"r. c #323F45",
"t. c #333D46",
"y. c #343F45",
"u. c #313C43",
"i. c #314047",
"p. c #35424B",
"a. c #354149",
"s. c #38454B",
"d. c #39484F",
/* pixels */
"d 3 9 9 < 3 i y % : y.< m +.1.! ! 3 X.! { >.>.1.7.0.{ F % k 7.&.< * { i F m d 9 < 3 F 3 i & y 0.0.F ",
"y 3 9 < 3 3 F i & % { F 9 +.X.k u.- d 8.F +.5.X.+.{ y < # 1.8.1.< % i i ! 3 < 3 9 3 I F F # < F X.F ",
"3 3 3 3 m 3 9 F & # & * - - < < - $ = >.=.m F F F k ! > X $ = = $ % m m >.d 3 y 3 9 F X.X.$ 3 +.+.d ",
"3 3 3 9 < < < y & # % # # @ # @ # @ # @ $ # # % % # # @ @ < : % @ * ! 3 ! X.3 y 9 9 i +.k # 9 ! F F ",
"y 2 < < < < < > # < w 9 # y v - * - > > = < m < : = < % < d.1.8.: # m 2 y ! d 2 < v 1.6.< $ < m +.! ",
"3 m < < d < > > # < i 3 % w.>.F y U ! F +.+.+.I +.m 3 * F >.! d n X - < 3 ! v d d &.>.v 3 # < F 1.+.",
"F F y w < w w > # > > 9 $ 3 m F 3 3 w y I +.F ! +.3 < % 9 +.X.m > X * g 3 { X.=.=.7.v g F # < 3 3 i ",
"+.F y y y y > : # - 3 < @ < m 1 F 3 y y i +.1.&.F y < & > +.#.{ < o % k ! ! m v E v &.1.; o = < < y ",
"- < < = > : = % # * = # @ , y 1 < g F d k ! +.%.1.m d = > E y +.< X @ < ! F m F < < = * # @ + $ % % ",
"* $ % & # # @ & - : % @ @ < w < < d k d k F F +.5.a.g * * ! , - # .   # % & % $ # # = # - > < < > > ",
"{ d < < - @ # < < < y * # w m < < 4 F d d d i F 1.p.< ; & $ % $ % : - , = ; < < : * : # - < m F I { ",
"F F F < 9 # - 9 > > ; < # 3 m < < < m 3 3 < i i ! 5.d % = < < < 3 +.d < g X.1.F m < $ O - g y X.F y ",
"3 3 F < * # 9 3 < > < ; $ < { m d < y 3 { F i F u.i.> $ < y < > i 3 < y 3 4 2 < y < y % * d ! ! d 3 ",
"> < i y * * F F < 3 < < $ < ! =.! m y { m ! F +.1.i.# : > y : 1 %.F < < 4 d ! d 3 < < % % m F 3 < < ",
"< > I m * * I 9 < < ; < # @ * - = = = = > > < < < * # * +.i > i F m 3 3 < 3 < < < < < * % : y < - < ",
"9 9 y F = * I 9 < < < < % O   . @ @ @ O @ # $ # @ $ # * +.< 9 #.i < < 9 < < < < < < - % @ < < < < < ",
"< m { < = = F < > < < 4 * # < > * * # O % < ! 0.3 * @ - 7 > 3 X.E < 3 < < 2 < < < - < % # < I < < < ",
"< &.F 3 = * 3 < < < < < = - 7 3 k < * # ; < y m +.F * * 7 < < y < < < m < < < < - , F & % : U < 2 < ",
"d 1.E < - : k 3 < ; < < = < 7 X.X.! > # 4 d ! F +.+.> # 3 < > > < > > < < < - - < i < # # : F y d < ",
"m 7.F m > = F 9 < 9 < 1 * < +.v &.>.< # < F F F y { y # < < < > > > - - < - < < < < ; X # * V F k 3 ",
"! 1.d ! = < r.! 7 d d m - F +.F ! >.y @ 3 +.F 3 y F +.* - 9 < < < = > < = = < < 3 > * @ # * m =.F F ",
"! F F F $ < i.! F k F F * #.1.X.,.5.3 # < u.1.F I +.F - > < y < < < - < < < < < 3 * - $ # * < m F m ",
"X.m 3 3 @ & a.+.d k F > % ! ! X.5.,.3 $ * +.+.F I X.y # y F F y m < < < < < < y 3 < ; * % ; d 2 k F ",
"y m < * # $ ; F d k = % # * X.>.,.X.= * & - I +.F 1.- % < +.+.3 - * 1 0.0.F y F ! < < * % < < ; > < ",
"% $ # ; = # & * * & @ # # % * = = & # = : @ : > > * # % # & * * * - : r { { m { > = 1 * # $ $ # $ $ ",
"> > = % # < F m F 3 d 3 > I I F y 3 - # # # # & = 9 > : : : = # # # # * * * = % & * # # * & * > > ; ",
"F X.F * # ! =.d F X.F F y F +.1.1.{ +.* # * < +.i.%.I F %.u.%.> F < , F < # # - 1.{ U $ & : 3 i F I ",
"! 3 ! > # F ! 3 ! >.! F y +.>.1.8.>.F < % * y r.%.> y y < F w < m y 9 1 F < + 1 F m F * & i F F F +.",
"1.F F m % 3 F y F F d 9 < d g F F v 1.< $ > { +.F < 3 d F g d d < 9 3 y F +.* 1 3 < 9 * & 9 F +.+.+.",
"+.{ k F = , < < 3 7 3 3 d d g v d >.>.< $ F +.I 3 < < m m m d m m < n 1 m { % y < < i * * y I %.F k ",
"! +.+.! * m y d d { X.F 3 d ! X.1.{ ! = < +.F m y y < m g F ! 3 2 2 3 < 2 < * 1 < y 9 * % F { 0.F 3 ",
"F +.I m # F 1.F F F ! 0.1.X.=.v &.v ! - d 1.d m m F d d 3 k 3 3 < < < 3 > & * y y y > & % < X.5.X.F ",
"y F +.I $ < 1.I +.F m d 1.6.&.6.1.7.=.% &.7.d < < < v d < m X.k 3 m 1 > y * % < y < > % & 3 =.{ 3 y ",
"7 +.+.I % * : { F - $ $ % % ; < &.< $ o 0.=.2 < < d ! ! ! E m < < 2 , - 9 # @ > : = < # * < F I F y ",
"3 +.v 3 * < * * @ O * @ o @ @ # @ X $ $ 3 t.E g < d ; - < < m < > < 9 y : % @ < < 3 > # # < m ! 3 3 ",
"9 i F = 3 1.m ! 4 # # - < % 2 - $ % : % * > * * * * * * = % - < > 1 I : & * X # # # $ # # 9 { d 9 3 ",
"i i m : F >.9 7 ! * = { =.> y { = % < ! ! { F ! d 4 - $ % @ @ $ * : * : < > < > = & & + * 3 { +.d k ",
"r i F = > X.F ! d & X.y < 3 > d = > < m ! 3 w F E g d - % @ < < 9 < 3 F F F { +.{ 1.0.* # y V u.F 3 ",
"F 7 y < > i y X.n < 1.E m 3 > * m m y < < 9 > 7 m 2 3 d = @ < E y > y y 3 y 3 y i F +.+.% m %.I F k ",
"F +.F < > i i X.< < 0.| y 3 : * 4 F m - - < < ; < 2 F F < # 2 < 9 < > < < < > 3 d v y { * ! U F < d ",
"d +.X.< > F 3 7 < < i.i 3 y # = F X.< - < < < < 3 < 7 d y & m y < - < 9 y y 3 3 d k v >.* m { { ! d ",
"=.w.1.< < ! y { - > I I i y & * &.F < - < > < < < < 3 F < & y i < > < F ! { { F d k v ! - =.F { 7.v ",
"! u.8.< < =.k ! < * { +.V < * % F F d < < 3 F 4 3 k F d < # , y 4 < 7 F i F 7 i m X.! F = w.1.{ r.1.",
">.r.1.< y +.F 7 < & : F i < * * # < ! 2 3 ! F ! F F y , < @ > i 2 < 3 3 3 F v F m ! 1.4 = p.1.1.>.r.",
"1.! v m 3 ! F 3 3 = & = > * w y @ # ; < 3 3 F F d 2 y > & # , +.m < < < 9 3 F { F { ! d * i.r.5.>.8.",
"! v 0.F d ! F ! y * $ % : > > & % # @ * ; = = * = * * % @ # # < m =.1.F w < d ! F F 3 * # u.s.r.8.1.",
"X.X.! < = < > < * # F F 3 F U F k $ < v ! F 3 3 3 y 3 =.# # = % % $ $ * = = = < 4 < : < = & y 0.1.X.",
"* = < 3 d d 3 < @ = +.3 v ! +.! F % 1 d 3 7 F F y < < F @ < 3 < , O & < < 3 ! 6.e.8.! y X.= < > ; < ",
"y m F d F m ! 1.# = X.d v ! >.k v = ! d 3 I X.! F F 3 7 # < m 3 < % = * < < 2 m 0.1.! < 3 - +.1.! F ",
"m d 3 3 4 < < k * - I k F m g k m * k F +.5.>.k F X.F +.% 9 y 3 < $ = < n E < y < { 1.k 3 * k ! F d "
};
