/* XPM */
static char *_24112914d8c41368c4617f14adab45eHZ1X8YzC9GPYfnL2[] = {
/* columns rows colors chars-per-pixel */
"50 50 91 1 ",
"  c #13171B",
". c #141A1D",
"X c #28271B",
"o c #171D21",
"O c #1A1E22",
"+ c #1B2225",
"@ c #1D252A",
"# c #1E282A",
"$ c #21272D",
"% c #212A2D",
"& c #292D2F",
"* c #34342E",
"= c #37392F",
"- c #3C3A2B",
"; c #242E33",
": c #262F38",
"> c #263036",
", c #293236",
"< c #273239",
"1 c #2A343B",
"2 c #2D383E",
"3 c #313231",
"4 c #3D3F36",
"5 c #323A3E",
"6 c #3C3C3B",
"7 c #443B25",
"8 c #4B3E22",
"9 c #443C28",
"0 c #443F35",
"q c #6C4D0F",
"w c #7E5605",
"e c #7B5509",
"r c #7F590D",
"t c #634B1B",
"y c #6A4F19",
"u c #6E531E",
"i c #765615",
"p c #795713",
"a c #795817",
"s c #73561B",
"d c #4F4124",
"f c #554321",
"g c #584520",
"h c #57482B",
"j c #5C4A28",
"k c #63502A",
"l c #6A5428",
"z c #2C3740",
"x c #2D3941",
"c c #323C43",
"v c #3D3F40",
"b c #3D4143",
"n c #354249",
"m c #414446",
"M c #4A4942",
"N c #424649",
"B c #44494D",
"V c #4F4F4F",
"C c #555046",
"Z c #585142",
"A c #4F4F50",
"S c #4F5050",
"D c #545454",
"F c #5C5C5C",
"G c #646464",
"H c #676869",
"J c #6C6C6C",
"K c #7D786E",
"L c #737373",
"P c #7B7B7B",
"I c #855901",
"U c #8A5C01",
"Y c #835C0E",
"T c #8F6001",
"R c #8C6109",
"E c #966503",
"W c #996601",
"Q c #9D6901",
"! c #916409",
"~ c #A36D01",
"^ c #838383",
"/ c #8C8C8C",
"( c #939393",
") c #9B9B9B",
"_ c #A6A6A6",
"` c #ABABAB",
"' c #B4B4B4",
"] c #BCBCBC",
"[ c gray77",
"{ c #CBCBCB",
"} c gray82",
/* pixels */
"<>>>;;>,+$c;<2x2xVH^H)_))^PLVbxz:O11,,>>;:,<,+>221",
">>>;<>,,O+2<,5bFL_{/J``]{^P_)PFB1+1,1<:>>>2,1o&121",
">>><<:>,+ .@,VJ_]P'PG_'_'PL(^^_PA,,,z<>>>>,21o>22,",
">>;;::><+.+&FL[__^SDDDDDDFFDL)]'LHB,1z>>>*=4=X>111",
";;;;;;>%.;5H`)G(/FFGFFFFGFGFFP)L/[^m,213=eUUUI-,21",
":,:;:%%%.6G_{)/FF/PGGGGGGGGL/LDP(_)PN5MpIIQ~~Ued42",
",2,,;,,%$J(H/FG/FGGGFFFGHJGGL/LFF^H)KZpUQUQ~~UUTw-",
"2,,,,,%,F[)/G(/^GGFGGGGL))^GJHFP/LDCaUUW~UQ~~UQ~wT",
"$%;##%@D_FFF/^HHJ/GJJJHHHJHGPPGGP/GsW~TW~U~~~U~~II",
"++O+.. D)')DHH(((^L((((((((PP(((JHFsW~TW~UQ~~UW~II",
"2,;:#.oD^[)F/G((/PGLLPLPLPLHL^/(L^GsW~T~~UW~~UW~II",
"1,>;&o#DH/PF/G^^PLP________(JGL^H^GsW~TW~U~~~U~~II",
"><<;$.&D)JGFPFLJH^L/////////PHGJGLGsW~EW~UQ~~U~~II",
"#;,,@.2D)])DLL(/H/JLLPPPPLPLJPPPPLFiW~UQ~UQ~~UW~II",
";;,1++1D^_^F(((/GPP_________^LLP((HsW~TW~UQ~~U~~II",
";>,1$+1D/LJF((PPPGJ^^/^/^//^PFFL/(GjR~TW~U~~~UW~II",
":<2:#@2F]])FPPLP^^^^^^^^P^^^^KJPPLFv8!TW~U~~~U~~II",
":1,>@+>D)])DLH(/J____________^P(LJF03feW~UW~~UW~II",
":2<:##,D)PLF/H/PH^^^^^^^^^^P^LL/L^H6fyY~~U~~~U~~II",
"1z<:;$,DP(LD/GKH^^^^^^^^^^^^^^LJH^GhR~TW~UW~~UW~II",
"12:2@;cDL['DLGLL____`_________^LHLFsW~UQ~U~~~IW~II",
"2<<,o%nD)``DP^/HPPPPPPPPPPPPPPJ^^PFsW~TQ~U~~~U~~II",
"1<,: +nDJL(F((/H//(///(/(/(///PP((HsW~TQ~U~~~U~~II",
",<;+.o%D^_JF(/LJ_____________`^J/(GsW~TQ~UW~~UW~II",
"OO.#+ @D_'^DJLPHPLPLLPLPPLPLPLJPLLDsQ~TQ~U~~~UQ~II",
"%$@oo:<D)_(FPH/J//////////////PPLLFsW~UQ~UQ~~UQ~II",
"212@.zzDJL(F/H/J___________`__^^L^HsW~TQ~UQ~~UQ~II",
"1>1%.1<D^^JF/FLGPLPLLPLPPLLLLPJJG^HsW~TQ~UQ~~U~~II",
"c,<,O,<D)_^DJH^H////////(/////(LFJFsW~TW~UQ~tfE~II",
"25<1O:,D__)D^^KJ___`__`________^P/FsW~TQ~UQ~Y-8EII",
"<512$1,AFFFF(/GGHHHJHJHHJJHHJHHG^(HsW~TQ~UQ~~9YQII",
"<2,, 1xD/)/F(/J))))))))))))))))P^(GsW~TQ~UQ~f*R~II",
",22,.;xD)`)DGHL______`_________PGGFsW~TW~U~8Yef!II",
"<222++#F{_)D^FJ____________`___^GPGsW~TW~UW7!U8!II",
":21,+;+F{GGF/GGLJLJLLJLJLJLJJLLJG^GuE~T~~U~!f8Y~II",
">,<@>2<DG(/F/FH)))))))))))))))))L^G0Y~TW~U~~!eW~II",
",,,%1x>D)_)VH(J_________________PGD6,pUW~UW~~U~~II",
",,,@%21D)']F/HL_____`___________P^G63*q~~U~~~U~~II",
",>>;%>,DFJ'F/GGGGGGGGGGGGGGGGGGGG^G0Y~TW~U~~~UW~II",
"22,>%,1D)(FF/J_)_)_)_))__))__)_)L^HuE~TW~UW~~U~~II",
"<2z;;<<D)`)DFJ______`________`__PFDsW~EW~UQ~~UQ~II",
"2cx;;z<D)})VGJ`_________________PGFsW~UQ~UQ~~UQ~II",
"1cc;;21SFGFDH))))))))))))))))))))LDsW~EW~UW~~UQ~II",
"zc2::2,D))(VFLJLJLJLLJLJJLJLLJJLJHDsW~UQ~U~~~U~~II",
"x1z<:,,D(_)DJ____________`_______PDsW~UW~U~~~UQ~II",
"z<x1<11DG(/VJ____________________PDsW~EW~UQ~~UQ~II",
"xz1;@;$F{FFDJ))))))))))))))))))))LDsW~UQ~UQ~~UQ~II",
"@@%>>>>F__)VFFFFFFFFFFFFFFFFFFFFFFDsE~EW~UQ~~UQ~II",
"<<<<,<,F'(^VVVVVVVVVVDVVVVVDVVVVDVVlp!UW~UW~~U~~II",
"<>>;<;;NvbNNNmNNmbNNNNNNNNNN6mNNN6bmNkYW~UQ~~UQ~II"
};
