/* XPM */
static char *_e78da8b238b44d89912ee79f6b44431o82gTRRaPVLQfwpY[] = {
/* columns rows colors chars-per-pixel */
"60 79 75 1 ",
"  c None",
". c #33312F",
"X c #3C362B",
"o c #3F382A",
"O c #2F2F30",
"+ c gray19",
"@ c #453B27",
"# c #4B3E25",
"$ c #433A28",
"% c #5D4617",
"& c #54421E",
"* c #5D471A",
"= c #5E481D",
"- c #74520F",
"; c #7B560C",
": c #7F590C",
"> c #624916",
", c #6D4E11",
"< c #644C1B",
"1 c #6A4F18",
"2 c #725315",
"3 c #795712",
"4 c #7D5912",
"5 c #71551E",
"6 c #75581E",
"7 c #504123",
"8 c #4F4737",
"9 c #47433C",
"0 c #5F5135",
"q c #5D513B",
"w c #6D5524",
"e c #67532B",
"r c #69542A",
"t c #625233",
"y c #3E3F41",
"u c #3F4041",
"i c gray25",
"p c #4F4F4F",
"a c #504F4D",
"s c #565045",
"d c #585142",
"f c #53504A",
"g c #4E4F51",
"h c #535353",
"j c #565758",
"k c #575859",
"l c #5D5D5D",
"z c #615A4B",
"x c #5E5F61",
"c c #5F6060",
"v c #646464",
"b c #6B6B6B",
"n c #747474",
"m c #7B7B7B",
"M c #855901",
"N c #8B5D01",
"B c #835B0C",
"V c #905F00",
"C c #8F6104",
"Z c #8B610A",
"A c #946301",
"S c #9A6701",
"D c #9E6A01",
"F c #A36D01",
"G c #838383",
"H c #8B8B8B",
"J c #939393",
"K c #9E9E9E",
"L c #A5A5A5",
"P c #A9A9A9",
"I c #B3B3B3",
"U c #BBBBBB",
"Y c #C3C3C3",
"T c #CDCDCD",
"R c #D2D2D2",
/* pixels */
"                ppppapapppppa                               ",
"              ppmnhmGGGHGmjnnpp                             ",
"             vbnJJlJLPPIIKjHJbbl                            ",
"           jjnLRUHjJPPLRYJjHLLKnjj                          ",
"        pplJUKbRUHjKYTPRYJjHPKvGJJkpp                       ",
"       ppnLLULGHGbhbGHmHHnlbnmmJIYHvpp                      ",
"       vlHUPLKHjphhhhahfajvjahHKITKmvn                      ",
"     hvLLmvKLGjflcllllllllvvlhhHLKvGPTnp        MMMMMMM     ",
"    pnLRIKHvvnGGbvvvvvvlvvvvbHHbvvHLPIKnp   s:MMMSSDSNMM    ",
"   hnmHUHmmblvGmbvvlvlvvlllvbmJmvkmmGKHHHj qrMNANDFFFNMMM   ",
"   bKmbJbkvJnlvvvvlvlllvbbbvvbHHmlkkbJlGIzdrMNSSMDFFFNMNNMM ",
" pmTPLHlGHJJblxlvvvvvvvJLKKnvvbvvvGJGkhhz4MMMFFSNDFFFNCFFCMM",
"pmHnbvbGJGnbvbGvlcllllvbnbnvlvGblcvGJml04ASAMFFSMDFFFMAFFAMM",
"pGKbnlkmmnnnnmHvbmmmmmmmmmmmbvJmnnnmGmkeNFFSMDFSNDFFFNAFFNMM",
"hGPPPnhvvnJJJJHvHKKKKKKKKKKKHvHJJJJmlvhrNFFSMFFSMDFFFNAFFNMM",
"pGURInlHbnJJKJHbvvvbvvvvvbvvvvHJJJJmbHlrNFFANFFSNDFFFNAFFCMM",
"plGUPnlHbmJJJHnvmHHHHHHHHHHHmvnnmJJnbJxeNFFAMFFSMDFFFNAFFNMM",
"pvnHHblJbbGGGmbvHPPPPLLPPLLPJmvlbGGbbHxeNFFSMFFSNDFFFNAFFCMM",
"pGJkjhlHblvvlnHbHKKKLKKLKLKLKKbvvxvxbHxeNFFANFFSMDFFFNAFFNMM",
"pGLJJnhvlnHHbnJvvbbbvbvbvbbvbvvmmvGnxxjrMFFSMFFSNDFFFNCFFCMM",
"aGIYImkmmHJJbnJbnHGHHHGGHGGHHGvGGvHHmmkrNFFAMFFSMDFFFCCFFNMM",
"amKUJblJKJJJbbGvHPLPLLPLLLLLLKbmmvHJJJxrNFFAMFFDNDFFFNAFFCMM",
"gjkkkflJJJJJnvvvHLLKLLLKLLLKLKvllvHJJJxeMFFSMFFSMDFFDNAFFCMM",
"aJIJJblJJmvbHGclvbbbbbbbbbbbbbvcxlbmJJc9&FFAMFFSNDFFFNAFFCMM",
"pJTYInjmmmnmGHGGGGmGGmGGmGmGmGGnbnmmmmkiX<ASMFFSMDFFFNAFFNMM",
"pGITPmhvlmJJbmLLLLPLLLLLPPLLPLLmnJJnlvhiO+2ZMDFSNFFFFNCFFCMM",
"hGPLLnlHvnJJnmLLLLLLLLLLLLLLLLLmbJJnbHv$+..&NDFSMFFFFMCFFCMM",
"pHJvvllHbmHnvvnbbnnbnbnbbnbnbnnvbnHmbJvyo:BBMFFDMDFFFNAFFCMM",
"pbGHnllJbbmvmmmmmmmmmmmmmmmmmmmmnvmbbHx9>FFSMDFSMDFFFNAFFVMM",
"pjGRImlHbvvvJLLLLLLLLLLLLLLLLLLPJvvvvHxrMFFSNFFSNDFFFNAFFNMM",
"aGLPRHhvlnGbJLLLLLLLLLLLLLLLLLLLJbGncxjeNFFSMFFDNDFFFNAFFCMM",
"gGLPUGkmGHHvbmmnmnnmnnmnmnmnnnmnbbHHGGkeNFFSMDFSMDFFFNAFFNMM",
"anHHLnlJJJHbnnnnnnnnnnnnnnnnnnnnbbHJJJxeNFFSNFFFNSFFFNAFFNMM",
"ahjvJnlJJJGbJPLLLLLLLLLLLLLLLLLLJbHJJJxeNFFVMFFSNSFFFNVFFAMM",
"amLUbhcJJGvvJLPLPLLPPLLLPLLPPPLPJvvmJJxeNFFSNFFSMSFFFNAFFNMM",
"pGIUHvknnmnvnmmmmmmmmmmmmmmmmmmmncnmnnkeNFFAMFFVNFFFFNVFFNMM",
"pGPLPnhbcmHbbnbbnnbnbnnnnnbnnbnnbvJncbheNFFSNFFSMFFFFNAFFNMM",
"pGKLPnlHbnHvJLLLKLLLLLKLKLKLLLKLJbHmbJxeNFFVNFFSNFFFFNAFFAMM",
"akcvKnlJbmHbJLPPLPLLPLLLLPPPPLPPJvHnbHxeNFFAMFFSMSFFFNAFFNMM",
"pbmmmclHbbnvnGGGGmGGmGGGGmGGmGGGmvnbbJxeVFFVMFFSNSFFFVVFFAMM",
"pGPLbhkGbvbvbbbbbbbbbbnbbbbbbnbbbbvxbGleNFFVNSFSMDFDB:AFFNMM",
"hGPLLnhvlGJbHLKLLKLKLKLKLKLKLKLKLKbcvvheNFFANSFSNFFZ$+<FFCMM",
"pGPLPmkGHmnvJPPLPLPLPPPLPPLLLPLLLLnnGGleNFFSNFFSMDFDB$o7DNMM",
"pbGGGvxJJmccmGHGGHGHGGHGGHGHHGHGGGbmJJxeNFFSNFFSNDFFF#@1DNMM",
"ajlkkhlJJmvbvbbbvbbbbbbvbbvbvbbbbbvmJJxeNFFSNFFSMDFDZ@<FFNMM",
"aGKKKnlJJmbKKKKKKKKKKKKKKKKKKKKKKKbmJJxeNFFSNSFSNDFZo+<FFAMM",
"aGPPPnhbnbbLPLLLPLLLLLPLLPLPPLLLLKbbnbjeNFFANFFSND373,*<DNMM",
"aJIPPmjbclnKPLPLLLLPLLPLLLLLLLLPLLnxvbkeNFFVNSFSMF<7FN%$SAMM",
"aLTKKnlJblbKKKLKKKKKKKKKKKKKKKKKKJbxbHxeNFFAMFFSND17AM*7SZMM",
"pPUxlhlHbcvbbvbvbvbvbbbbbbvbvbbbbbvcnHxeNFFSNFFSMDSB@X<AFNMM",
"hnGGGvvHblbGHGHGHHGHHHGGGHHGHGGHHHHnbJx8>FFANFFSBDFS2>:FFNMM",
"akmLPnkGnbbLPPPPLLPPLLPPPLPPPLPPLLLGbGxyX4DANSFSNDFFFNAFFAMM",
"aGLLInhvJGbLLLLLLLLLLLLLLLLLLLLLLLLGxvhyO.4AMFFSNDFFFMAFFAMM",
"pGPPTHkHnbbLLPLPLLPLPLPLLPLPPPLLLPPGbGxyOOX>MFFSNDFFFNAFFNMM",
"pbnmTJkHbvvmmGmGGGGGGmGGGGmGGmGGmGGbbJv$X<1-MFFSMDFFFNAFFNMM",
"pkvbIGxJbbnbbbbbbbbbbbbbbbbbbbbbbbbbnJc97DFSNFFSNDFFFNAFFNMM",
"aGLKvhvHbGLKLKLKKLKKLKLKKLKLKLLKLKKGbHxeMFFSMFFSMDFFFNAFFAMM",
"aGLLJbhbvGPLLLLPLPPPPPLLPLPLPLLLLPLGvbheNFFAMFFSNFFFFNCFFNMM",
"aGIUInalvGPLLLLPLLLLLLLLLLLLLLLLLPLGxxheNFFSMDFSMFFFFMCFFNMM",
"pmPYKnhvbGPLPLLLLLLLLLPLLLLLPLLLLLPHbvheMFFANFFSMDFFFNAFFCMM",
"phkljhhvHLLPLLLLLLLLLLLLLLLLLLLLLLLKJvheNFFSMDFSMDFFFNAFFNMM",
"pnHHHbajbnnnnnnnnnnnnnnnnnnnnnnnnnnnncheMFFSNFFSNDFFFNAFFAMM",
"pGPLPnalnnnnnnnnmnmnnmmnnmmnnmmnmnnmnvhtNFFAMFFDNDFFFNAFFNMM",
"pmLLPnhvJPLPPLLPLLLLLLLLLLLLLLLPLLPPJvhrNFFSMFFSMDFFFMAFFAMM",
"ghnLLnhvKLLLLPLLLLLLLLLLLLLLLLLLLLLLJvheNDFAMDFDMDFFFNAFFNMM",
"hGJnbxhvJPLLPLLLLPLPLPPPPLLLPLLPLPPPJbheNFFSNDFSMDFFFNAFFNMM",
"pKIbvlhvGJJJJJJJJJJJJHJJJJJJJJJJJHJJHvheMFFSNDFSNDFFFNAFFAMM",
"pHPLPnhlllllllllllllllllllllllllllllllheNFFANFFSMFFFFNCFFNMM",
"pLTLPnghhfhghhhhhhhhhhhhhhhhhhfhhhphhhgeMNFAMFFSNDFFFNAFFNMM",
"pnHmnvaahpgppppppppppppppppapppgphpppggqrrBVMFFSMDFFFMAFFAMM",
"ppppaapgpppppppppppppppppppgpppppppppgaggaw:NSFSNDFFFNAFFNMM",
"                                          atMMASMDFFFMAFFNMM",
"                                           ddq4NNDFFFNAFFNMM",
"                                            ggtwwAAAFNAFFNMM",
"                                             gggf3:BANAFFNMM",
"                                                 ffqMMAFFCMM",
"                                                    qt6AAMMM",
"                                                    ggtw5w55",
"                                                       gaaph"
};
