/* XPM */
static char *a65afc0c6b5d4b638a5420d8aa5a632diPyC6pyXW4OTYefG_6[] = {
/* columns rows colors chars-per-pixel */
"56 56 16 1 ",
"  c black",
". c #6B1800",
"X c #942900",
"o c #D65A00",
"O c #DE8C00",
"+ c #EFFF7B",
"@ c #F7CE00",
"# c gray97",
"$ c white",
"% c None",
"& c black",
"* c black",
"= c black",
"- c black",
"; c black",
": c black",
/* pixels */
"%%%%%%%%%%%%%%%%%%%%%%%%......  %%%%%%%%%%%%%%%%%%%%%%%%",
"%%%%%%%%%%%%%%%%%%%%%%%%......  %%%%%%%%%%%%%%%%%%%%%%%%",
"%%%%%%%%%%%%%%%%%%%%%%%%....OOOOXX%%%%%%%%%%%%%%%%%%%%%%",
"%%%%%%%%%%%%%%%%%%%%%%%%....OOOOXX%%%%%%%%%%%%%%%%%%%%%%",
"%%%%%%%%%%%%%%%%%%%%%%......@@OOoo%%%%%%%%%%%%%%%%%%%%%%",
"%%%%%%%%%%%%%%%%%%%%%%......@@OOoo%%%%%%%%%%%%%%%%%%%%%%",
"%%%%%%%%%%%%%%%%%%%%%%....@@OOOOOO%%%%%%%%%%%%%%%%%%%%%%",
"%%%%%%%%%%%%%%%%%%%%%%....@@OOOOOO%%%%%%%%%%%%%%%%%%%%%%",
"%%%%%%%%%%%%%%%%%%%%%%....@@ooooOO%%%%%%%%%%%%%%%%%%%%%%",
"%%%%%%%%%%%%%%%%%%%%%%....@@ooooOO%%%%%%%%%%%%%%%%%%%%%%",
"%%%%%%%%%%%%%%%%%%%%....XXOO@@OOOO  %%%%%%%%%%%%%%%%%%%%",
"%%%%%%%%%%%%%%%%%%%%....XXOO@@OOOO  %%%%%%%%%%%%%%%%%%%%",
"%%%%%%%%%%%%%%%%%%%%......oo@@OOOO..%%%%%%%%%%%%%%%%%%%%",
"%%%%%%%%%%%%%%%%%%%%......oo@@OOOO..%%%%%%%%%%%%%%%%%%%%",
"%%%%%%%%%%%%%%%%%%%%....ooOO@@OOXXoo%%%%%%%%%%%%%%%%%%%%",
"%%%%%%%%%%%%%%%%%%%%....ooOO@@OOXXoo%%%%%%%%%%%%%%%%%%%%",
"%%%%%%%%%%%%%%%%%%%%....@@@@XX..ooOO%%%%%%%%%%%%%%%%%%%%",
"%%%%%%%%%%%%%%%%%%%%....@@@@XX..ooOO%%%%%%%%%%%%%%%%%%%%",
"%%%%%%%%%%%%%%%%%%%%....@@@@XX..OOOO%%%%%%%%%%%%%%%%%%%%",
"%%%%%%%%%%%%%%%%%%%%....@@@@XX..OOOO%%%%%%%%%%%%%%%%%%%%",
"%%%%%%%%%%%%%%%%%%%%....@@@@XX..OOOO%%%%%%%%%%%%%%%%%%%%",
"%%%%%%%%%%%%%%%%%%%%....@@@@XX..OOOO%%%%%%%%%%%%%%%%%%%%",
"%%%%%%%%%%%%%%%%%%%%....@@@@XX..OOOO%%%%%%%%%%%%%%%%%%%%",
"%%%%%%%%%%%%%%%%%%%%....@@@@XX..OOOO%%%%%%%%%%%%%%%%%%%%",
"%%%%%%%%%%%%%%%%%%%%....@@@@XX..OOOO%%%%%%%%%%%%%%%%%%%%",
"%%%%%%%%%%%%%%%%%%%%....@@@@XX..OOOO%%%%%%%%%%%%%%%%%%%%",
"%%%%%%%%%%%%%%%%%%%%....OOOOXX..OOOO%%%%%%%%%%%%%%%%%%%%",
"%%%%%%%%%%%%%%%%%%%%....OOOOXX..OOOO%%%%%%%%%%%%%%%%%%%%",
"%%%%%%%%%%%%%%%%%%%%....OOOOXX..OOOO%%%%%%%%%%%%%%%%%%%%",
"%%%%%%%%%%%%%%%%%%%%....OOOOXX..OOOO%%%%%%%%%%%%%%%%%%%%",
"%%%%%%%%%%%%%%%%%%%%....OOOOXX..OOOO%%%%%%%%%%%%%%%%%%%%",
"%%%%%%%%%%%%%%%%%%%%....OOOOXX..OOOO%%%%%%%%%%%%%%%%%%%%",
"%%%%%%%%%%%%%%%%%%%%....OOOOXX..OOOO%%%%%%%%%%%%%%%%%%%%",
"%%%%%%%%%%%%%%%%%%%%....OOOOXX..OOOO%%%%%%%%%%%%%%%%%%%%",
"%%%%%%%%%%%%%%%%%%%%....OOOOXX..OOOO%%%%%%%%%%%%%%%%%%%%",
"%%%%%%%%%%%%%%%%%%%%....OOOOXX..OOOO%%%%%%%%%%%%%%%%%%%%",
"%%%%%%%%%%%%%%%%%%%%....OOOOXX..oooo%%%%%%%%%%%%%%%%%%%%",
"%%%%%%%%%%%%%%%%%%%%....OOOOXX..oooo%%%%%%%%%%%%%%%%%%%%",
"%%%%%%%%%%%%%%%%%%%%....oooo....oooo%%%%%%%%%%%%%%%%%%%%",
"%%%%%%%%%%%%%%%%%%%%....oooo....oooo%%%%%%%%%%%%%%%%%%%%",
"%%%%%%%%%%%%%%%%%%%%....XXoooooo..XX%%%%%%%%%%%%%%%%%%%%",
"%%%%%%%%%%%%%%%%%%%%....XXoooooo..XX%%%%%%%%%%%%%%%%%%%%",
"%%%%%%%%%%%%%%%%%%%%........oooooo..%%%%%%%%%%%%%%%%%%%%",
"%%%%%%%%%%%%%%%%%%%%........oooooo..%%%%%%%%%%%%%%%%%%%%",
"%%%%%%%%%%%%%%%%%%%%....  oooooooo  %%%%%%%%%%%%%%%%%%%%",
"%%%%%%%%%%%%%%%%%%%%....  oooooooo  %%%%%%%%%%%%%%%%%%%%",
"%%%%%%%%%%%%%%%%%%%%%%....oo....oo%%%%%%%%%%%%%%%%%%%%%%",
"%%%%%%%%%%%%%%%%%%%%%%....oo....oo%%%%%%%%%%%%%%%%%%%%%%",
"%%%%%%%%%%%%%%%%%%%%%%....oooooooo%%%%%%%%%%%%%%%%%%%%%%",
"%%%%%%%%%%%%%%%%%%%%%%....oooooooo%%%%%%%%%%%%%%%%%%%%%%",
"%%%%%%%%%%%%%%%%%%%%%%......ooooXX%%%%%%%%%%%%%%%%%%%%%%",
"%%%%%%%%%%%%%%%%%%%%%%......ooooXX%%%%%%%%%%%%%%%%%%%%%%",
"%%%%%%%%%%%%%%%%%%%%%%%%....oooo  %%%%%%%%%%%%%%%%%%%%%%",
"%%%%%%%%%%%%%%%%%%%%%%%%....oooo  %%%%%%%%%%%%%%%%%%%%%%",
"%%%%%%%%%%%%%%%%%%%%%%%%....    %%%%%%%%%%%%%%%%%%%%%%%%",
"%%%%%%%%%%%%%%%%%%%%%%%%....    %%%%%%%%%%%%%%%%%%%%%%%%"
};
