/* XPM */
static char *a65afc0c6b5d4b638a5420d8aa5a632diPyC6pyXW4OTYefG_0[] = {
/* columns rows colors chars-per-pixel */
"56 56 16 1 ",
"  c black",
". c #6B1800",
"X c #942900",
"o c #D65A00",
"O c #DE8C00",
"+ c #EFFF7B",
"@ c #F7CE00",
"# c gray97",
"$ c white",
"% c None",
"& c black",
"* c black",
"= c black",
"- c black",
"; c black",
": c black",
/* pixels */
"%%%%%%%%%%%%%%%%%%%%oo......      ..%%%%%%%%%%%%%%%%%%%%",
"%%%%%%%%%%%%%%%%%%%%oo......      ..%%%%%%%%%%%%%%%%%%%%",
"%%%%%%%%%%%%%%oo..XXOO@@@@@@@@@@@@OOXX..  %%%%%%%%%%%%%%",
"%%%%%%%%%%%%%%oo..XXOO@@@@@@@@@@@@OOXX..  %%%%%%%%%%%%%%",
"%%%%%%%%%%oo..OO++++++++++@@@@@@@@@@@@@@OO..  %%%%%%%%%%",
"%%%%%%%%%%oo..OO++++++++++@@@@@@@@@@@@@@OO..  %%%%%%%%%%",
"%%%%%%%%ooOO++++++++++@@@@@@@@@@@@@@@@@@@@@@OO  %%%%%%%%",
"%%%%%%%%ooOO++++++++++@@@@@@@@@@@@@@@@@@@@@@OO  %%%%%%%%",
"%%%%%%ooOO++++++++@@ooOOOOOOOOOOOOoo@@@@@@@@@@OO  %%%%%%",
"%%%%%%ooOO++++++++@@ooOOOOOOOOOOOOoo@@@@@@@@@@OO  %%%%%%",
"%%%%ooOO++++++@@ooOO@@++++@@@@@@@@@@OOoo@@@@@@@@OO  %%%%",
"%%%%ooOO++++++@@ooOO@@++++@@@@@@@@@@OOoo@@@@@@@@OO  %%%%",
"%%%%..++++++@@OO@@++++++++++@@@@@@@@@@@@OO@@@@@@@@..%%%%",
"%%%%..++++++@@OO@@++++++++++@@@@@@@@@@@@OO@@@@@@@@..%%%%",
"%%ooOO++++@@oo@@++++++++++++@@@@@@@@@@@@@@oo@@@@@@OO  %%",
"%%ooOO++++@@oo@@++++++++++++@@@@@@@@@@@@@@oo@@@@@@OO  %%",
"%%..++++++ooOO++++++++ooooooooooXXOO@@@@@@OOoo@@@@@@..%%",
"%%..++++++ooOO++++++++ooooooooooXXOO@@@@@@OOoo@@@@@@..%%",
"%%XX++++@@oo@@++++++++oo++++++@@XXOO@@@@@@@@oo@@@@@@XX%%",
"%%XX++++@@oo@@++++++++oo++++++@@XXOO@@@@@@@@oo@@@@@@XX%%",
"ooOO++++ooOO++++++++++oo++@@@@OOXXOO@@@@@@@@OOoo@@@@OO..",
"ooOO++++ooOO++++++++++oo++@@@@OOXXOO@@@@@@@@OOoo@@@@OO..",
"..@@++@@oo@@++++++++++oo++@@@@OOXXOO@@@@@@@@@@oo@@@@@@  ",
"..@@++@@oo@@++++++++++oo++@@@@OOXXOO@@@@@@@@@@oo@@@@@@  ",
"..@@++@@oo@@@@++++++@@oo++@@@@OOXXOO@@@@@@@@@@oo@@@@@@  ",
"..@@++@@oo@@@@++++++@@oo++@@@@OOXXOO@@@@@@@@@@oo@@@@@@  ",
"..@@@@@@oo@@@@@@@@@@@@oo++@@@@OOXXOO@@@@@@@@@@oo@@@@@@  ",
"..@@@@@@oo@@@@@@@@@@@@oo++@@@@OOXXOO@@@@@@@@@@oo@@@@@@  ",
"  @@@@@@oo@@@@@@@@@@@@oo++@@@@OOXXOO@@@@@@@@@@oo@@@@@@  ",
"  @@@@@@oo@@@@@@@@@@@@oo++@@@@OOXXOO@@@@@@@@@@oo@@@@@@  ",
"  @@@@@@oo@@@@@@@@@@@@oo++@@@@OOXXOO@@@@@@@@@@oo@@@@@@  ",
"  @@@@@@oo@@@@@@@@@@@@oo++@@@@OOXXOO@@@@@@@@@@oo@@@@@@  ",
"  @@@@@@XX@@@@@@@@@@@@oo++@@@@OOXXOO@@@@@@@@@@XX@@@@@@  ",
"  @@@@@@XX@@@@@@@@@@@@oo++@@@@OOXXOO@@@@@@@@@@XX@@@@@@  ",
"..OO@@@@XXOO@@@@@@@@@@oo++@@@@OOXXOOOO@@@@@@OOXX@@@@OO..",
"..OO@@@@XXOO@@@@@@@@@@oo++@@@@OOXXOOOO@@@@@@OOXX@@@@OO..",
"%%XX@@@@OOooOO@@@@@@@@oo@@OOOOooXXOOOOOOOOOOooOO@@OOXX%%",
"%%XX@@@@OOooOO@@@@@@@@oo@@OOOOooXXOOOOOOOOOOooOO@@OOXX%%",
"%%..OO@@@@XXOOOO@@@@@@XXXXXXXXXXXXOOOOOOOOOOXXOOOOOO..%%",
"%%..OO@@@@XXOOOO@@@@@@XXXXXXXXXXXXOOOOOOOOOOXXOOOOOO..%%",
"%%  ooOO@@OOXXOOOOOO@@OOooooooooOOOOOOOOOOXXOOOOOOoo  %%",
"%%  ooOO@@OOXXOOOOOO@@OOooooooooOOOOOOOOOOXXOOOOOOoo  %%",
"%%%%..OOOOOOOOXXOOOOOOOOOOOOOOOOOOOOOOOOXXOOOOOOOO..%%%%",
"%%%%..OOOOOOOOXXOOOOOOOOOOOOOOOOOOOOOOOOXXOOOOOOOO..%%%%",
"%%%%  ooOOOOOOOOXXooOOOOOOOOOOOOOOOOooXXOOOOOOOOoo  %%%%",
"%%%%  ooOOOOOOOOXXooOOOOOOOOOOOOOOOOooXXOOOOOOOOoo  %%%%",
"%%%%%%  ooOOOOOOOOOOooXXXXXXXXXXXXooOOOOOOOOOOoo  %%%%%%",
"%%%%%%  ooOOOOOOOOOOooXXXXXXXXXXXXooOOOOOOOOOOoo  %%%%%%",
"%%%%%%%%  ooOOOOOOOOOOOOOOOOOOOOOOOOOOOOOOOOoo  %%%%%%%%",
"%%%%%%%%  ooOOOOOOOOOOOOOOOOOOOOOOOOOOOOOOOOoo  %%%%%%%%",
"%%%%%%%%%%  ..ooOOOOOOOOOOOOOOOOOOOOOOOOoo..  %%%%%%%%%%",
"%%%%%%%%%%  ..ooOOOOOOOOOOOOOOOOOOOOOOOOoo..  %%%%%%%%%%",
"%%%%%%%%%%%%%%  ..XXooOOOOOOOOOOOOooXX..  %%%%%%%%%%%%%%",
"%%%%%%%%%%%%%%  ..XXooOOOOOOOOOOOOooXX..  %%%%%%%%%%%%%%",
"%%%%%%%%%%%%%%%%%%%%..            ..%%%%%%%%%%%%%%%%%%%%",
"%%%%%%%%%%%%%%%%%%%%..            ..%%%%%%%%%%%%%%%%%%%%"
};
