/* XPM */
static char *a65afc0c6b5d4b638a5420d8aa5a632diPyC6pyXW4OTYefG_9[] = {
/* columns rows colors chars-per-pixel */
"56 56 16 1 ",
"  c black",
". c #6B1800",
"X c #942900",
"o c #D65A00",
"O c #DE8C00",
"+ c #EFFF7B",
"@ c #F7CE00",
"# c gray97",
"$ c white",
"% c None",
"& c black",
"* c black",
"= c black",
"- c black",
"; c black",
": c black",
/* pixels */
"%%%%%%%%%%%%%%%%%%%%oo....      ..%%%%%%%%%%%%%%%%%%%%%%",
"%%%%%%%%%%%%%%%%%%%%oo....      ..%%%%%%%%%%%%%%%%%%%%%%",
"%%%%%%%%%%%%%%%%ooXXOO@@@@@@@@@@OOXX  %%%%%%%%%%%%%%%%%%",
"%%%%%%%%%%%%%%%%ooXXOO@@@@@@@@@@OOXX  %%%%%%%%%%%%%%%%%%",
"%%%%%%%%%%%%oo..OO++++++++@@@@@@@@@@OO..  %%%%%%%%%%%%%%",
"%%%%%%%%%%%%oo..OO++++++++@@@@@@@@@@OO..  %%%%%%%%%%%%%%",
"%%%%%%%%%%ooOO++++++++@@@@@@@@@@@@@@@@@@OO  %%%%%%%%%%%%",
"%%%%%%%%%%ooOO++++++++@@@@@@@@@@@@@@@@@@OO  %%%%%%%%%%%%",
"%%%%%%%%ooOO++++++@@ooOOOOOOOOOOoo@@@@@@@@OO  %%%%%%%%%%",
"%%%%%%%%ooOO++++++@@ooOOOOOOOOOOoo@@@@@@@@OO  %%%%%%%%%%",
"%%%%%%%%OO++++++@@OO@@++++@@@@@@@@OO@@@@@@@@OO%%%%%%%%%%",
"%%%%%%%%OO++++++@@OO@@++++@@@@@@@@OO@@@@@@@@OO%%%%%%%%%%",
"%%%%%%%%++++++@@OO++++++++@@@@@@@@@@OO@@@@@@@@%%%%%%%%%%",
"%%%%%%%%++++++@@OO++++++++@@@@@@@@@@OO@@@@@@@@%%%%%%%%%%",
"%%%%%%oo++++@@oo@@++++++++@@@@@@@@@@@@oo@@@@@@  %%%%%%%%",
"%%%%%%oo++++@@oo@@++++++++@@@@@@@@@@@@oo@@@@@@  %%%%%%%%",
"%%%%%%..++++ooOO++++++ooooooooXXOO@@@@OOoo@@@@..%%%%%%%%",
"%%%%%%..++++ooOO++++++ooooooooXXOO@@@@OOoo@@@@..%%%%%%%%",
"%%%%%%XX++@@oo@@++++++oo++++@@XXOO@@@@@@oo@@@@XX%%%%%%%%",
"%%%%%%XX++@@oo@@++++++oo++++@@XXOO@@@@@@oo@@@@XX%%%%%%%%",
"%%%%ooOO++ooOO++++++++oo++@@OOXXOO@@@@@@OOoo@@OO..%%%%%%",
"%%%%ooOO++ooOO++++++++oo++@@OOXXOO@@@@@@OOoo@@OO..%%%%%%",
"%%%%..@@@@oo@@++++++++oo++@@OOXXOO@@@@@@@@oo@@@@  %%%%%%",
"%%%%..@@@@oo@@++++++++oo++@@OOXXOO@@@@@@@@oo@@@@  %%%%%%",
"%%%%..@@@@oo@@@@++++@@oo++@@OOXXOO@@@@@@@@oo@@@@  %%%%%%",
"%%%%..@@@@oo@@@@++++@@oo++@@OOXXOO@@@@@@@@oo@@@@  %%%%%%",
"%%%%..@@@@oo@@@@@@@@@@oo++@@OOXXOO@@@@@@@@oo@@@@  %%%%%%",
"%%%%..@@@@oo@@@@@@@@@@oo++@@OOXXOO@@@@@@@@oo@@@@  %%%%%%",
"%%%%  @@@@oo@@@@@@@@@@oo++@@OOXXOO@@@@@@@@oo@@@@  %%%%%%",
"%%%%  @@@@oo@@@@@@@@@@oo++@@OOXXOO@@@@@@@@oo@@@@  %%%%%%",
"%%%%  @@@@oo@@@@@@@@@@oo++@@OOXXOO@@@@@@@@oo@@@@  %%%%%%",
"%%%%  @@@@oo@@@@@@@@@@oo++@@OOXXOO@@@@@@@@oo@@@@  %%%%%%",
"%%%%  @@@@XX@@@@@@@@@@oo++@@OOXXOO@@@@@@@@XX@@@@  %%%%%%",
"%%%%  @@@@XX@@@@@@@@@@oo++@@OOXXOO@@@@@@@@XX@@@@  %%%%%%",
"%%%%..OO@@XXOO@@@@@@@@oo++@@OOXXOOOO@@@@OOXX@@OO..%%%%%%",
"%%%%..OO@@XXOO@@@@@@@@oo++@@OOXXOOOO@@@@OOXX@@OO..%%%%%%",
"%%%%%%XX@@OOooOO@@@@@@oo@@OOooXXOOOOOOOOooOO@@XX%%%%%%%%",
"%%%%%%XX@@OOooOO@@@@@@oo@@OOooXXOOOOOOOOooOO@@XX%%%%%%%%",
"%%%%%%..@@@@XXOOOO@@@@XXXXXXXXXXOOOOOOOOXXOOOO..%%%%%%%%",
"%%%%%%..@@@@XXOOOO@@@@XXXXXXXXXXOOOOOOOOXXOOOO..%%%%%%%%",
"%%%%%%  OO@@OOXXOOOO@@OOooooooOOOOOOOOXXOOOOOO  %%%%%%%%",
"%%%%%%  OO@@OOXXOOOO@@OOooooooOOOOOOOOXXOOOOOO  %%%%%%%%",
"%%%%%%%%OOOOOOOOXXOOOOOOOOOOOOOOOOOOXXOOOOOOOO%%%%%%%%%%",
"%%%%%%%%OOOOOOOOXXOOOOOOOOOOOOOOOOOOXXOOOOOOOO%%%%%%%%%%",
"%%%%%%%%ooOOOOOOOOooOOOOOOOOOOOOOOooOOOOOOOOoo%%%%%%%%%%",
"%%%%%%%%ooOOOOOOOOooOOOOOOOOOOOOOOooOOOOOOOOoo%%%%%%%%%%",
"%%%%%%%%  ooOOOOOOOOooXXXXXXXXXXooOOOOOOOOoo  %%%%%%%%%%",
"%%%%%%%%  ooOOOOOOOOooXXXXXXXXXXooOOOOOOOOoo  %%%%%%%%%%",
"%%%%%%%%%%  ooOOOOOOOOOOOOOOOOOOOOOOOOOOoo  %%%%%%%%%%%%",
"%%%%%%%%%%  ooOOOOOOOOOOOOOOOOOOOOOOOOOOoo  %%%%%%%%%%%%",
"%%%%%%%%%%%%  ..ooOOOOOOOOOOOOOOOOOOoo..  %%%%%%%%%%%%%%",
"%%%%%%%%%%%%  ..ooOOOOOOOOOOOOOOOOOOoo..  %%%%%%%%%%%%%%",
"%%%%%%%%%%%%%%%%  XXooOOOOOOOOOOooXX  %%%%%%%%%%%%%%%%%%",
"%%%%%%%%%%%%%%%%  XXooOOOOOOOOOOooXX  %%%%%%%%%%%%%%%%%%",
"%%%%%%%%%%%%%%%%%%%%..          ..%%%%%%%%%%%%%%%%%%%%%%",
"%%%%%%%%%%%%%%%%%%%%..          ..%%%%%%%%%%%%%%%%%%%%%%"
};
