/* XPM */
static char *a65afc0c6b5d4b638a5420d8aa5a632diPyC6pyXW4OTYefG_3[] = {
/* columns rows colors chars-per-pixel */
"56 56 16 1 ",
"  c black",
". c #6B1800",
"X c #942900",
"o c #D65A00",
"O c #DE8C00",
"+ c #EFFF7B",
"@ c #F7CE00",
"# c gray97",
"$ c white",
"% c None",
"& c black",
"* c black",
"= c black",
"- c black",
"; c black",
": c black",
/* pixels */
"%%%%%%%%%%%%%%%%%%%%%%oo..  ......%%%%%%%%%%%%%%%%%%%%%%",
"%%%%%%%%%%%%%%%%%%%%%%oo..  ......%%%%%%%%%%%%%%%%%%%%%%",
"%%%%%%%%%%%%%%%%%%%%..@@++++@@......%%%%%%%%%%%%%%%%%%%%",
"%%%%%%%%%%%%%%%%%%%%..@@++++@@......%%%%%%%%%%%%%%%%%%%%",
"%%%%%%%%%%%%%%%%%%oo######++++++  ....%%%%%%%%%%%%%%%%%%",
"%%%%%%%%%%%%%%%%%%oo######++++++  ....%%%%%%%%%%%%%%%%%%",
"%%%%%%%%%%%%%%%%%%@@####++++++++@@....%%%%%%%%%%%%%%%%%%",
"%%%%%%%%%%%%%%%%%%@@####++++++++@@....%%%%%%%%%%%%%%%%%%",
"%%%%%%%%%%%%%%%%oo####OO@@@@OO++++  ....%%%%%%%%%%%%%%%%",
"%%%%%%%%%%%%%%%%oo####OO@@@@OO++++  ....%%%%%%%%%%%%%%%%",
"%%%%%%%%%%%%%%%%@@##OO++##++++OO++@@....%%%%%%%%%%%%%%%%",
"%%%%%%%%%%%%%%%%@@##OO++##++++OO++@@....%%%%%%%%%%%%%%%%",
"%%%%%%%%%%%%%%%%####++####++++++++++....%%%%%%%%%%%%%%%%",
"%%%%%%%%%%%%%%%%####++####++++++++++....%%%%%%%%%%%%%%%%",
"%%%%%%%%%%%%%%oo##++######++++++++++  ....%%%%%%%%%%%%%%",
"%%%%%%%%%%%%%%oo##++######++++++++++  ....%%%%%%%%%%%%%%",
"%%%%%%%%%%%%%%..##OO####OOOO@@++OO++......%%%%%%%%%%%%%%",
"%%%%%%%%%%%%%%..##OO####OOOO@@++OO++......%%%%%%%%%%%%%%",
"%%%%%%%%%%%%%%XX##OO######++@@++OO++XX....%%%%%%%%%%%%%%",
"%%%%%%%%%%%%%%XX##OO######++@@++OO++XX....%%%%%%%%%%%%%%",
"%%%%%%%%%%%%%%@@##@@######@@@@++@@++@@....%%%%%%%%%%%%%%",
"%%%%%%%%%%%%%%@@##@@######@@@@++@@++@@....%%%%%%%%%%%%%%",
"%%%%%%%%%%%%%%++++++######@@@@++++++++....%%%%%%%%%%%%%%",
"%%%%%%%%%%%%%%++++++######@@@@++++++++....%%%%%%%%%%%%%%",
"%%%%%%%%%%%%%%++++++##++##@@@@++++++++....%%%%%%%%%%%%%%",
"%%%%%%%%%%%%%%++++++##++##@@@@++++++++....%%%%%%%%%%%%%%",
"%%%%%%%%%%%%%%++++++++++##@@@@++++++++....%%%%%%%%%%%%%%",
"%%%%%%%%%%%%%%++++++++++##@@@@++++++++....%%%%%%%%%%%%%%",
"%%%%%%%%%%%%%%++++++++++##@@@@++++++++....%%%%%%%%%%%%%%",
"%%%%%%%%%%%%%%++++++++++##@@@@++++++++....%%%%%%%%%%%%%%",
"%%%%%%%%%%%%%%++++++++++##@@@@++++++++....%%%%%%%%%%%%%%",
"%%%%%%%%%%%%%%++++++++++##@@@@++++++++....%%%%%%%%%%%%%%",
"%%%%%%%%%%%%%%++++++++++##@@@@++++++++....%%%%%%%%%%%%%%",
"%%%%%%%%%%%%%%++++++++++##@@@@++++++++....%%%%%%%%%%%%%%",
"%%%%%%%%%%%%%%@@++@@++++##@@@@++@@++@@....%%%%%%%%%%%%%%",
"%%%%%%%%%%%%%%@@++@@++++##@@@@++@@++@@....%%%%%%%%%%%%%%",
"%%%%%%%%%%%%%%XX++OO++++++oo@@@@OO++XX....%%%%%%%%%%%%%%",
"%%%%%%%%%%%%%%XX++OO++++++oo@@@@OO++XX....%%%%%%%%%%%%%%",
"%%%%%%%%%%%%%%..++oo++++oooo@@@@oo@@......%%%%%%%%%%%%%%",
"%%%%%%%%%%%%%%..++oo++++oooo@@@@oo@@......%%%%%%%%%%%%%%",
"%%%%%%%%%%%%%%  @@@@@@++OOOO@@@@@@@@  ....%%%%%%%%%%%%%%",
"%%%%%%%%%%%%%%  @@@@@@++OOOO@@@@@@@@  ....%%%%%%%%%%%%%%",
"%%%%%%%%%%%%%%%%@@@@@@@@@@@@@@@@@@@@....%%%%%%%%%%%%%%%%",
"%%%%%%%%%%%%%%%%@@@@@@@@@@@@@@@@@@@@....%%%%%%%%%%%%%%%%",
"%%%%%%%%%%%%%%%%OO@@oo@@@@@@@@oo@@OO....%%%%%%%%%%%%%%%%",
"%%%%%%%%%%%%%%%%OO@@oo@@@@@@@@oo@@OO....%%%%%%%%%%%%%%%%",
"%%%%%%%%%%%%%%%%  @@@@OOooooOO@@@@  ....%%%%%%%%%%%%%%%%",
"%%%%%%%%%%%%%%%%  @@@@OOooooOO@@@@  ....%%%%%%%%%%%%%%%%",
"%%%%%%%%%%%%%%%%%%OO@@@@@@@@@@@@OO....%%%%%%%%%%%%%%%%%%",
"%%%%%%%%%%%%%%%%%%OO@@@@@@@@@@@@OO....%%%%%%%%%%%%%%%%%%",
"%%%%%%%%%%%%%%%%%%  @@@@@@@@@@@@  ....%%%%%%%%%%%%%%%%%%",
"%%%%%%%%%%%%%%%%%%  @@@@@@@@@@@@  ....%%%%%%%%%%%%%%%%%%",
"%%%%%%%%%%%%%%%%%%%%..OO@@@@OO......%%%%%%%%%%%%%%%%%%%%",
"%%%%%%%%%%%%%%%%%%%%..OO@@@@OO......%%%%%%%%%%%%%%%%%%%%",
"%%%%%%%%%%%%%%%%%%%%%%..    ......%%%%%%%%%%%%%%%%%%%%%%",
"%%%%%%%%%%%%%%%%%%%%%%..    ......%%%%%%%%%%%%%%%%%%%%%%"
};
