/* XPM */
static char *a65afc0c6b5d4b638a5420d8aa5a632diPyC6pyXW4OTYefG_8[] = {
/* columns rows colors chars-per-pixel */
"56 56 16 1 ",
"  c black",
". c #6B1800",
"X c #942900",
"o c #D65A00",
"O c #DE8C00",
"+ c #EFFF7B",
"@ c #F7CE00",
"# c gray97",
"$ c white",
"% c None",
"& c black",
"* c black",
"= c black",
"- c black",
"; c black",
": c black",
/* pixels */
"%%%%%%%%%%%%%%%%%%%%%%..oo..    ..%%%%%%%%%%%%%%%%%%%%%%",
"%%%%%%%%%%%%%%%%%%%%%%..oo..    ..%%%%%%%%%%%%%%%%%%%%%%",
"%%%%%%%%%%%%%%%%%%..ooXXOO@@@@@@OOXX  %%%%%%%%%%%%%%%%%%",
"%%%%%%%%%%%%%%%%%%..ooXXOO@@@@@@OOXX  %%%%%%%%%%%%%%%%%%",
"%%%%%%%%%%%%%%%%..ooOO++++++@@@@@@@@OO  %%%%%%%%%%%%%%%%",
"%%%%%%%%%%%%%%%%..ooOO++++++@@@@@@@@OO  %%%%%%%%%%%%%%%%",
"%%%%%%%%%%%%%%..ooOO++++++@@@@@@@@@@@@OO  %%%%%%%%%%%%%%",
"%%%%%%%%%%%%%%..ooOO++++++@@@@@@@@@@@@OO  %%%%%%%%%%%%%%",
"%%%%%%%%%%%%%%..OO++++@@ooOOOOOOoo@@@@@@OO%%%%%%%%%%%%%%",
"%%%%%%%%%%%%%%..OO++++@@ooOOOOOOoo@@@@@@OO%%%%%%%%%%%%%%",
"%%%%%%%%%%%%..oo++++@@OO@@++@@@@@@OO@@@@@@  %%%%%%%%%%%%",
"%%%%%%%%%%%%..oo++++@@OO@@++@@@@@@OO@@@@@@  %%%%%%%%%%%%",
"%%%%%%%%%%%%....++++OO++++++@@@@@@@@OO@@@@..%%%%%%%%%%%%",
"%%%%%%%%%%%%....++++OO++++++@@@@@@@@OO@@@@..%%%%%%%%%%%%",
"%%%%%%%%%%....OO++@@@@++++++@@@@@@@@@@@@@@OO%%%%%%%%%%%%",
"%%%%%%%%%%....OO++@@@@++++++@@@@@@@@@@@@@@OO%%%%%%%%%%%%",
"%%%%%%%%%%....++++oo++++++ooooooOO@@@@oo@@@@%%%%%%%%%%%%",
"%%%%%%%%%%....++++oo++++++ooooooOO@@@@oo@@@@%%%%%%%%%%%%",
"%%%%%%%%%%....++@@oo++++++++++@@OO@@@@oo@@@@%%%%%%%%%%%%",
"%%%%%%%%%%....++@@oo++++++++++@@OO@@@@oo@@@@%%%%%%%%%%%%",
"%%%%%%%%%%..oo++ooOO++++++++@@OOOO@@@@OOoo@@..%%%%%%%%%%",
"%%%%%%%%%%..oo++ooOO++++++++@@OOOO@@@@OOoo@@..%%%%%%%%%%",
"%%%%%%%%%%....++oo@@++++++++@@OOOO@@@@@@oo@@  %%%%%%%%%%",
"%%%%%%%%%%....++oo@@++++++++@@OOOO@@@@@@oo@@  %%%%%%%%%%",
"%%%%%%%%%%....++oo@@++++@@++@@OOOO@@@@@@oo@@  %%%%%%%%%%",
"%%%%%%%%%%....++oo@@++++@@++@@OOOO@@@@@@oo@@  %%%%%%%%%%",
"%%%%%%%%%%....@@oo@@@@@@@@++@@OOOO@@@@@@oo@@  %%%%%%%%%%",
"%%%%%%%%%%....@@oo@@@@@@@@++@@OOOO@@@@@@oo@@  %%%%%%%%%%",
"%%%%%%%%%%..  @@oo@@@@@@@@++@@OOOO@@@@@@oo@@  %%%%%%%%%%",
"%%%%%%%%%%..  @@oo@@@@@@@@++@@OOOO@@@@@@oo@@  %%%%%%%%%%",
"%%%%%%%%%%..  @@oo@@@@@@@@++@@OOOO@@@@@@oo@@  %%%%%%%%%%",
"%%%%%%%%%%..  @@oo@@@@@@@@++@@OOOO@@@@@@oo@@  %%%%%%%%%%",
"%%%%%%%%%%..  @@XX@@@@@@@@++@@OOOO@@@@@@XX@@  %%%%%%%%%%",
"%%%%%%%%%%..  @@XX@@@@@@@@++@@OOOO@@@@@@XX@@  %%%%%%%%%%",
"%%%%%%%%%%....@@XXOO@@@@@@++@@OOOOOO@@OOXX@@..%%%%%%%%%%",
"%%%%%%%%%%....@@XXOO@@@@@@++@@OOOOOO@@OOXX@@..%%%%%%%%%%",
"%%%%%%%%%%....@@OOoo@@@@@@@@OOooOOOOOOooOOOO%%%%%%%%%%%%",
"%%%%%%%%%%....@@OOoo@@@@@@@@OOooOOOOOOooOOOO%%%%%%%%%%%%",
"%%%%%%%%%%....OO@@XXOO@@@@XXXXXXOOOOOOXXOOOO%%%%%%%%%%%%",
"%%%%%%%%%%....OO@@XXOO@@@@XXXXXXOOOOOOXXOOOO%%%%%%%%%%%%",
"%%%%%%%%%%....oo@@OOOOOO@@ooooooOOOOOOOOOOoo%%%%%%%%%%%%",
"%%%%%%%%%%....oo@@OOOOOO@@ooooooOOOOOOOOOOoo%%%%%%%%%%%%",
"%%%%%%%%%%%%....OOOOXXOOOOOOOOOOOOOOXXOOOO..%%%%%%%%%%%%",
"%%%%%%%%%%%%....OOOOXXOOOOOOOOOOOOOOXXOOOO..%%%%%%%%%%%%",
"%%%%%%%%%%%%..  OOOOOOooOOOOOOOOOOooOOOOOO  %%%%%%%%%%%%",
"%%%%%%%%%%%%..  OOOOOOooOOOOOOOOOOooOOOOOO  %%%%%%%%%%%%",
"%%%%%%%%%%%%%%..ooOOOOOOooXXXXXXooOOOOOOoo%%%%%%%%%%%%%%",
"%%%%%%%%%%%%%%..ooOOOOOOooXXXXXXooOOOOOOoo%%%%%%%%%%%%%%",
"%%%%%%%%%%%%%%..  ooOOOOOOOOOOOOOOOOOOoo  %%%%%%%%%%%%%%",
"%%%%%%%%%%%%%%..  ooOOOOOOOOOOOOOOOOOOoo  %%%%%%%%%%%%%%",
"%%%%%%%%%%%%%%%%..  ooOOOOOOOOOOOOOOoo  %%%%%%%%%%%%%%%%",
"%%%%%%%%%%%%%%%%..  ooOOOOOOOOOOOOOOoo  %%%%%%%%%%%%%%%%",
"%%%%%%%%%%%%%%%%%%..  XXooOOOOOOooXX  %%%%%%%%%%%%%%%%%%",
"%%%%%%%%%%%%%%%%%%..  XXooOOOOOOooXX  %%%%%%%%%%%%%%%%%%",
"%%%%%%%%%%%%%%%%%%%%%%....      ..%%%%%%%%%%%%%%%%%%%%%%",
"%%%%%%%%%%%%%%%%%%%%%%....      ..%%%%%%%%%%%%%%%%%%%%%%"
};
