/* XPM */
static char *a65afc0c6b5d4b638a5420d8aa5a632diPyC6pyXW4OTYefG_4[] = {
/* columns rows colors chars-per-pixel */
"56 56 16 1 ",
"  c black",
". c #6B1800",
"X c #942900",
"o c #D65A00",
"O c #DE8C00",
"+ c #EFFF7B",
"@ c #F7CE00",
"# c gray97",
"$ c white",
"% c None",
"& c black",
"* c black",
"= c black",
"- c black",
"; c black",
": c black",
/* pixels */
"%%%%%%%%%%%%%%%%%%%%%%%%..  ....%%%%%%%%%%%%%%%%%%%%%%%%",
"%%%%%%%%%%%%%%%%%%%%%%%%..  ....%%%%%%%%%%%%%%%%%%%%%%%%",
"%%%%%%%%%%%%%%%%%%%%%%oo++++....%%%%%%%%%%%%%%%%%%%%%%%%",
"%%%%%%%%%%%%%%%%%%%%%%oo++++....%%%%%%%%%%%%%%%%%%%%%%%%",
"%%%%%%%%%%%%%%%%%%%%%%@@##++oo....%%%%%%%%%%%%%%%%%%%%%%",
"%%%%%%%%%%%%%%%%%%%%%%@@##++oo....%%%%%%%%%%%%%%%%%%%%%%",
"%%%%%%%%%%%%%%%%%%%%%%##++++++....%%%%%%%%%%%%%%%%%%%%%%",
"%%%%%%%%%%%%%%%%%%%%%%##++++++....%%%%%%%%%%%%%%%%%%%%%%",
"%%%%%%%%%%%%%%%%%%%%%%##@@@@++....%%%%%%%%%%%%%%%%%%%%%%",
"%%%%%%%%%%%%%%%%%%%%%%##@@@@++....%%%%%%%%%%%%%%%%%%%%%%",
"%%%%%%%%%%%%%%%%%%%%OO++##++++  ....%%%%%%%%%%%%%%%%%%%%",
"%%%%%%%%%%%%%%%%%%%%OO++##++++  ....%%%%%%%%%%%%%%%%%%%%",
"%%%%%%%%%%%%%%%%%%%%oo@@##++++oo....%%%%%%%%%%%%%%%%%%%%",
"%%%%%%%%%%%%%%%%%%%%oo@@##++++oo....%%%%%%%%%%%%%%%%%%%%",
"%%%%%%%%%%%%%%%%%%%%@@++##++OO@@....%%%%%%%%%%%%%%%%%%%%",
"%%%%%%%%%%%%%%%%%%%%@@++##++OO@@....%%%%%%%%%%%%%%%%%%%%",
"%%%%%%%%%%%%%%%%%%%%####OOoo@@++....%%%%%%%%%%%%%%%%%%%%",
"%%%%%%%%%%%%%%%%%%%%####OOoo@@++....%%%%%%%%%%%%%%%%%%%%",
"%%%%%%%%%%%%%%%%%%%%####OOoo++++....%%%%%%%%%%%%%%%%%%%%",
"%%%%%%%%%%%%%%%%%%%%####OOoo++++....%%%%%%%%%%%%%%%%%%%%",
"%%%%%%%%%%%%%%%%%%%%####OOoo++++....%%%%%%%%%%%%%%%%%%%%",
"%%%%%%%%%%%%%%%%%%%%####OOoo++++....%%%%%%%%%%%%%%%%%%%%",
"%%%%%%%%%%%%%%%%%%%%####OOoo++++....%%%%%%%%%%%%%%%%%%%%",
"%%%%%%%%%%%%%%%%%%%%####OOoo++++....%%%%%%%%%%%%%%%%%%%%",
"%%%%%%%%%%%%%%%%%%%%####OOoo++++....%%%%%%%%%%%%%%%%%%%%",
"%%%%%%%%%%%%%%%%%%%%####OOoo++++....%%%%%%%%%%%%%%%%%%%%",
"%%%%%%%%%%%%%%%%%%%%++++OOoo++++....%%%%%%%%%%%%%%%%%%%%",
"%%%%%%%%%%%%%%%%%%%%++++OOoo++++....%%%%%%%%%%%%%%%%%%%%",
"%%%%%%%%%%%%%%%%%%%%++++OOoo++++....%%%%%%%%%%%%%%%%%%%%",
"%%%%%%%%%%%%%%%%%%%%++++OOoo++++....%%%%%%%%%%%%%%%%%%%%",
"%%%%%%%%%%%%%%%%%%%%++++OOoo++++....%%%%%%%%%%%%%%%%%%%%",
"%%%%%%%%%%%%%%%%%%%%++++OOoo++++....%%%%%%%%%%%%%%%%%%%%",
"%%%%%%%%%%%%%%%%%%%%++++OOoo++++....%%%%%%%%%%%%%%%%%%%%",
"%%%%%%%%%%%%%%%%%%%%++++OOoo++++....%%%%%%%%%%%%%%%%%%%%",
"%%%%%%%%%%%%%%%%%%%%++++OOoo++++....%%%%%%%%%%%%%%%%%%%%",
"%%%%%%%%%%%%%%%%%%%%++++OOoo++++....%%%%%%%%%%%%%%%%%%%%",
"%%%%%%%%%%%%%%%%%%%%++++OOoo@@@@....%%%%%%%%%%%%%%%%%%%%",
"%%%%%%%%%%%%%%%%%%%%++++OOoo@@@@....%%%%%%%%%%%%%%%%%%%%",
"%%%%%%%%%%%%%%%%%%%%@@@@oooo@@@@....%%%%%%%%%%%%%%%%%%%%",
"%%%%%%%%%%%%%%%%%%%%@@@@oooo@@@@....%%%%%%%%%%%%%%%%%%%%",
"%%%%%%%%%%%%%%%%%%%%OO@@@@@@ooOO....%%%%%%%%%%%%%%%%%%%%",
"%%%%%%%%%%%%%%%%%%%%OO@@@@@@ooOO....%%%%%%%%%%%%%%%%%%%%",
"%%%%%%%%%%%%%%%%%%%%..oo@@@@@@oo....%%%%%%%%%%%%%%%%%%%%",
"%%%%%%%%%%%%%%%%%%%%..oo@@@@@@oo....%%%%%%%%%%%%%%%%%%%%",
"%%%%%%%%%%%%%%%%%%%%  @@@@@@@@  ....%%%%%%%%%%%%%%%%%%%%",
"%%%%%%%%%%%%%%%%%%%%  @@@@@@@@  ....%%%%%%%%%%%%%%%%%%%%",
"%%%%%%%%%%%%%%%%%%%%%%@@oooo@@....%%%%%%%%%%%%%%%%%%%%%%",
"%%%%%%%%%%%%%%%%%%%%%%@@oooo@@....%%%%%%%%%%%%%%%%%%%%%%",
"%%%%%%%%%%%%%%%%%%%%%%@@@@@@@@....%%%%%%%%%%%%%%%%%%%%%%",
"%%%%%%%%%%%%%%%%%%%%%%@@@@@@@@....%%%%%%%%%%%%%%%%%%%%%%",
"%%%%%%%%%%%%%%%%%%%%%%OO@@@@oo....%%%%%%%%%%%%%%%%%%%%%%",
"%%%%%%%%%%%%%%%%%%%%%%OO@@@@oo....%%%%%%%%%%%%%%%%%%%%%%",
"%%%%%%%%%%%%%%%%%%%%%%  @@@@....%%%%%%%%%%%%%%%%%%%%%%%%",
"%%%%%%%%%%%%%%%%%%%%%%  @@@@....%%%%%%%%%%%%%%%%%%%%%%%%",
"%%%%%%%%%%%%%%%%%%%%%%%%    ....%%%%%%%%%%%%%%%%%%%%%%%%",
"%%%%%%%%%%%%%%%%%%%%%%%%    ....%%%%%%%%%%%%%%%%%%%%%%%%"
};
