/* XPM */
static char *a65afc0c6b5d4b638a5420d8aa5a632diPyC6pyXW4OTYefG_7[] = {
/* columns rows colors chars-per-pixel */
"56 56 16 1 ",
"  c black",
". c #6B1800",
"X c #942900",
"o c #D65A00",
"O c #DE8C00",
"+ c #EFFF7B",
"@ c #F7CE00",
"# c gray97",
"$ c white",
"% c None",
"& c black",
"* c black",
"= c black",
"- c black",
"; c black",
": c black",
/* pixels */
"%%%%%%%%%%%%%%%%%%%%%%....oo..  oo%%%%%%%%%%%%%%%%%%%%%%",
"%%%%%%%%%%%%%%%%%%%%%%....oo..  oo%%%%%%%%%%%%%%%%%%%%%%",
"%%%%%%%%%%%%%%%%%%%%......ooOOOOOO..%%%%%%%%%%%%%%%%%%%%",
"%%%%%%%%%%%%%%%%%%%%......ooOOOOOO..%%%%%%%%%%%%%%%%%%%%",
"%%%%%%%%%%%%%%%%%%....oo@@@@@@OOOOOO  %%%%%%%%%%%%%%%%%%",
"%%%%%%%%%%%%%%%%%%....oo@@@@@@OOOOOO  %%%%%%%%%%%%%%%%%%",
"%%%%%%%%%%%%%%%%%%....oo@@@@OOOOOOOOoo%%%%%%%%%%%%%%%%%%",
"%%%%%%%%%%%%%%%%%%....oo@@@@OOOOOOOOoo%%%%%%%%%%%%%%%%%%",
"%%%%%%%%%%%%%%%%....oo@@@@XXooooXXOOOO  %%%%%%%%%%%%%%%%",
"%%%%%%%%%%%%%%%%....oo@@@@XXooooXXOOOO  %%%%%%%%%%%%%%%%",
"%%%%%%%%%%%%%%%%....oo@@XXOO@@OOOOXXOOoo%%%%%%%%%%%%%%%%",
"%%%%%%%%%%%%%%%%....oo@@XXOO@@OOOOXXOOoo%%%%%%%%%%%%%%%%",
"%%%%%%%%%%%%%%%%....@@@@OO@@@@OOOOOOOOOO%%%%%%%%%%%%%%%%",
"%%%%%%%%%%%%%%%%....@@@@OO@@@@OOOOOOOOOO%%%%%%%%%%%%%%%%",
"%%%%%%%%%%%%%%....oo@@OO@@@@@@OOOOOOOOOO  %%%%%%%%%%%%%%",
"%%%%%%%%%%%%%%....oo@@OO@@@@@@OOOOOOOOOO  %%%%%%%%%%%%%%",
"%%%%%%%%%%%%%%......@@XX@@@@XXXXooOOXXOO..%%%%%%%%%%%%%%",
"%%%%%%%%%%%%%%......@@XX@@@@XXXXooOOXXOO..%%%%%%%%%%%%%%",
"%%%%%%%%%%%%%%....XX@@XX@@@@@@OOooOOXXOOXX%%%%%%%%%%%%%%",
"%%%%%%%%%%%%%%....XX@@XX@@@@@@OOooOOXXOOXX%%%%%%%%%%%%%%",
"%%%%%%%%%%%%%%....OO@@OO@@@@@@ooooOOooOOoo%%%%%%%%%%%%%%",
"%%%%%%%%%%%%%%....OO@@OO@@@@@@ooooOOooOOoo%%%%%%%%%%%%%%",
"%%%%%%%%%%%%%%....OOOOOO@@@@@@ooooOOOOOOOO%%%%%%%%%%%%%%",
"%%%%%%%%%%%%%%....OOOOOO@@@@@@ooooOOOOOOOO%%%%%%%%%%%%%%",
"%%%%%%%%%%%%%%....OOOOOO@@OO@@ooooOOOOOOOO%%%%%%%%%%%%%%",
"%%%%%%%%%%%%%%....OOOOOO@@OO@@ooooOOOOOOOO%%%%%%%%%%%%%%",
"%%%%%%%%%%%%%%....OOOOOOOOOO@@ooooOOOOOOOO%%%%%%%%%%%%%%",
"%%%%%%%%%%%%%%....OOOOOOOOOO@@ooooOOOOOOOO%%%%%%%%%%%%%%",
"%%%%%%%%%%%%%%....OOOOOOOOOO@@ooooOOOOOOOO%%%%%%%%%%%%%%",
"%%%%%%%%%%%%%%....OOOOOOOOOO@@ooooOOOOOOOO%%%%%%%%%%%%%%",
"%%%%%%%%%%%%%%....OOOOOOOOOO@@ooooOOOOOOOO%%%%%%%%%%%%%%",
"%%%%%%%%%%%%%%....OOOOOOOOOO@@ooooOOOOOOOO%%%%%%%%%%%%%%",
"%%%%%%%%%%%%%%....OOOOOOOOOO@@ooooOOOOOOOO%%%%%%%%%%%%%%",
"%%%%%%%%%%%%%%....OOOOOOOOOO@@ooooOOOOOOOO%%%%%%%%%%%%%%",
"%%%%%%%%%%%%%%....ooOOooOOOO@@ooooOOooOOoo%%%%%%%%%%%%%%",
"%%%%%%%%%%%%%%....ooOOooOOOO@@ooooOOooOOoo%%%%%%%%%%%%%%",
"%%%%%%%%%%%%%%....XXOOXXOOOOOOXXooooXXOOXX%%%%%%%%%%%%%%",
"%%%%%%%%%%%%%%....XXOOXXOOOOOOXXooooXXOOXX%%%%%%%%%%%%%%",
"%%%%%%%%%%%%%%......OO..OOOO....oooo..oo..%%%%%%%%%%%%%%",
"%%%%%%%%%%%%%%......OO..OOOO....oooo..oo..%%%%%%%%%%%%%%",
"%%%%%%%%%%%%%%....  ooooooOOXXXXoooooooo  %%%%%%%%%%%%%%",
"%%%%%%%%%%%%%%....  ooooooOOXXXXoooooooo  %%%%%%%%%%%%%%",
"%%%%%%%%%%%%%%%%....oooooooooooooooooooo%%%%%%%%%%%%%%%%",
"%%%%%%%%%%%%%%%%....oooooooooooooooooooo%%%%%%%%%%%%%%%%",
"%%%%%%%%%%%%%%%%....oooo..oooooooo..oooo%%%%%%%%%%%%%%%%",
"%%%%%%%%%%%%%%%%....oooo..oooooooo..oooo%%%%%%%%%%%%%%%%",
"%%%%%%%%%%%%%%%%....  ooooXX....XXoooo  %%%%%%%%%%%%%%%%",
"%%%%%%%%%%%%%%%%....  ooooXX....XXoooo  %%%%%%%%%%%%%%%%",
"%%%%%%%%%%%%%%%%%%....oooooooooooooooo%%%%%%%%%%%%%%%%%%",
"%%%%%%%%%%%%%%%%%%....oooooooooooooooo%%%%%%%%%%%%%%%%%%",
"%%%%%%%%%%%%%%%%%%....  oooooooooooo  %%%%%%%%%%%%%%%%%%",
"%%%%%%%%%%%%%%%%%%....  oooooooooooo  %%%%%%%%%%%%%%%%%%",
"%%%%%%%%%%%%%%%%%%%%......oooooooo..%%%%%%%%%%%%%%%%%%%%",
"%%%%%%%%%%%%%%%%%%%%......oooooooo..%%%%%%%%%%%%%%%%%%%%",
"%%%%%%%%%%%%%%%%%%%%%%......    ..%%%%%%%%%%%%%%%%%%%%%%",
"%%%%%%%%%%%%%%%%%%%%%%......    ..%%%%%%%%%%%%%%%%%%%%%%"
};
