/* XPM */
static char *c962fb854fe44c9b85b0491c97cdd827HnEx1I4pn5VvocuM[] = {
/* columns rows colors chars-per-pixel */
"50 50 196 2 ",
"   c None",
".  c black",
"X  c #0B0000",
"o  c #110000",
"O  c #170500",
"+  c #270300",
"@  c #310400",
"#  c #320400",
"$  c #3D0200",
"%  c #3D0500",
"&  c #2C1900",
"*  c #322900",
"=  c #420800",
"-  c #4B0900",
";  c #5C0B00",
":  c #411B00",
">  c #531C00",
",  c #551F00",
"<  c #600A00",
"1  c #660A00",
"2  c #670B00",
"3  c #600E00",
"4  c #6A0F00",
"5  c #6B1000",
"6  c #6B1100",
"7  c #6C1100",
"8  c #6D1100",
"9  c #6D1200",
"0  c #6E1200",
"q  c #6F1200",
"w  c #751400",
"e  c #751500",
"r  c #462C00",
"t  c #582000",
"y  c #463800",
"u  c #5C3700",
"i  c #6A2A00",
"p  c #6E2A00",
"a  c #7D3200",
"s  c #784500",
"d  c #7B6700",
"f  c #7D6700",
"g  c #8F1C00",
"h  c #921C00",
"j  c #822100",
"k  c #952200",
"l  c #962600",
"z  c #992D00",
"x  c #883000",
"c  c #8D3B00",
"v  c #9E3000",
"b  c #A73200",
"n  c #A13600",
"m  c #A93900",
"M  c #AF3E00",
"N  c #B93E00",
"B  c #834E00",
"V  c #8F4A00",
"C  c #9C4100",
"Z  c #954D01",
"A  c #91591E",
"S  c #AC4700",
"D  c #A54F00",
"F  c #B34A00",
"G  c #B84800",
"H  c #A65800",
"J  c #B45100",
"K  c #B15700",
"L  c #BD5E00",
"P  c #9F6D00",
"I  c #A06300",
"U  c #A86600",
"Y  c #AE6A00",
"T  c #BF6B00",
"R  c #B37400",
"E  c #CC4F00",
"W  c #C45000",
"Q  c #C15F00",
"!  c #CD5800",
"~  c #D55300",
"^  c #D65200",
"/  c #D15700",
"(  c #D95500",
")  c #D85700",
"_  c #D95700",
"`  c #D75800",
"'  c #D85C00",
"]  c #DE5C00",
"[  c #CA6F00",
"{  c #D06000",
"}  c #DA6000",
"|  c #DB6500",
" . c #D86700",
".. c #DB6B00",
"X. c #DF6E00",
"o. c #C07100",
"O. c #CE7200",
"+. c #C67B00",
"@. c #D47400",
"#. c #DB7100",
"$. c #DC7100",
"%. c #DC7402",
"&. c #D17D00",
"*. c #D77E00",
"=. c #DC7900",
"-. c #DD7E00",
";. c #C3791E",
":. c #E06300",
">. c #E17D00",
",. c #B69400",
"<. c #B38736",
"1. c #DE8200",
"2. c #D98500",
"3. c #DD8900",
"4. c #DE8B00",
"5. c #DA8E00",
"6. c #DF8D00",
"7. c #DF8F00",
"8. c #CF9A00",
"9. c #DF891C",
"0. c #E08600",
"q. c #E08A00",
"w. c #E38B00",
"e. c #E08C00",
"r. c #E08E00",
"t. c #E28F00",
"y. c #E38F00",
"u. c #E29200",
"i. c #E69000",
"p. c #E29500",
"a. c #E09404",
"s. c #E99600",
"d. c #E39801",
"f. c #E69C01",
"g. c #E99D00",
"h. c #E29F0B",
"j. c #DCA100",
"k. c #E8A400",
"l. c #EDA700",
"z. c #E0AC00",
"x. c #EAA900",
"c. c #ECAE00",
"v. c #EFAE00",
"b. c #EEB200",
"n. c #EFB800",
"m. c #EDBC03",
"M. c #EDB50C",
"N. c #F0BB00",
"B. c #EABF1E",
"V. c #CB9931",
"C. c #D0A73C",
"Z. c #E4A625",
"A. c #E5AE39",
"S. c #E4AE3C",
"D. c #E7BD3C",
"F. c #F2C100",
"G. c #F4C300",
"H. c #F1C402",
"J. c #F4C700",
"K. c #F6CA00",
"L. c #F7CD00",
"P. c #F7CE00",
"I. c #F7CF00",
"U. c #F7D402",
"Y. c #F8D100",
"T. c #F9D200",
"R. c #FAD400",
"E. c #F8D601",
"W. c #FDD700",
"Q. c #FFD800",
"!. c #F6D80B",
"~. c #F5DA14",
"^. c #F5DD1A",
"/. c #F9E117",
"(. c #E9C739",
"). c #EFD935",
"_. c #F4E22C",
"`. c #F3E63C",
"'. c #E8CC44",
"]. c #E9CF47",
"[. c #EBDE56",
"{. c #F2EB45",
"}. c #F2EF4D",
"|. c #ECE45D",
" X c #F1F055",
".X c #F1F35D",
"XX c #EEEF6C",
"oX c #F1F561",
"OX c #F0F96D",
"+X c #EFF572",
"@X c #EFFF7C",
"#X c #F0FE7A",
"$X c #F0FF7E",
"%X c #F0FF7F",
"&X c #F0FF80",
"*X c #F2FF82",
/* pixels */
"                                        ` z 2 X . . X 4 4 6                                         ",
"                                        | S c r * * r x j w                                         ",
"                                ` E h S w.b.Y.Y.Y.Y.F.6.L h + . ; 9                                 ",
"                                #.@.<.V.D.)._.E.Y.I.J.x.5.o.B u = %                                 ",
"                            _ ' 0.k.@X%X&X&X&X~.P.P.P.Y.Y.Y.l.r.O . 4 9                             ",
"                          ` $.-.'.[.@X@X%X}._.U.P.Y.P.P.Y.I.N.N.P B + # 9                           ",
"                        ! ' 1.a.+X@X@X@X%X_.K.Y.P.P.P.P.I.Y.Y.Y.g.&.. O 9 9                         ",
"                          1.].XX&X+X!.M.$.w.a.d.d.d.r...s.Y.P.P.J.m.+.H 4 4                         ",
"                        a.d.|.%XOX.XK.l.| 1.d.a.a.p.w.| y.K.P.P.Y.L.d.o.; 3                         ",
"                      ( A.%X#X#X!.J.3.k.K.`.#X~.P.P.P.P.b.3.n.Y.P.P.R.,.. # 9                       ",
"                      N C.&X@X#XJ.n.Z.B.^. X%X~.P.Y.P.Y.N.d.b.N.P.P.E.,.o = 9                       ",
"                      < <.&X%X#Xa.h.@X%X%X%X@X~.P.P.P.Y.Y.Y.k.3.G.P.R.8.2 4 9                       ",
"                      D C.&X}.`.b.m.#X%X@X@X@X~.P.P.Y.P.Y.Y.N.c.K.P.Y.z.D x 4 6                     ",
"                      w.(.&X^.I.Y.!.#X#X#X%X%X~.Y.Y.Y.Y.P.P.Y.Y.Y.P.Y.N.i.D 1 6 9                   ",
"                      [.XX%XZ.>.{..X@X@X&XD.9.>.>.>.0.d.b.Y.P.P.w.0.P.K.J.Y 1 9 6                   ",
"                      %X@X#X9.' XX%X@X@X&XZ.( ' ' ' ..3.x.Y.P.P...| K.P.W.R 1 9 4                   ",
"                      &X{.E.>.' XX@X@X@X@X+XXXXXXXJ.n.3.x.Y.P.P... .K.P.W.R 2 6 6                   ",
"                      &X).N.>. .XX@X@X@X@X@X@XOXoXJ.N.3.x.Y.P.P.%.X.n.F.W.R 1 6 6                   ",
"                  ( 9.&XS.( -.r.XX@X@X@X@X@X@X~.K.u.3.6.x.Y.P.P.a.1.' >.W.R 4 9 6                   ",
"                  M ;.&XS.^ y.x.OX@X@X@X@X@X@X~.K.u.r.3.x.Y.Y.P.c.f.' >.W.I % ; 4                   ",
"                  1 A *XS.^ c.E.OX@X@X@X%X%X@X~.K.u.r.3.x.Y.P.P.Y.F.' >.Q.d . - 9                   ",
"                  1 A *XS.^ v.E.OX@X%XoX_..X%X~.K.u.6.6.x.Y.I.Y.I.F.' >.Q.f . - 9                   ",
"                  1 A *XS.^ v.E.OX@X%X}.I.{.&X~.K.u.6.3.x.Y.I.I.Y.F.' >.Q.f . - 9                   ",
"                  1 Z /.f.^ v.Y.~.~.~.!.I.{.&X~.K.u.r.3.x.Y.I.I.Y.F.' >.Q.f . - 9                   ",
"                  1 V E.s.^ v.Y.I.I.I.I.P.{.&X~.K.u.6.3.x.Y.Y.I.Y.F._ >.Q.f . - 9                   ",
"                  . y W.s.^ v.Y.I.I.I.Y.L.{.&X~.K.u.6.6.x.Y.I.I.P.F.' >.Q.f . - 9                   ",
"                  . y W.s.~ c.Y.I.I.P.P.L.{.&X~.K.u.6.3.x.Y.I.I.P.F.' >.Q.f . - 9                   ",
"                  . y W.s.( v.Y.I.I.P.P.L.{.&X~.K.u.6.6.x.Y.I.I.Y.N.| >.Q.f . - 9                   ",
"                  . y W.5.N x.Y.I.I.I.I.P.{.&X~.K.u.6.6.x.Y.I.I.Y.F.G [ Q.f . - 9                   ",
"                  . y Q.+.h j.W.I.I.I.I.K.{.&X~.K.u.6.3.x.Y.I.I.Y.m.l K Q.f . - 9                   ",
"                  % s W.+.g &.k.K.I.I.I.I.{.&X~.K.u.6.6.d.k.F.I.c.a.l K Q.P $ < 6                   ",
"                  4 Z W.+.h [ r.J.I.I.I.I.{.%X~.K.u.6.6.6.3.n.I.a.*.l K W.R 1 6 6                   ",
"                      Y.k.&...| G.P.Y.Y.I.Y.!.k.a.....3.6.6.a.a.X. .2.2.d.H 4 6 4                   ",
"                      K.c.a. ./ N.K.P.P.I.J.m.5.*./ { r.6.6.r.r./ / 6.5.u.D 2 9 6                   ",
"                      r.c.Y.K l 2.f.I.I.Y.o.l l l k m 6.6.6.r.3.n z 3.6.u.D 1 6 4                   ",
"                      -.l.Y.o.S 2.a.N.J.E.+.b b b b F 6.6.6.r.r.J F 3.3.1.D 1 6 9                   ",
"                      ( s.E.k.r.r.u.3.k.E.y._ _ ( _  .r.6.6.r.r.u.r.w.-.] n 1 6 6                   ",
"                      n [ b.a.3.L Q 3.d.b.u.#.%.%.%.=.6.6.r.[ L 2.6.r.[ n j 4 9                     ",
"                      2 D y.r.3.z v 6.6.3.r.6.7.7.7.6.6.6.i.S g &.r.r.o.2 4 9                       ",
"                      o B y.r.3.O.[  .$.r.r.6.r.6.6.6.6.-. .O.[ 3.6.y.U o = 9                       ",
"                      . s y.w.6.r.0.' ..6.3.3.3.3.3.3.r.=._ -.u.r.r.r.I . # 9                       ",
"                        ! | 1.6.6.6.3.=.| G z v v v m ' #.3.3.6.r.3.| G ; 3                         ",
"                          F @.1.6.6.r.-.' G n n n n S ' %.7.6.6.0.*.G n 4 6                         ",
"                        . . C :.w.3.r.r.6.3.6.3.3.6.6.6.6.6.6.6.:.W . O 9 6                         ",
"                          . p c @.-.r.r.6.6.6.6.6.6.6.6.6.6.1.=.C a + @ 9                           ",
"                            . . W | r.r.7.6.6.6.6.6.6.7.r.u.X.( O . 4 9                             ",
"                                t i D { $.1.6.6.6.6.3.$.{ J a t % %                                 ",
"                                . X g m _ =.r.r.r.r.1.' N k + . ; w                                 ",
"                                        j > & & & & : j j w                                         ",
"                                        9 + . . . . X 6 4 6                                         "
};
