/* XPM */
static char *_a26d4032ead4ffdb863c30f8522639fSi3s3DJyc4vdSd3g[] = {
/* columns rows colors chars-per-pixel */
"50 50 206 2 ",
"   c None",
".  c black",
"X  c #010000",
"o  c #010100",
"O  c #0D0400",
"+  c #100400",
"@  c #280000",
"#  c #2A0400",
"$  c #291500",
"%  c #2C1800",
"&  c #361100",
"*  c #331600",
"=  c #322A00",
"-  c #342A00",
";  c #3D2800",
":  c #410800",
">  c #480800",
",  c #4E0B00",
"<  c #541700",
"1  c #501D00",
"2  c #680C00",
"3  c #6A0E00",
"4  c #6B1000",
"5  c #6C1000",
"6  c #6E1100",
"7  c #6D1200",
"8  c #721400",
"9  c #5B2000",
"0  c #612000",
"q  c #6B2B00",
"w  c #7C2B03",
"e  c #603400",
"r  c #623C00",
"t  c #811A00",
"y  c #8E1900",
"u  c #911B00",
"i  c #911F00",
"p  c #872100",
"a  c #862200",
"s  c #8D2100",
"d  c #882E00",
"f  c #902100",
"g  c #962700",
"h  c #9A2C00",
"j  c #9E2F00",
"k  c #8A3B00",
"l  c #9D3400",
"z  c #9F3500",
"x  c #9B3903",
"c  c #A13600",
"v  c #A33600",
"b  c #A93400",
"n  c #A93A00",
"m  c #B83E00",
"M  c #9C4703",
"N  c #905A00",
"B  c #A84000",
"V  c #AC4800",
"C  c #B14100",
"Z  c #B54600",
"A  c #BB4600",
"S  c #AE5201",
"D  c #BA5800",
"F  c #BB5B00",
"G  c #B76400",
"H  c #BF6200",
"J  c #B06F00",
"K  c #AB7500",
"L  c #B97500",
"P  c #C45000",
"I  c #CF5000",
"U  c #CE5300",
"Y  c #CE5500",
"T  c #C15C00",
"R  c #D55200",
"E  c #D65300",
"W  c #D35600",
"Q  c #D75600",
"!  c #D15B00",
"~  c #D85800",
"^  c #D95900",
"/  c #D95A00",
"(  c #D85C00",
")  c #DA5D00",
"_  c #E25E00",
"`  c #C56900",
"'  c #C16D00",
"]  c #CC6D00",
"[  c #D66100",
"{  c #D96100",
"}  c #D96700",
"|  c #DC6500",
" . c #D56B00",
".. c #D96800",
"X. c #DA6B00",
"o. c #DB6C00",
"O. c #CB7200",
"+. c #CC7500",
"@. c #C77B00",
"#. c #D57600",
"$. c #D97103",
"%. c #DB7500",
"&. c #D07A00",
"*. c #D37F00",
"=. c #DE7800",
"-. c #DC7C00",
";. c #DE7E00",
":. c #DC7C12",
">. c #E17C00",
",. c #A08600",
"<. c #BB8331",
"1. c #CB8100",
"2. c #CC8200",
"3. c #CC8D00",
"4. c #D78500",
"5. c #D58600",
"6. c #DE8200",
"7. c #DF8600",
"8. c #DC8900",
"9. c #DF8900",
"0. c #DD8A00",
"q. c #DE8B00",
"w. c #DF8D00",
"e. c #DF8E00",
"r. c #DD9F04",
"t. c #DE891B",
"y. c #E18C00",
"u. c #E08E00",
"i. c #E18F00",
"p. c #E58C00",
"a. c #E19000",
"s. c #E39200",
"d. c #E69000",
"f. c #E29400",
"g. c #E89500",
"h. c #E39802",
"j. c #E49B01",
"k. c #E69F02",
"l. c #D0AE00",
"z. c #E6A000",
"x. c #E9A400",
"c. c #E4AD00",
"v. c #EAA800",
"b. c #EDA800",
"n. c #EBAC02",
"m. c #EFAE00",
"M. c #E1B100",
"N. c #E7B400",
"B. c #EEB100",
"V. c #EBB700",
"C. c #E2BD00",
"Z. c #EEBD01",
"A. c #EDB80A",
"S. c #F0BA00",
"D. c #E4AB1B",
"F. c #CB9931",
"G. c #C9A036",
"H. c #E2A232",
"J. c #E5B930",
"K. c #F2C000",
"L. c #F3C200",
"P. c #F0C203",
"I. c #F4C400",
"U. c #F5C900",
"Y. c #F7CC00",
"T. c #F7CF00",
"R. c #F8CE00",
"E. c #F6D302",
"W. c #F7D402",
"Q. c #F8D000",
"!. c #F9D100",
"~. c #F9D200",
"^. c #F9D300",
"/. c #FAD500",
"(. c #FDD500",
"). c #F7D809",
"_. c #F6DA12",
"`. c #F6DE1D",
"'. c #E9C22F",
"]. c #EED431",
"[. c #F4E025",
"{. c #F4E42F",
"}. c #F3E738",
"|. c #C2B150",
" X c #E7BD41",
".X c #E9CE43",
"XX c #E5D24E",
"oX c #E9D057",
"OX c #F2E641",
"+X c #EDE153",
"@X c #EFE558",
"#X c #F2EF50",
"$X c #F1F45E",
"%X c #EBDB60",
"&X c #EEEF6E",
"*X c #EEF36F",
"=X c #F0F96D",
"-X c #EEF978",
";X c #EFFE7A",
":X c #EFFE7C",
">X c #EFFF7C",
",X c #EFFF7E",
"<X c #F0FC73",
"1X c #F0FE75",
"2X c #F1FF80",
"3X c #F0FF83",
/* pixels */
"                                        ) h 2 2 2 X X X X X : 5                                     ",
"                                      Y | S k k k ; - - = = q d                                     ",
"                                ^ I u V 0.B.!.R.R.!.E.R.R.!.x.0.j t X X                             ",
"                                 .#.<.F.'.].{.{.{.R.R.T.T.E.S.x.@.G r e                             ",
"                        Y ( p 3 &.k.,X2X2X3X3X3X;XE.T.T.T.T.!.!.^.T.g.' 3 # X                       ",
"                      ^ o.-.F.|.XX+X;X,X,X#X[.[.[.T.T.T.T.T.T.T.T.Y.S.c.3.K N * X                   ",
"                      W %.e.@X>X2X2X;X;X,X{.Y.T.T.T.T.T.T.T.Y.Y.T.T.R.E.^.B.g.; X                   ",
"                  W } 6.J.*X-X,X,X=X_.A.$.0.f.h.h.f.h.h.h.h.>.X.L.T.T.T.T.Y.I.3.J O X               ",
"                  [ $.h..X,X,X;X<X$XY.v.{ 6.j.h.h.f.s.f.f.s.=.| S.Y.T.T.T.T.R.x.e.% +               ",
"                  0.D.;X;X,X,X;X).Y.0.x.Y.OX;X-X=XT.Y.T.T.Y.Y.Y.h.f.T.T.T.T.T.Y.Y.8.4.              ",
"                  D.'.,X,X;X$X#XP.V.D.'.`.#X,X;X<XE.T.T.T.T.T.T.x.x.V.L.T.T.T.T.Y.z.z.              ",
"                  ;X,X,X2X2X`.T.s.r.;X,X,X,X,X;X<XE.T.T.T.T.T.T.T.Y.e.k.!.E.T.T.T.E.!.              ",
"                :.,X>X>X=X{.n.g.v.A.;X,X;X,X;X,X<XE.T.T.T.T.T.T.T.Y.m.v.g.B.!.T.T.R.C.X             ",
"              / X.-X>X>X}.!.=.Q L.).;X,X,X,X,X,X<XW.T.!.T.R.E.T.T.T.W.m.R g.^.T.T.!.l.X X           ",
"              s M -X>X2X X=.;.6.+X$X;X,X,X Xt.t.t.>.>.>.] S 4.x.Y.T.!.V.;.;.>.S.R.!.M., >           ",
"              3 w -X;X>XH.R 6.s.*X,X,X;X2XH.R ( ( ) / ) A y ` i.I.T.!.Z.i.%.R m.!.E.M.8 7           ",
"              s x -X$X).g.R b.T.=X,X;X,X2XH.R oX&X&X@XI.2.u ` s.I.T.T.Y.I.d.R m.!.!.N.f s           ",
"              c S -X#XL.p./ A._.=X;X,X;X2XH.Q %X>X=X#XY.2.u ` e.I.T.T.T.^.g.) x.S.!.V.c z           ",
"          / ) 6.f.,XoXQ %.e.+X,X;X,X;X,X2XH.R %X<XW.L.i.H u ` s.I.T.T.T.!.m.0.o.{ L.I.i.G 3         ",
"          C Z s.n.#X'.R ;.x.@X2X,X;X,X;X2XH.R %X<XW.L.i.H f ` e.I.T.T.T.!.V.x.o.Q L.Y.b.J :         ",
"          7 7 M.!.R.m.R g.^.=X2X;X,X;X,X2XH.Q %X1XW.L.s.H f ` s.I.T.T.T.T.T.!.>.( U.T.(.,.X         ",
"          7 7 M.!.E.m.R g.!.`.{.<X;X,X$X{.h.R %X1XW.Z.e.H f ` i.I.T.T.T.T.E.!.>.Q L.T.(.,.X         ",
"          7 5 M.!.R.m.R g.W.T.T.=X,X,X#X!.p.Q %X1XW.L.s.H f ` i.I.T.T.T.T.T.!.>.( L.T.(.,.X         ",
"          7 5 c.E.!.m.R g.!.T.T._._._.).!.p.Q %X1XW.S.s.H u ` s.I.T.T.T.T.T.R.>.( U.T.!.,.X         ",
"          7 2 M.R.R.m.E g.!.T.T.T.T.T.T.^.p.Q %X1XW.L.e.H u ` s.I.T.T.T.T.T.R.>.( L.T.(.,.X         ",
"          X X l.(.R.m.E g.!.T.T.T.T.T.T.^.p.Q %X1XW.L.e.H f ` e.I.T.T.T.T.T.E.>.( L.T.(.,.X         ",
"          X X l.(.R.b.E g.W.R.T.T.T.T.T.^.p.Q %X1XW.L.s.H f ` s.I.T.T.T.T.T.R.>.( L.T.(.,.X         ",
"          X X l.R.R.m.E g.!.!.R.T.T.T.E.^.p.Q %X1XW.S.s.H f ` e.I.T.T.T.T.T.!.>.) L.T.(.,.X         ",
"          X X l.!.!.v.m 0.!.R.E.T.T.T.T.^.p.Q %X1XW.L.s.H f ` s.I.T.T.T.T.T.R.] A L.T.(.,.X         ",
"          X X l.!.!.l.u @.^.T.R.T.T.T.T.^.p.Q %X1XW.Z.e.H u ` i.I.!.T.T.T.!.^.S g Z.T.(.,.X         ",
"          > : 3.n.!.l.u H v.I.R.T.T.T.T.!.p.Q %X1XW.L.s.H f ` s.k.v.T.T.!.S.x.V g Z.Y.x.J >         ",
"          7 8 +.d.R.h.u F i.V.T.T.T.T.T.!.p.Q %X1XW.S.s.H u ` i.0.s.Y.R.E.v.0.V h Z.I.i.G 3         ",
"              c V Y.V.&.$.) 0.h.U.T.T.T.E.p.Q Z.).z.i.| A u ` s.e.e.f.h.h.;.{ #.5.U.V.c z           ",
"              s x U.L.h.=.I -.s.L.Y.T.T.!.0.U x.V.4.#.I m f ` s.e.e.e.e.e.$.U =.e.L.c.u s           ",
"              5 w Y.R.!.@.y O.s.e.h.R.E.^.' f g h g g g g f ` i.e.0.e.e.s.F u O.i.i.&.8 7           ",
"              < < S.I.^.3.n H O.0.s.S.L.(.2.n b b b b b n n +.i.e.e.e.4.O.F B &.e.i.@., >           ",
"              X O 4.z.^.V.i.n f 4.i.0.x.^.v.e.| Q Q Q Q $.i.i.e.e.0.g.O.y F s.e.e.e.L X X           ",
"                $ 0.h.B.k.i.` F F H e.f.B.k.e.=.$.=.%.%.;.e.0.e.e.0.F F F O.i.e.e.e.2.X             ",
"                  0.e.0.0.e.s.0.h j 0.e.e.e.e.e.e.e.e.e.e.0.i.i.e.4.u B s.e.e.0.0.i.i.              ",
"                  X.%.e.e.e.e.0.+.] | %.e.e.0.e.e.e.0.i.e.e.e.0.X.o.] &.e.0.e.e.i.X.X.              ",
"                  U [ e.e.e.0.i.i.7.Q o.i.0.7.0.8.8.0.7.7.0.0.y.{ ) i.i.i.0.e.e.0.! Q               ",
"                  O 1 | %.e.0.e.i.0.0.=.{ Z h l j j j l j h P { 6.0.0.e.e.e.e.o.! @ +               ",
"                  X & Z ` 7.0.i.e.e.e.;.{ Z c c c c c c z c P | y.0.0.e.0.y.7.T V + X               ",
"                      X q _ 6.i.i.e.0.e.e.0.0.0.0.0.0.0.0.e.0.e.0.i.e.i.s.=._ : X                   ",
"                      X < k S G #.;.e.e.0.e.0.e.e.0.i.e.e.0.e.e.i.0.;.#.G M k * X                   ",
"                        X X : 5 U | s.i.i.e.i.e.e.e.i.0.e.e.e.e.i.y._ A 3 # X                       ",
"                                9 q S T X.6.e.0.i.0.e.0.e.e.-.$.F S 7 1                             ",
"                                X X u b Q =.i.e.i.i.i.i.i.e.o.Q j 8 X X                             ",
"                                        p 1 % % % % % % % % 7 a                                     ",
"                                        5 @ X X X X X X X X & 7                                     "
};
