/* XPM */
static char *_4c4674f1c84410ac15f3e6749c354c5aBSSpKiD4SW9rbQy[] = {
/* columns rows colors chars-per-pixel */
"50 50 116 2 ",
"   c None",
".  c black",
"X  c #0F0000",
"o  c #191400",
"O  c #2A0300",
"+  c #381200",
"@  c #352900",
"#  c #353312",
"$  c #501200",
"%  c #670900",
"&  c #620D00",
"*  c #670E00",
"=  c #6A1000",
"-  c #6B1100",
";  c #6E1200",
":  c #731E00",
">  c #5A3400",
",  c #453A14",
"<  c #722202",
"1  c #604500",
"2  c #8F2900",
"3  c #A13F01",
"4  c #AB3B00",
"5  c #894A14",
"6  c #944C10",
"7  c #A84D00",
"8  c #B15D00",
"9  c #8C7600",
"0  c #BD6900",
"q  c #B87700",
"w  c #C14700",
"e  c #C14900",
"r  c #D65200",
"t  c #DA5700",
"y  c #DB5C00",
"u  c #D96100",
"i  c #DD6300",
"p  c #D96500",
"a  c #D96502",
"s  c #DC6C00",
"d  c #DE7500",
"f  c #E07D00",
"g  c #BD8301",
"h  c #B79100",
"j  c #B9952E",
"k  c #DE8400",
"l  c #D88900",
"z  c #DE8A00",
"x  c #DF8B00",
"c  c #DF8D1A",
"v  c #E48E00",
"b  c #E79500",
"n  c #EA9A00",
"m  c #C1A100",
"M  c #D6A700",
"N  c #EAA300",
"B  c #EFAB00",
"V  c #F0B204",
"C  c #F0B800",
"Z  c #E4A819",
"A  c #CC9F3C",
"S  c #E09227",
"D  c #E6B92B",
"F  c #E6BE31",
"G  c #F2C300",
"H  c #F5C802",
"J  c #F7CC00",
"K  c #F8CF00",
"L  c #F6D104",
"P  c #F8D200",
"I  c #FAD400",
"U  c #FED700",
"Y  c #F7D609",
"T  c #F7DC13",
"R  c #F4E62D",
"E  c #B89D43",
"W  c #B89D45",
"Q  c #E6A940",
"!  c #E6BB40",
"~  c #E9B968",
"^  c #EABB69",
"/  c #BBC760",
"(  c #E9CC4A",
")  c #F4F657",
"_  c #CDCD60",
"`  c #D3CF61",
"'  c #EDD664",
"]  c #EBF06E",
"[  c #F0FA6E",
"{  c #F7E475",
"}  c #EEF373",
"|  c #EFFB76",
" . c #EFFF7A",
".. c #EFFF7C",
"X. c #F1FF74",
"o. c #F0FF7C",
"O. c #F3FF7E",
"+. c #EDCD84",
"@. c #F8E68E",
"#. c #F0FF80",
"$. c #F3FF80",
"%. c #F0FF86",
"&. c #F1FC94",
"*. c #F1FD98",
"=. c #F1FF9B",
"-. c #F6EFA5",
";. c #F2FDA8",
":. c #F7ECB0",
">. c #F4FBB4",
",. c #F5F8C2",
"<. c #F5FCDA",
"1. c #F7F7F1",
"2. c #F7F7F8",
"3. c #F7F8F8",
"4. c #F7F8FE",
"5. c #F8FAFF",
/* pixels */
"                                          = * X . & - - =                                           ",
"                                          6 5 , # * - - =                                           ",
"                                        r ! o.o.] < * - =                                           ",
"                                        v ' >.%.] 3 2 = -                                           ",
"                                        K @.4.*.} i e - - -                                         ",
"                                        -.-.;.%.X.( A = - -                                         ",
"                                        4.>.X. . .$.` = - -                                         ",
"                                        4.{ Y Y T X.` - - -                                         ",
"                                        1.{ Y Y Y X._ & & -                                         ",
"                                    l D %.,.1.&.o.o./ . O - - -                                     ",
"                                    f Z ) >.4.*.o.o._ + $ - - -                                     ",
"                                    r f J @.4.*.| $.' t 4 * - -                                     ",
"                                    b V R -.4.*.| ( D n 8 * - -                                     ",
"                                    L R ..,.4.=.| v b U g % - -                                     ",
"                                    :.,.<.+.Q S c C H ) j % - -                                     ",
"                                    3.3.4.~ z u y H T $.W % - -                                     ",
"                                    3.3.5.^ z a a ] [ $.W % - -                                     ",
"                                    3.3.5.^ z a a } o.$.W % - -                                     ",
"                                    3.2.5.^ z a a } o.$.W % - -                                     ",
"                                    3.2.5.^ z a a } o.o.W % - -                                     ",
"                                    3.2.5.^ z a a } o.$.W % - -                                     ",
"                                    3.2.5.^ z a a } o.$.W % - -                                     ",
"                                    3.2.5.^ z a a } o.$.W % - -                                     ",
"                                    &.*.*.! z a a } o.$.W % - -                                     ",
"                                    .. ...F z p a } o.$.W % - -                                     ",
"                                    ..o.#.F z p a } o.$.W % - -                                     ",
"                                    ..o.#.F v p a } o.$.W % - -                                     ",
"                                    ....#.F z a a } o.$.W % - -                                     ",
"                                    ..o.#.F z a a } o.$.W % - -                                     ",
"                                    ..o.#.F z a a } o.O.W % - -                                     ",
"                                    ..o.#.F v a a } o.O.W % - -                                     ",
"                                    ..o.#.F z a a } o.O.W % - -                                     ",
"                                    ..o.$.F z a u L Y T g % - -                                     ",
"                                    [ [ | D k a u H P P g % - -                                     ",
"                                    L P I b r t u H P U g % - -                                     ",
"                                    C G P N d k f B V G q % - -                                     ",
"                                    v N P P P P H y u v 8 * - -                                     ",
"                                    7 0 b C P K J n v d 7 * - -                                     ",
"                                    * 2 r n P K K P C y 4 * - -                                     ",
"                                    X 1 V H K K K P M + $ - - -                                     ",
"                                    . 1 U J J J J I m . O - - -                                     ",
"                                        P b u a s K M & * -                                         ",
"                                        P b s s d J M - = =                                         ",
"                                        P P H K K I M = - -                                         ",
"                                        C G J P J B l = - -                                         ",
"                                        v V P J H i e = - -                                         ",
"                                        > h I P C 7 2 - -                                           ",
"                                        . 9 U J G : * - =                                           ",
"                                          o @ @ @ * = - =                                           ",
"                                          o . . . & - - =                                           "
};
