/* XPM */
static char *a4e7b1331b2a4f7baf072598fca6a7b8mhwx6z8SjZgx5gjQ[] = {
/* columns rows colors chars-per-pixel */
"50 50 180 2 ",
"   c None",
".  c black",
"X  c #0E0000",
"o  c #170300",
"O  c #270200",
"+  c #310400",
"@  c #3C0500",
"#  c #3E0400",
"$  c #2B1900",
"%  c #2C1900",
"&  c #352A00",
"*  c #4B0900",
"=  c #5F0A00",
"-  c #5C0C00",
";  c #411B00",
":  c #531C00",
">  c #551F00",
",  c #660700",
"<  c #670B00",
"1  c #6B0D00",
"2  c #690F00",
"3  c #6B0F00",
"4  c #6B1000",
"5  c #6B1100",
"6  c #6B1200",
"7  c #6D1100",
"8  c #711300",
"9  c #771500",
"0  c #7D1C00",
"q  c #572500",
"w  c #443800",
"e  c #583500",
"r  c #6A2A00",
"t  c #6E2A00",
"y  c #7D3200",
"u  c #744300",
"i  c #734600",
"p  c #7F4700",
"a  c #7D6700",
"s  c #8F1900",
"d  c #852100",
"f  c #8F2000",
"g  c #962600",
"h  c #972E00",
"j  c #9A2C00",
"k  c #893500",
"l  c #9E3100",
"z  c #A13600",
"x  c #A33700",
"c  c #A83300",
"v  c #AC3A00",
"b  c #B83C00",
"n  c #9C4300",
"m  c #964C00",
"M  c #AC4200",
"N  c #AE4500",
"B  c #A44B00",
"V  c #BA4400",
"C  c #B64A00",
"Z  c #A65100",
"A  c #B35100",
"S  c #B15700",
"D  c #BD5000",
"F  c #BA5800",
"G  c #8C6A00",
"H  c #9B6100",
"J  c #9F6F00",
"K  c #A66600",
"L  c #BD6700",
"P  c #B17301",
"I  c #BC7000",
"U  c #AC7C28",
"Y  c #C45000",
"T  c #CF5200",
"R  c #C05F00",
"E  c #D55300",
"W  c #D85700",
"Q  c #D15A00",
"!  c #DB5A00",
"~  c #D85C00",
"^  c #CF6300",
"/  c #CB6F00",
"(  c #D96200",
")  c #DC6200",
"_  c #DA6700",
"`  c #D96B01",
"'  c #DF6E00",
"]  c #C77C00",
"[  c #D37603",
"{  c #DB7000",
"}  c #DB7400",
"|  c #DE7500",
" . c #D27B00",
".. c #DC7800",
"X. c #DD7E02",
"o. c #DB740C",
"O. c #E06300",
"+. c #E17C00",
"@. c #AE8D3C",
"#. c #B98B37",
"$. c #CF8300",
"%. c #CD8700",
"&. c #D88000",
"*. c #DE8200",
"=. c #D98500",
"-. c #D98B00",
";. c #DE8800",
":. c #DF8B00",
">. c #DF8D00",
",. c #CF9100",
"<. c #DE9500",
"1. c #DD8217",
"2. c #DF8A1D",
"3. c #E18C01",
"4. c #E08E00",
"5. c #E08F00",
"6. c #E38E01",
"7. c #E29000",
"8. c #E69000",
"9. c #E39500",
"0. c #E99500",
"q. c #E39901",
"w. c #E79E00",
"e. c #E79F0C",
"r. c #DCA100",
"t. c #E9A700",
"y. c #E4AE00",
"u. c #ECAE00",
"i. c #EFAE00",
"p. c #E3A10C",
"a. c #EEB300",
"s. c #EBB605",
"d. c #F0B800",
"f. c #F0BD00",
"g. c #F2BE00",
"h. c #D8A435",
"j. c #E5B324",
"k. c #E4AE3C",
"l. c #F1C000",
"z. c #F3C200",
"x. c #F4C400",
"c. c #F4C700",
"v. c #F6CC00",
"b. c #F7CF00",
"n. c #F9CF00",
"m. c #F7D302",
"M. c #F8D000",
"N. c #F8D100",
"B. c #FAD400",
"V. c #FDD700",
"C. c #FFD800",
"Z. c #F7D80A",
"A. c #F0CC1E",
"S. c #F5DA13",
"D. c #FAE217",
"F. c #EAC62C",
"G. c #F1DD31",
"H. c #F5E021",
"J. c #F4E32D",
"K. c #C9BD57",
"L. c #DBCF57",
"P. c #EAD54C",
"I. c #E4CC55",
"U. c #F3E940",
"Y. c #ECE158",
"T. c #EEE55A",
"R. c #F2EE50",
"E. c #F1F057",
"W. c #F1F45E",
"Q. c #EEEF6B",
"!. c #F1F460",
"~. c #F0F868",
"^. c #EEEF71",
"/. c #EFF671",
"(. c #EFFE7A",
"). c #EFFF7C",
"_. c #F0FC74",
"`. c #F0FF7A",
"'. c #F0FF80",
"]. c #F4FF82",
/* pixels */
"                                        < v ! d = . . . O 4                                         ",
"                                        8 N _ n k & & & q k                                         ",
"                                4 0 ! V s R 4.f.M.M.M.M.a.4.N s X .                                 ",
"                                h x ` [ #.h.F.G.J.b.b.b.l.t.$.I u e                                 ",
"                            4 4 T ) ;.j.].'.'.'.(.m.b.b.n.m.M.B.w.] . .                             ",
"                          4 x V } :.P.T.).).).U.H.b.b.b.b.b.n.M.f.y.H i .                           ",
"                        4 4 V ) ;.p.).).(.(.(.S.v.b.b.b.b.v.b.b.M.b.0.K . .                         ",
"                          4 L 4.Y.Q.'.E.Z.e.o.7.q.q.q.q.;._ i.m.b.b.c.y.I                           ",
"                        4 9 ] p./.)._.U.c.6.( :.q.9.9.9.*.) t.v.b.b.b.f.9.%.                        ",
"                      4 z W I.(.).~.m.d.;.u.b.E./.b.v.v.v.v.t.:.v.M.b.b.C.a .                       ",
"                      2 g V I.'.).~.f.s.j.A.H.~._.m.b.b.b.b.a.w.d.l.b.b.C.G X                       ",
"                      4 2 , K.'.'.Q.;.j.'.).).)._.m.b.b.b.b.b.b.9.:.b.b.B.P <                       ",
"                    4 4 k Z L.).U.G.i.F.'.).).)._.m.b.n.b.b.b.b.a.a.m.b.B.,.B                       ",
"                  4 4 < Z 8.Y.(.m.m.b.H.'.).).)._.m.m.M.m.b.b.b.M.M.M.M.M.i.4.                      ",
"                  4 4 < U T./._.>.6.R.~.).).).h.2.+.+.+.3.t.f.b.b.c.+.0.M.v.f.                      ",
"                  4 4 < @.].(./.` o.).).).).).1.~ ! ~ ~ ` ;.d.M.M.l.~ +.b.b.M.                      ",
"                  4 4 , @.].J.n._ o.).).).).).^.Q.^.T.x.u.:.d.m.b.l.~ +.M.n.M.                      ",
"                  4 7 9 #.].A.d.` X.).).).).).).).~.E.c.u.;.a.m.n.l.` +.f.c.M.                      ",
"                  4 f W k.].2.~ *.e.).).).).).)._.m.f.:.:.:.d.M.b.c.4.X.W 0.V.m 2                   ",
"                  4 0 v h.).2.~ w.s.(.).).).).)._.m.l.:.:.4.d.M.n.v.t.4.E 0.M.u *                   ",
"                  4 4 < @.].2.~ l.Z.(.).).).'.)._.m.l.:.<.3.a.M.b.b.m.i.E 0.V.w .                   ",
"                  4 4 < @.].2.~ l.Z.(.).).R.J.~._.m.l.4.4.;.d.B.b.b.M.i.E 0.V.w .                   ",
"                  4 4 < @.].2.~ x.Z.`.).].J.b.W._.m.l.4.:.:.d.m.b.b.m.i.E 0.V.w .                   ",
"                  4 4 < P D.+.~ l.M.S.S.S.m.b.!._.m.f.<.:.:.d.M.b.b.b.i.E 0.V.w .                   ",
"                  4 4 = P C.+.~ l.b.b.b.b.b.b.!._.m.l.<.4.;.d.M.b.b.M.i.W 0.V.w .                   ",
"                  7 * . a C.+.~ z.b.b.b.b.b.b.!._.m.l.:.;.4.d.M.b.b.M.i.E 0.V.w .                   ",
"                  7 * . a C.X.~ z.n.b.b.b.b.b.!._.m.l.:.:.:.d.M.b.b.M.i.E 0.V.w .                   ",
"                  7 * . a C.+.~ l.b.b.b.b.b.b.!._.m.l.:.:.:.d.B.b.m.M.i.W 0.V.w .                   ",
"                  7 * . a C./ V l.M.M.b.b.b.b.!._.m.l.:.<.4.d.M.b.b.m.t.b -.V.w .                   ",
"                  7 * . a C.S g f.M.b.b.b.b.b.!._.m.l.:.:.;.d.m.b.b.M.r.s ] V.w .                   ",
"                  7 = @ J C.S g <.i.b.b.b.b.m.!._.m.f.4.:.:.w.t.c.b.t.$.s ] V.u @                   ",
"                  4 4 < P B.S g &.9.b.b.b.b.m.W._.m.f.3.<.:.:.:.l.x.:./ g ] V.m 1                   ",
"                  4 4 < P C.<. ._ | b.b.b.b.b.Z.m.w.3.) } :.:.4.7.7.) {  .-.q.                      ",
"                  4 4 < P M.t.7.Q ` x.b.b.b.m.f.s.=.[ T ` 4.:.<.4.;.T ^ <.:.;.                      ",
"                  4 4 < Z 9.f.c.l x ;.t.m.m.b.A g g g g Z 4.;.4.:.&.g M 7.:.:.                      ",
"                  4 4 < B *.d.b.A C 3.w.d.c.b.F c c c c ^ 7.4.<.:.&.M F :.;.*.                      ",
"                  4 4 < z ! i.m.9.7.7.<.;.a.B.| W W ~ W ` 7.:.:.7.7.7.<.4.| !                       ",
"                    4 4 d z -.u.7.=.F / :.w.i.*.} { } } X.:.:.;.F L :.:.4.R l                       ",
"                      4 2 < L 3.4. .f M 7.:.;.:.<.<.4.7.:.:.:.3.z j ;.:.4.m <                       ",
"                      7 @ X K 4.:.;./ / ` *.<.:.;.:.4.;.:.<.} ` / / 3.:.8.m X                       ",
"                      4 @ . H 7.:.<.4.X.W } :.;.;.;.;.;.;.:.{ ~ ;.7.4.;.8.u .                       ",
"                        4 = C ) ;.:.4.3.;.{ ~ v l l l j V ( } ;.:.:.:.*._ D                         ",
"                          4 x C *.=.;.4.7.} _ M l x l x C ( *.:.:.:.;.[ C D                         ",
"                        6 4 o . Y O.4.;.:.:.;.:.;.<.:.:.:.:.:.:.<.;.O.n . .                         ",
"                          4 + O y n ..X.:.:.3.<.:.4.;.4.<.;.:.:.X.[ k t .                           ",
"                            4 4 . o ! +.7.7.:.:.:.<.:.:.:.:.7.<.) Y . .                             ",
"                                @ @ q y A ^ ` ;.:.:.<.3.*.{ ^ A r >                                 ",
"                                4 - . O g V ~ ;.7.4.4.:.} W z f o .                                 ",
"                                        9 0 d ; % % % $ : d                                         ",
"                                        4 4 4 X . . . . O 4                                         "
};
