/* XPM */
static char *d8ae8834bd814491e53a1f5650b21a0dzvNoTrPkTi0POHD7[] = {
/* columns rows colors chars-per-pixel */
"50 50 77 1 ",
"  c None",
". c black",
"X c #130000",
"o c #2C0D00",
"O c #3A0600",
"+ c #311200",
"@ c #500900",
"# c #670A00",
"$ c #670C00",
"% c #601100",
"& c #691000",
"* c #6B1000",
"= c #6B1100",
"- c #6E1200",
"; c #751800",
": c #7E1B00",
"> c #4C2500",
", c #732A00",
"< c #623300",
"1 c #7A3000",
"2 c #851D00",
"3 c #8C1F00",
"4 c #892700",
"5 c #962300",
"6 c #932A00",
"7 c #9B2C00",
"8 c #993300",
"9 c #9D3200",
"0 c #903A00",
"q c #A13500",
"w c #A23600",
"e c #A83C00",
"r c #B33E00",
"t c #9D4700",
"y c #9D4900",
"u c #AA4400",
"i c #BE4600",
"p c #AB5300",
"a c #AE5B00",
"s c #BD5F00",
"d c #B46100",
"f c #B57000",
"g c #C04A00",
"h c #C64B00",
"j c #CE5300",
"k c #D25600",
"l c #D55700",
"z c #D75A00",
"x c #D95B00",
"c c #D95D00",
"v c #DD5D00",
"b c #CC6900",
"n c #DA6300",
"m c #CF7900",
"M c #DA7000",
"N c #DD7C00",
"B c #BC8100",
"V c #BD8300",
"C c #D88200",
"Z c #DA8600",
"A c #DF8500",
"S c #DF8D00",
"D c #CA9200",
"F c #E08B00",
"G c #E39100",
"H c #E59200",
"J c #E09400",
"K c #E49900",
"L c #D8A100",
"P c #DBA900",
"I c #E6A100",
"U c #F0B700",
"Y c #F1C200",
"T c #F2C400",
"R c #F6C900",
"E c #F8D000",
"W c #FCD600",
/* pixels */
"                     =====@..                     ",
"                     ====4,o+                     ",
"                     ===;CSGs4                    ",
"                     ===;IISbr                    ",
"                    ===#;TTSNx                    ",
"                    ===fDIISFM                    ",
"                    ===PESFGFF                    ",
"                    ==&PRnnnMF                    ",
"                    =--LTMnxMS                    ",
"                  ===25mKRUSSH>.                  ",
"                  ===:3bARYSSG<X                  ",
"                  ===$$inRYSSH0$                  ",
"                  ===4qbNRYSmsuq                  ",
"                  &=$evAJETGs3ic                  ",
"                  *-#fUUUdp0ehMN                  ",
"                  &=#VWET73#8vNS                  ",
"                  -=#BWEY93#yFFS                  ",
"                  &=#BWEY93#yHSS                  ",
"                  &-#BWEY94#tGSS                  ",
"                  *&#BWEY93#tGSS                  ",
"                  *-#fWEY93$tGSS                  ",
"                  &==VWEY93$tGSS                  ",
"                  -=&BWET93$tGSS                  ",
"                  &=#dIKJ73#tGSS                  ",
"                  &=$aGSZ73$tGSS                  ",
"                  *=$aGSZ73$tGSS                  ",
"                  &-$aGSZ73$tGSS                  ",
"                  ==$aGSZ73$tGSS                  ",
"                  -=$aGSZ73$tGSS                  ",
"                  &=$aGSZ73$tGSS                  ",
"                  &-$aGSZ73$tGSS                  ",
"                  *&$aGSZ73$tGSS                  ",
"                  -=#aGSZ73$8nnc                  ",
"                  &=$pFAC62$8cxc                  ",
"                  &=$evxk;=#8vxc                  ",
"                  *=$9hkk6449iih                  ",
"                  ===25jvcxve%25                  ",
"                  &-=;:8ekzxiq3:                  ",
"                  =====$-jzzcv6=                  ",
"                  &=-OX8ilzzxv%X                  ",
"                  ==-o.uvkkklv>.                  ",
"                    =#%gk:;;qx                    ",
"                    ===gk2::qc                    ",
"                    ===gvlllxx                    ",
"                    ==-qrlzxji                    ",
"                    ===&-jzxi5                    ",
"                     ===;jzv8O                    ",
"                     ===;kzv1.                    ",
"                     ====ooo+                     ",
"                     -==%....                     "
};
