/* XPM */
static char *d2e558a28ae64000d8f46b1448357983CTzUZwEruanh9wVn[] = {
/* columns rows colors chars-per-pixel */
"50 50 133 2 ",
"   c None",
".  c black",
"X  c #120000",
"o  c #100300",
"O  c #140500",
"+  c #2B1900",
"@  c #2D1900",
"#  c #342A00",
"$  c #400500",
"%  c #410600",
"&  c #460500",
"*  c #640900",
"=  c #690D00",
"-  c #6B0C00",
";  c #6B0E00",
":  c #6C1000",
">  c #5E2000",
",  c #5D3800",
"<  c #612100",
"1  c #692C00",
"2  c #8D1B00",
"3  c #911E00",
"4  c #872100",
"5  c #972700",
"6  c #9D2C00",
"7  c #883100",
"8  c #853D00",
"9  c #8B3D00",
"0  c #9E3000",
"q  c #A13500",
"w  c #A83500",
"e  c #984200",
"r  c #8B5600",
"t  c #935A00",
"y  c #A64100",
"u  c #AD4400",
"i  c #A24C00",
"p  c #B94300",
"a  c #B25100",
"s  c #BB5300",
"d  c #B95400",
"f  c #BA5A00",
"g  c #A46700",
"h  c #B66300",
"j  c #BC6D00",
"k  c #B17D2C",
"l  c #CE4D00",
"z  c #C35100",
"x  c #D55100",
"c  c #D75800",
"v  c #D75B00",
"b  c #D95A00",
"n  c #D85E00",
"m  c #D85F00",
"M  c #E15D00",
"N  c #C06100",
"B  c #C56900",
"V  c #CA6E00",
"C  c #D46400",
"Z  c #DB6600",
"A  c #DA6D00",
"S  c #DD6D00",
"D  c #CB7100",
"F  c #C87D00",
"G  c #DC7301",
"H  c #DF7C00",
"J  c #DD7A04",
"K  c #C28000",
"L  c #C68E00",
"P  c #D58000",
"I  c #DB8400",
"U  c #DE8700",
"Y  c #DC8900",
"T  c #DF8B00",
"R  c #DF8D00",
"E  c #DF8E00",
"W  c #D59400",
"Q  c #D48A10",
"!  c #DE891C",
"~  c #E08100",
"^  c #E08F00",
"/  c #E28E00",
"(  c #E29100",
")  c #E49100",
"_  c #E69300",
"`  c #E39800",
"'  c #E69E00",
"]  c #DCA200",
"[  c #E9A300",
"{  c #ECA600",
"}  c #E9A802",
"|  c #EDB000",
" . c #EFB800",
".. c #F0BC00",
"X. c #E6B01D",
"o. c #C38F31",
"O. c #E9BC23",
"+. c #E4AF3D",
"@. c #E5BC31",
"#. c #F1C000",
"$. c #F5C100",
"%. c #F4C400",
"&. c #F4C702",
"*. c #F6CA00",
"=. c #F7CD00",
"-. c #F8CE00",
";. c #F7D503",
":. c #F8D000",
">. c #F9D000",
",. c #F9D300",
"<. c #FBD500",
"1. c #F6DA14",
"2. c #F1D528",
"3. c #EACB35",
"4. c #F4E025",
"5. c #F4E531",
"6. c #F3E93D",
"7. c #BFAE50",
"8. c #E5BA45",
"9. c #D6C34E",
"0. c #E7C54E",
"q. c #EDDE55",
"w. c #F2ED4B",
"e. c #F2F359",
"r. c #F1F45F",
"t. c #EDEB65",
"y. c #EEF16E",
"u. c #F0FA6B",
"i. c #EFFE79",
"p. c #EFFF7C",
"a. c #F0FC74",
"s. c #F0FF7E",
"d. c #F1FF81",
/* pixels */
"                                    C u * = = = * . . . . . $ :                                     ",
"                                    Z s 9 9 9 9 8 # # # # # 1 7                                     ",
"                        b v 2 * 2 0 ~ [ ,.-.-.=.,.-.,.-.=.,.[ U 6 2 = & .                           ",
"                        d G k k k o.@.3.5.5.5.;.=.-.=.-.-.,. .} F j g t , <                         ",
"                  v p * i / q.d.d.d.s.d.d.d.d.1.=.-.-.-.-.-.-.,.<.,.<.%._ i * X .                   ",
"              b n J Q 7.9.q.y.p.s.s.s.t.4.4.4.<.-.=.,.-.,.=.-.=.-.-.=.%...] L g r O .               ",
"              v n R X.d.s.s.p.p.a.i.p.w.*.-.-.-.=.=.=.=.=.=.=.=.-.-.-.-.-.<.<.[ Y O .               ",
"          b v J / t.y.p.p.p.p.i.1.&.G I ` ` _ ` ` ` ` ` ` ` H S ..,.-.-.-.=.=.*.#.K g . .           ",
"          n n / } i.p.p.a.u.y.t.*. .Z ~ ` ` ` ` ( ( ( ( ( ` G Z  .&.&.&.-.-.-.-.=.' K O O           ",
"        c J T t.i.p.p.d.6.,.~ n T ` *.2.i.a.i.1.*.=.=.=.=.=.*.*.` U n H ,.-.-.-.=.=.#.T r .         ",
"        p Q X.y.p.p.a.e.2...) H X.X.1.6.s.p.p.5.1.,.=.-.-.-.-.=.} ' H ) ..*.,.-.=.-.&.} g O         ",
"        * 7.d.p.p.d.e.,.| I ..,.u.p.s.p.p.p.i.s.a.;.-.-.-.-.-.-.=.,.,...I } <.=.-.-.:.;.L *         ",
"    b d i 9.s.p.a.6.2._ { | 2.6.a.p.p.p.s.s.s.i.a.:.=.=.-.,.=.,.=.-.,.&.| [ _ %.,.-.-.,.] i :       ",
"    v G / q.s.p.u.,.} x _ <.e.d.p.p.p.p.s.s.s.s.a.;.:.=.-.,.,.=.-.-.=.-.<._ x } ,.=.=.,. ._ , .     ",
"    4 k q.y.p.p.y.I H H O.e.a.p.p.p.d.q.! ! ! ! ! H H H V a J [ &.-.,.=.;.[ H H ~ &.-.-.&.%.t &     ",
"    * k d.p.p.i.t.n Z / 3.d.p.p.p.p.p.0.x c n n n C n C p 2 B E &.-.=.:.:.| / Z c %.-.-.-.<.g =     ",
"    2 k d.p.i.1.&.n H &.6.s.p.p.p.p.s.0.x +.y.y.y.y.q.&.F 3 B ( %.-.-.-.-.*.*.H n &.,.-.-.,.j 2     ",
"    0 o.d.p.i.&.} Z ~ ;.w.s.p.p.p.p.s.0.x 8.d.u.u.u.w.*.F 3 B ( &.-.-.-.-.-.,.~ Z } ..-.=.,.F 0     ",
"n Z U @.d.d.p.J C ~ X.p.p.p.p.p.p.p.s.0.x 8.d.1.-.=.#.( h 3 B ( %.-.-.-.-.-.,.' T n S -.=.,.[ U 7 : ",
"u d [ 3.d.r.w.G n [ O.s.p.p.p.p.p.p.s.0.x 8.d.1.=.,.#./ N 3 B ( &.-.-.=.-.-.=.| [ n S -.:.:. .[ 1 $ ",
"* 9 -.5.d.4.*.S Z *.4.d.s.p.p.p.p.p.d.0.x 8.d.1.=.:.#.E N 3 B ) %.-.-.,.=.,.*.,.*.Z S =.-.-.,.,.# . ",
"= 9 -.5.d.4.=.S Z *.<.5.e.s.p.p.p.a.5.X.x 8.d.1.=.,.#.E N 3 B ) &.-.,.*.,.*.,.-.*.Z S =.-.-.-.=.# . ",
"= 9 -.5.d.4.=.S Z *.=.=.6.d.p.p.s.u.-.{ x 8.d.1.=.:.#./ N 3 B ) %.-.*.,.*.,.,.*.*.Z S =.-.-.-.,.# . ",
"= 9 =.<.1.;.=.S Z *.-.-.;.1.1.1.1.1.,.{ x 8.d.1.=.:.#./ N 3 B ( &.=.,.=.,.*.-.=.*.Z S -.-.-.-.-.# . ",
"* 8 =.-.=.-.=.S Z *.-.-.-.=.=.=.=.=.,.{ x 8.d.1.=.:.#.E N 2 B / %.:.=.:.=.:.*.,.*.Z S =.-.-.=.,.# . ",
". # ,.-.-.-.=.S Z *.-.-.-.-.-.=.-.-.,.{ x 8.d.1.=.:.#.R N 5 B ( %.:.:.:.=.:.,.=.*.Z S =.-.-.-.=.# . ",
". # ,.-.-.-.=.S Z *.=.,.-.=.,.,.,.*.,.{ x 8.d.1.=.:.#.( h 3 B ( %.:.=.:.=.:.=.,.*.Z S =.-.-.-.,.# . ",
". # =.-.-.-.=.S Z *.-.=.=.,.*.=.,.-.,.{ x 8.d.1.=.:.#.R N 3 B ( %.:.=.:.:.=.:.=.*.Z S =.-.-.-.=.# . ",
". # ,.-.-.-.=.N z *.-.,.*.,.=.,.*.,.=.{ x 8.d.1.=.:.#.( N 3 B ) %.:.:.=.:.:.=.:.*.z N =.-.-.-.,.# . ",
". # ,.=.-.-.*.y q *.,.*.,.*.,.*.,.*.,.{ x 8.d.1.=.:.#.E N 3 B ) &.,.:.=.:.=.:.:.*.q y *.-.=.-.,.# . ",
"$ 1 [  .,.-.*.y 0 ' } ,.=.=.=.,.*.,.,.{ x 8.d.1.=.:.#.E N 3 B / ' [ =.=.:.=.:.| ' 0 y *.-.,...[ 1 $ ",
": 7 T } =.-.=.y 0 I [ -.=.-.,.*.,.=.,.{ x 8.p.1.=.=.#./ N 3 B / R ( *.=.=.=.=.' U 6 y =.=.,.} ~ 7 : ",
"    0 F ,.-.=.T J C G ` | :.:.:.=.=.,.[ x [ 1.} ` ` / Z p 3 B ( R R ` ` ` ` ` G n J E :. .' h w     ",
"    2 j =.=.=.' R x C R } *.=.=.,.=.,.[ l ( #.R P P G x p 3 B E R R T R T R R C x Y E &.| E a 2     ",
"    = i (  .,.=. .5 u E E E #.<.,.:.<.W 3 5 5 5 5 5 5 5 5 3 B R R R R R R ( ( u 5 P E E ( ( i =     ",
"    & 9 ~ { ..*.#.u a D P R |  .....<.] y w w w w w w w w y D ( R R R R E P D a u I E E U ~ 9 &     ",
"    . > M H R &.=.( D 2 f _ E R R ` ,...R G c v v c v c G ( R R R R R E _ f 2 D ( R R R H M > .     ",
"      < q V R } } E P f f f P E R ( } [ R H G G G G G G H R R R R R E P f f f P E R R / V q <       ",
"        * h ( / R R E _ f 2 D ( R R T R R R R R R R R R R R R R R R ( D 2 f _ E R R R ( h *         ",
"        X e S T R R R ( P D a u C A T R R R R R R R R R R R R T A C u a D P ( R R R U S e X         ",
"        . 7 c U T R R R R ( u 5 x Z / T Y Y Y Y Y Y Y T Y Y T T Z x 5 u ( R R R R R U c 7 .         ",
"          o O d Z T R T R R I P ~ I n z 6 0 0 0 0 0 0 6 6 6 z n H T P I R R R R R Z s O o           ",
"          . . e d I U / R R R R R U Z z q q q q q q q q q q z Z T R R R R R R U I d e . .           ",
"              . O c S ( E R R R R R R R T T T T T R T T R R R R R R R R R ( ( S c O .               ",
"              . X 7 e h D H U R R R R R R R R R R R R R R R R R R R R T H D h e 7 X .               ",
"                  . X * q M I ( R ( R R R R R R R R R R R R E E R E / I M q * X .                   ",
"                        < < 9 i a f A H R R R R R R R R R R H A f a i 9 > <                         ",
"                          . & - 2 6 v A E E ( E R ( E R R / A v 6 2 - & .                           ",
"                                    4 > + + + @ @ @ @ @ @ + > 4                                     ",
"                                    : $ . . . . . . . . . . & :                                     "
};
