/* XPM */
static char *_48863e44f3249b7eb1c5b1c0ab9ac3dxoGwEAxI8ig3bTwz[] = {
/* columns rows colors chars-per-pixel */
"50 50 2 1 ",
"  c None",
". c #6B1100",
/* pixels */
"                       ......                     ",
"                       ......                     ",
"                       ......                     ",
"                       ......                     ",
"                       ......                     ",
"                       ......                     ",
"                       ......                     ",
"                       ......                     ",
"                       ......                     ",
"                       ......                     ",
"                       ......                     ",
"                       ......                     ",
"                       ......                     ",
"                       ......                     ",
"                      ........                    ",
"                     .........                    ",
"                     .........                    ",
"                     .........                    ",
"                     .........                    ",
"                     .........                    ",
"                     .........                    ",
"                     .........                    ",
"                     .........                    ",
"                     .........                    ",
"                     .........                    ",
"                     .........                    ",
"                     .........                    ",
"                     .........                    ",
"                     .........                    ",
"                     .........                    ",
"                     .........                    ",
"                     .........                    ",
"                     .........                    ",
"                     .........                    ",
"                     .........                    ",
"                      ........                    ",
"                       ......                     ",
"                       ......                     ",
"                       ......                     ",
"                       ......                     ",
"                       ......                     ",
"                       ......                     ",
"                       ......                     ",
"                       ......                     ",
"                       ......                     ",
"                       ......                     ",
"                       ......                     ",
"                       ......                     ",
"                       ......                     ",
"                       ......                     "
};
