/* XPM */
static char *fae11f4be15a4834bb443e4ba6286c4f6fWwmMJb2vfX1J4u[] = {
/* columns rows colors chars-per-pixel */
"50 50 110 2 ",
"   c None",
".  c black",
"X  c #020000",
"o  c #110300",
"O  c #180500",
"+  c #190D00",
"@  c #2C0B00",
"#  c #2A0C00",
"$  c #390500",
"%  c #4A0700",
"&  c #4B0900",
"*  c #5C0D00",
"=  c #501000",
"-  c #5B1E00",
";  c #640900",
":  c #670D00",
">  c #6A0F00",
",  c #6B1000",
"<  c #6B1100",
"1  c #6E1200",
"2  c #711700",
"3  c #761600",
"4  c #771D00",
"5  c #7E1D00",
"6  c #773100",
"7  c #8F1700",
"8  c #8C1F00",
"9  c #862300",
"0  c #902200",
"q  c #952400",
"w  c #912A00",
"e  c #932C00",
"r  c #9D2A00",
"t  c #9A2F00",
"y  c #863300",
"u  c #8A3600",
"i  c #9F3300",
"p  c #963D00",
"a  c #A02D00",
"s  c #A73700",
"d  c #AE3900",
"f  c #9B4400",
"g  c #A14000",
"h  c #AA4000",
"j  c #B34000",
"k  c #B04B00",
"l  c #B34A00",
"z  c #BD4800",
"x  c #A25000",
"c  c #B05300",
"v  c #BD5E00",
"b  c #A36500",
"n  c #B66200",
"m  c #B56900",
"M  c #BA7600",
"N  c #C44D00",
"B  c #C15100",
"V  c #CC5200",
"C  c #CD5400",
"Z  c #D25600",
"A  c #D65500",
"S  c #D65800",
"D  c #D75800",
"F  c #D55B00",
"G  c #D75A00",
"H  c #D95B00",
"J  c #DC5C00",
"K  c #DD5C00",
"L  c #E15E00",
"P  c #CD6200",
"I  c #C26800",
"U  c #C96D00",
"Y  c #D86100",
"T  c #DD6600",
"R  c #DA6B00",
"E  c #DA6C00",
"W  c #C17300",
"Q  c #CF7400",
"!  c #C87800",
"~  c #DB7100",
"^  c #DD7700",
"/  c #DC7B00",
"(  c #CA8000",
")  c #CF8B00",
"_  c #D38000",
"`  c #DD8000",
"'  c #D88400",
"]  c #DE8A00",
"[  c #DE8C00",
"{  c #DF8C00",
"}  c #DF8D00",
"|  c #DF8E00",
" . c #D89800",
".. c #E08500",
"X. c #E18F00",
"o. c #E29000",
"O. c #E29200",
"+. c #E59A00",
"@. c #EAA100",
"#. c #EAAB00",
"$. c #EEB300",
"%. c #F0B600",
"&. c #F1BF00",
"*. c #F2C300",
"=. c #F4C800",
"-. c #F6CD00",
";. c #F7CF00",
":. c #F8D200",
">. c #FAD400",
",. c #FBD700",
/* pixels */
"                                        < < < z Z 3 = X - K                                         ",
"                                        < < < z Z y 6 # 6 T C                                       ",
"                                    < > : : ; z D ] [ [ [ X.p ;                                     ",
"                                  1 > 5 i x b ' O.#.@.[ [ O.n f @                                   ",
"                                < < : e K @.,.:.:.>.*.[ X.X.X.[ + X                                 ",
"                                < < : w D @.:.-.-.#.@.X.[ [ [ [ f u                                 ",
"                                < < > e H @.:.-.=.X.] [ [ ] X.[ T K                                 ",
"                            < < < 5 N Q &.=.:.n h Y Y Y B i U X...! X X                             ",
"                            < < > 4 A ..:.*.*.c i Y T Y z t I ' [ ( O o                             ",
"                            < < > 8 A ..,.M q Q [ =.&.] ] [ k q _ ] Z G                             ",
"                            < < > 5 ^ +.,.( s | @.-.&.X.[ X.v h ' [ E D                             ",
"                            < < ; y ;.:.:.#.] *.:.:.&.[ [ X.[ X.| [ [ O.                            ",
"                          < < 1 t c -.*.#.#.#.=.:.-.&.[ X.X.[ [ [ [ O.M X                           ",
"                        < < < 1 V ~ -.%.] $.:.:.-.:.*.O.[ [ [ X.[ [ O.b X X                         ",
"                        < < < < 9 f :. .s  .:.-.=.n c h B T ` [ c k [ m % &                         ",
"                        < < < < > y :. .7 ) >.-.*.s q q j D / [ i i ] I 1 <                         ",
"                        < < < < 8 g :. .7 ) >.:.-.&.#.' ~ A / ] i i ] U 8 0                         ",
"                        < < < 1 t c :. .r ) >.-.-.:.*...~ A / [ h s ] Q r r                         ",
"                        < < < 2 _ +.:.%.] $.>.-.:.:.%.D G D / [ Y D [ ` A C                         ",
"                        < < < 2 _ O.%.#.] $.:.-.-.:.%.D G D / | ~ ~ X...R E                         ",
"                        < < < 2 _ [ ] [ ] $.:.:.:.>.%.D G D / | [ | [ [ [ O.                        ",
"                        < < < 2 _ [ [ X.] $.:.$.#.-.%.D G D / | X.[ O.[ [ [                         ",
"                        < < < 2 _ [ [ [ ] $.:.+.X.-.%.D G D / | X.[ [ [ [ X.                        ",
"                        < < < 2 _ X.X.[ X.O.+.X.O.-.%.D G D / | [ [ X.X.[ [                         ",
"                        < < < 2 _ [ [ [ [ [ [ X.O.-.%.D G D / | X.[ [ [ X.[                         ",
"                        < < < 2 _ [ X.X.X.X.[ [ O.-.%.D G D / | [ [ X.[ X.[                         ",
"                        < < < 2 _ X.[ [ [ [ X.[ O.-.$.D G D / | [ X.[ X.[ [                         ",
"                        < < < 2 _ [ X.[ [ X.[ [ O.-.%.D G D / | [ X.[ [ [ X.                        ",
"                        < < < 2 _ [ X.[ [ [ X.X.O.-.%.D G D / | [ X.[ [ [ X.                        ",
"                        < < < 2 _ X.X.[ X.[ [ [ O.-.%.D G D / | | | [ X.[ [                         ",
"                        < < < 1 P ~ [ ` R ` | | O.-.%.D D D / | ~ ~ X...E E                         ",
"                        < < 1 1 V Y [ / A / | [ O.-.$.D G H / [ Y D ] ` A C                         ",
"                        < < < 1 r s | U t I X.[ [ +._ r j G Y Y s s ] Q r r                         ",
"                        < < < < 8 s | I 8 v O.X.[ _ I 0 d G G D r i ' U 8 0                         ",
"                        < < < < 2 9 X.n ; c O.[ _ 4 1 > i D G D 5 3 D z 1 <                         ",
"                        < < < < = - / n 9 v / [ ' 5 3 3 i G G D i e G j & &                         ",
"                        < < < : X O Z G H G D ` ' i q q d H G G D H K p X X                         ",
"                          < < > $ = D G G G D E ~ z j j N H G G G G H k X                           ",
"                            < < < 5 D G G H D D A H H H H G H H G G G F                             ",
"                            < < < 5 D G H h 9 N H D G G G H s 9 C D G F                             ",
"                            < < > 5 V Z K t < z D Z Z Z Z D e < N G Z G                             ",
"                            < < < * X - K Z C s r 4 3 3 9 r z C D B O o                             ",
"                            < < < * X - K D D d r 5 5 5 0 r N H G v X X                             ",
"                                < < : e L H G D D Z D D D Z G G K K                                 ",
"                                < < < 4 y z H G G G G G G G G G p u                                 ",
"                                < < 1 $ X 6 L Z G G G G G G H G O X                                 ",
"                                  < < * $ 4 i V H G G G G H j t @                                   ",
"                                    < < 1 < : z H G G G D H w :                                     ",
"                                        < < < 5 5 # # # = 9                                         ",
"                                        < < < > ; X X X # 1                                         "
};
