/* XPM */
static char *_66193d54ced4abfafb6b9e542e1795emCjjq2jMDaU1NXFA[] = {
/* columns rows colors chars-per-pixel */
"50 50 209 2 ",
"   c None",
".  c black",
"X  c #010000",
"o  c #010100",
"O  c #0D0400",
"+  c #120700",
"@  c #1B1000",
"#  c #1E1A00",
"$  c #270200",
"%  c #360300",
"&  c #3F0500",
"*  c #311A00",
"=  c #1C240C",
"-  c #342900",
";  c #3E3813",
":  c #4B0600",
">  c #4B0900",
",  c #5B0C00",
"<  c #5D1000",
"1  c #5E1100",
"2  c #640900",
"3  c #6A0D00",
"4  c #671000",
"5  c #6B1100",
"6  c #6C1100",
"7  c #6D1100",
"8  c #6F1200",
"9  c #711900",
"0  c #711B01",
"q  c #552C04",
"w  c #682C00",
"e  c #7E2900",
"r  c #67350C",
"t  c #644B00",
"y  c #794B18",
"u  c #605A1F",
"i  c #666928",
"p  c #8C1D00",
"a  c #8A2300",
"s  c #872900",
"d  c #982D00",
"f  c #853200",
"g  c #823D05",
"h  c #943D00",
"j  c #9E3A00",
"k  c #8F5800",
"l  c #955500",
"z  c #9F5A00",
"x  c #874915",
"c  c #A24306",
"v  c #AD4900",
"b  c #967F00",
"n  c #A36800",
"m  c #AB6800",
"M  c #B1610A",
"N  c #BF7E00",
"B  c #A77E33",
"V  c #D65400",
"C  c #D75500",
"Z  c #D75800",
"A  c #D85A00",
"S  c #D35B0B",
"D  c #D96000",
"F  c #D86003",
"G  c #DA6600",
"H  c #DB6700",
"J  c #DC6B01",
"K  c #C47100",
"L  c #DD7203",
"P  c #DB7F05",
"I  c #E07900",
"U  c #DC7323",
"Y  c #A67569",
"T  c #AF9200",
"R  c #D68600",
"E  c #CC9E00",
"W  c #D99200",
"Q  c #E08600",
"!  c #E08D00",
"~  c #E29101",
"^  c #E39400",
"/  c #E79C00",
"(  c #E99B00",
")  c #E1980F",
"_  c #E18E1A",
"`  c #E39B1F",
"'  c #CFAD00",
"]  c #DEB600",
"[  c #E6A000",
"{  c #E1A304",
"}  c #E8A206",
"|  c #EDAE00",
" . c #EAA904",
".. c #E7B700",
"X. c #EFB300",
"o. c #F1BD01",
"O. c #E3AA19",
"+. c #E5AF1D",
"@. c #EEBD10",
"#. c #E39E22",
"$. c #C3B23D",
"%. c #E5AA28",
"&. c #E8B526",
"*. c #E4A739",
"=. c #E6B636",
"-. c #E6BF33",
";. c #EEC50A",
":. c #F4C300",
">. c #F5C800",
",. c #F6CA00",
"<. c #F6CB00",
"1. c #F7CB00",
"2. c #F5CD00",
"3. c #F7CD00",
"4. c #F7CE00",
"5. c #F7D000",
"6. c #F6D102",
"7. c #F8D100",
"8. c #F8D200",
"9. c #F9D300",
"0. c #FBD300",
"q. c #F9D500",
"w. c #FFDA00",
"e. c #F6D40A",
"r. c #F7D80E",
"t. c #F5DA13",
"y. c #F4D91B",
"u. c #E6CA21",
"i. c #F7D420",
"p. c #F3DE23",
"a. c #F8D927",
"s. c #E3CD31",
"d. c #F7D733",
"f. c #F7D834",
"g. c #F4E025",
"h. c #F4E028",
"j. c #F4E635",
"k. c #889547",
"l. c #E7BA43",
"z. c #C49D69",
"x. c #EABC6C",
"c. c #CECC45",
"v. c #DBCB57",
"b. c #D0C158",
"n. c #E9CA4E",
"m. c #EAD045",
"M. c #EAD549",
"N. c #F7DB45",
"B. c #F7DC4C",
"V. c #EBDB50",
"C. c #F3EB41",
"Z. c #F5E44B",
"A. c #F2EE4D",
"S. c #ECE35C",
"D. c #F2F156",
"F. c #E1E66D",
"G. c #EEEF68",
"H. c #F9E267",
"J. c #EFF56F",
"K. c #F1F561",
"L. c #F6FD69",
"P. c #E1E771",
"I. c #EFFF78",
"U. c #EFFD7A",
"Y. c #EFFD7C",
"T. c #EFFF7C",
"R. c #EFFF7D",
"E. c #EFFF7F",
"W. c #F0FD74",
"Q. c #F0FF7A",
"!. c #F0FF7C",
"~. c #D0B8B1",
"^. c #DABCB1",
"/. c #D9BEB1",
"(. c #EECE93",
"). c #F0FF80",
"_. c #F5FF81",
"`. c #F0FF87",
"'. c #FBFF84",
"]. c #F1F488",
"[. c #F0FF8F",
"{. c #F1FE91",
"}. c #F1FD97",
"|. c #F4F199",
" X c #F1FE9A",
".X c #E0C5B1",
"XX c #F0D1B0",
"oX c #F1FFA0",
"OX c #F2FDAA",
"+X c #F7EBB3",
"@X c #F4E3BB",
"#X c #F3FBB8",
"$X c #F1DECF",
"%X c #F3FBC2",
"&X c #F4FAC3",
"*X c #F4FACA",
"=X c #F4EAD9",
"-X c #F5FAD1",
";X c #F7F1DD",
":X c #F5F9DD",
">X c #F6F4E7",
",X c #F8F6F3",
"<X c #F8F7F5",
"1X c #F7FAF7",
"2X c #F7F7F8",
"3X c #F7F8FA",
"4X c #F7FAFF",
"5X c #F8F8FD",
"6X c #FAFBFE",
/* pixels */
"                                        A d 2 O X 2 3 5 5 5                                         ",
"                                      v I M x ; ; g f 5 5 5                                         ",
"                                    2 l 0.C.E.!.W.q.{ 2 3 7 5 5                                     ",
"                                  S Y z.H.|.#X`.W.j.s.B y % , 5 5                                   ",
"                                C U 5X6X5X5X5X XQ.E.).'.k.X & 7 5 5                                 ",
"                                ( &.,X3X3X*XOX`.U.E.E.!.c.b g 3 5 5                                 ",
"                                5.a.,X<X<XOXW.W.U.U.U.E.C.w.z 2 5 5                                 ",
"                            Z F @X;X5XXX#.@.r.r.e.{ &.E.W.L.u X , 7 5 5                             ",
"                            H J =X<X;X(.^ @.r.e.5./ +.J.W._.i O < 7 5 5                             ",
"                            ,.,.;X=X! &.W.#X,X{.W.U.S.! s.).a.;.f 3 5 5                             ",
"                            N.B.>X=X+.n.oX-X2X}.U.E.G.O.m.).j.y.f 3 5 5                             ",
"                            4X3X5X>XU.OX5X2X2X}.Q.E.U.E.E.E.E.).g 7 5 5                             ",
"                          S $X1X%X#X#X-X1X2X2X}.Q.E.!.!.U.E.U.U.q % 5 5 5                           ",
"                        S C XX1X`.[.2X3X3X3X5X XU.E.!.!.E.U.E.U.= X 4 5 5 5                         ",
"                        a p /.<X=.l.,X2X5X(.*.%.+.y.j.).V.O.S.U.r : 5 5 5 5                         ",
"                        5 3 ~.,X) ` ,X2X6Xx.! ! ^ ,.t.!.m.R M.E.g 7 5 5 5 5                         ",
"                        a p /.,X) #.,X2X2X>X=X].G.5.t.E.m.R V.!.c p 5 5 5 5                         ",
"                        v c .X,X} %.,X2X2X2X2X].K.5.t.E.M.^ V.!.M j 7 5 5 5                         ",
"                        ,.,.+X1Xe.i.,X2X2X2X3Xf.4.4.t.E.C.1.A.!.e...9 5 5 5                         ",
"                        h.p.|.*Xj.Z.<X2X2X2X1Xd.4.4.t.E.D.p.K.!.j.u.9 5 5 5                         ",
"                        E.E.U.W.E.{.<X2X2X2X3Xd.4.4.t.U.).).E.E.E.P.9 5 5 5                         ",
"                        E.U.U.E.U.{.2X:XOX:X3Xf.4.4.t.E.!.!.U.U.!.F.0 5 5 5                         ",
"                        U.E.E.U.E.{.1X*XW.%X5Xf.4.4.t.E.U.E.E.U.!.F.0 5 5 5                         ",
"                        U.E.U.U.U.E.}.[.U.&X5Xf.4.4.t.U.E.U.U.E.!.F.0 5 5 5                         ",
"                        E.U.U.E.U.E.U.U.Q.&X5Xf.4.4.t.E.U.U.E.U.!.F.9 5 5 5                         ",
"                        E.U.E.U.U.U.E.U.W.%X5Xf.4.4.t.U.U.E.E.U.!.F.0 5 5 5                         ",
"                        U.U.E.U.E.U.U.E.U.&X5Xf.4.4.t.E.E.U.U.E.!.F.0 5 5 5                         ",
"                        E.U.U.E.U.E.E.U.U.&X5Xf.4.4.t.E.U.E.U.U.!.F.0 5 5 5                         ",
"                        U.U.U.E.U.E.U.U.U.%X5Xf.4.4.t.U.U.U.E.U.E.F.9 5 5 5                         ",
"                        ).E.E.U.).E.U.E.U.&X5Xd.4.4.t.E.E.E.U.E.).P.0 5 5 5                         ",
"                        h.g.K.U.j.j.E.U.W.&X5Xf.4.4.t.E.D.p.K.E.j.u.9 5 5 5                         ",
"                        4.,.D.E.5.e.U.U.U.&X3Xd.4.4.t.!.C.,.A.E.e...9 5 5 5                         ",
"                        v c v.Q.}  .Q.E.U.`.{._ L ,.5.r.o.^ V.!.M j 7 7 5 5                         ",
"                        a p b.Q.! ) Q.Q.E.J.G.P A ,.4.5. .R m.J.c p 5 7 5 5                         ",
"                        8 7 b.!.J L E.E.!.*.A Z A >.4.q./ Z  .5.f 7 5 5 5 5                         ",
"                        > : $.D.R ^ D.K.).*.H H L >.4.0.X.L X.2.w : 5 5 5 5                         ",
"                        X X T 0.0.5.4.p.`.-.Q W ^ ,.4.4.5.0.5.2.# X 4 5 5 5                         ",
"                          X ' 0.4.4.4.r.C.;.| |  .2.4.5.4.4.4.2.q % 5 5 5                           ",
"                            0.4.4.4.0.4.1.4.4.0.q.4.4.q.5.4.5.5.f 7 5 5                             ",
"                            [ } 4.:.L ( 0.4.4.4.4.5.o.L / 0. ./ e 5 5 5                             ",
"                            R W ,.o.Z R 4.1.,.,.,.4.X.C ^ q.{ P e 5 5 5                             ",
"                            + @ ] 4.:.X.^ I H H J ^ / :.>.0.t O < 5 5 5                             ",
"                            X X ] ,.5.o.^ P J J L ^ } 5.,.,.t X , 7 5 5                             ",
"                                ( / 4.4.4.4.4.1.,.4.4.4.X.^ h 2 5 5                                 ",
"                                k n 5.4.4.4.4.4.4.4.4.5.T l s 3 5 5                                 ",
"                                o # 5.q.0.5.4.4.4.0.q.w.T X & 3 5 5                                 ",
"                                  * n K  .o.5.4.4. .W m g % , 5 5                                   ",
"                                    2 h W X.5.0.,.^ K 2 3 7 5 5                                     ",
"                                      a s q - - - e e 5 5 5                                         ",
"                                        7 $ X X X 2 5 5 5 5                                         "
};
