/* XPM */
static char *_744135e9fdb4f80f539952fb71d0c00cACdAXLlPFCdwSQT[] = {
/* columns rows colors chars-per-pixel */
"50 79 79 1 ",
"  c None",
". c #34322E",
"X c #3A352C",
"o c #2E2F31",
"O c #2F3030",
"+ c gray19",
"@ c #4F3F1F",
"# c #503F1E",
"$ c #473B24",
"% c #4B3E24",
"& c #53411D",
"* c #5A461D",
"= c #5E481D",
"- c #6F4E0E",
"; c #76520A",
": c #7D570C",
"> c #7D580D",
", c #644A15",
"< c #6A4D14",
"1 c #634B1B",
"2 c #694E19",
"3 c #6E5016",
"4 c #735415",
"5 c #795612",
"6 c #7C5811",
"7 c #4F4123",
"8 c #524222",
"9 c #47443E",
"0 c #4A453C",
"q c #5C4E32",
"w c #5F5135",
"e c #65522D",
"r c #755921",
"t c #625231",
"y c #414141",
"u c #4E4E4E",
"i c #514E4A",
"p c #545047",
"a c #4F4F51",
"s c #4F5051",
"d c #535353",
"f c #565758",
"g c #57585A",
"h c #5B5B5C",
"j c #695C41",
"k c #605F5D",
"l c #63605C",
"z c #5E5F60",
"x c #5F6061",
"c c #646464",
"v c #6B6B6B",
"b c #777164",
"n c #6F6F70",
"m c #6F7070",
"M c #737373",
"N c #7A7A7A",
"B c #865A01",
"V c #885B00",
"C c #835C0C",
"Z c #885F0B",
"A c #8F6000",
"S c #8E620A",
"D c #936201",
"F c #996601",
"G c #9D6901",
"H c #916409",
"J c #A36D01",
"K c #848484",
"L c #8C8C8C",
"P c #939393",
"I c #9D9D9D",
"U c #A4A4A4",
"Y c #AAAAAA",
"T c #B3B3B3",
"R c #BBBBBB",
"E c #C3C3C3",
"W c #CBCBCB",
"Q c #D3D3D3",
"! c #DADADA",
/* pixels */
"                  uuuuuuuuuuusuu                  ",
"                 sMvdmNNNNNMvdvMd                 ",
"               ggzPLdPYUYYYYPdLPggg               ",
"            uudLYWTLdLUUUTQTLdLUPIPsui            ",
"            MNPKU!TLdLYEYR!RPdKYYLNNNN            ",
"         sdhPRQvKQYKsLTQYYWTLsKUIncUYPgdu         ",
"        uuKEYYTIKcxgshxccxcxgsgzhKIUEWIvuu        ",
"       cMMLUUUULmuwteeeeeeeeetewuMLURRKNNKN       ",
"      dNYUKgPUIkip6BBBBBBBBBBBB6pikIIPgKTQLd      ",
"     dLTQTIPvhc4>>HFBFGGGGGGFBFH>>rkzvPIYTULd     ",
"    cMKUEPKKjeeZADGGBGJJJJJJFBFJDDZeejKKKUPKKM    ",
"   dNUhMIhpp>BBGJJJFBFJJJJJJGBFJJJGBB>pikIMvQPd   ",
"  hTRUPKc455HDBGJJJF:GJJJJJJGBFJJJGVDH66rkNITULg  ",
" cMYIKLbeZDDJFBGJJJFBGJJJJJJFBFJJJGBFJAAZebLKKKnc ",
"uNIhdadeBGJJJFBGJJJFBGJJJJJJGBFJJJFBFJJJJVtaddkINu",
"uNUPPLgeVGJJJFBGJJJFBGJJJJJJFAFJJJGVFJJJGVegLPPUNu",
"uNYRTIheBGJJJFBJJJJFBFJJJJJJGBFJJJGBFJJJGVehIYYRKu",
"uNY!EIheBJJJJFBGJJJFBGJJJJJJGBFJJJJBFJJJGVehUUY!Pu",
"ugnYTIheBGJJJFBGJJJFBGJJJJJJGBFJJJGBFJJJJBecERYTNu",
"ugvKLKgeBGJJJFBGJJJDBGJJJJJJFBFJJJGBFJJJGVekTILLvu",
"uNIhdddeBJJJJFBGJJJFBGJJJJJJFBFJJJFBFJJJGVeddddddu",
"uNULLKgeBGJJJFBJJJJFBFJJJJJJGBGJJJGBFJJJGVegKLLLvu",
"uNYRTIheBJJJJFBGJJJFBGJJJJJJGBFJJJGBFJJJGVehUYYYNu",
"uNYQEIheBGJJJFBGJJJFBFJJJJJJFBFJJJGBFJJJGVehIUUUNu",
"uhvNMcdeVGJJJFBGJJJFBFJJJJJJGBFJJJGBFJJJJVehIYImhu",
"uhvlckdeVJJJJFBGJJJFBGJJJJJJFBFJJJGBFJJJF;qgLPLvgu",
"uPQYUIheVGJJJFVGJJJGBFJJJJJJGBFJJJGBFJJJSX9dddhINu",
"uKRWRIheVGJJJFBGJJJFBFJJJJJJGVFJJJGB<18*8OygKKLELu",
"uNYWEIheVGJJJFBGJJJFBGJJJJJJFBFJJJJB@oooo.yhITRWLu",
"uNYUYIheVGJJJFBGJJJFBGJJJJJJFBFJJJGB@o++O.yhIEQTNu",
"uNINmvdeVJJJJFBGJJJFBGJJJJJJFBFJJJGV>5452.ydvIRYNu",
"unPnchdeVGJJJFBGJJJFBFJJJJJJGBFJJJGBFJJJH$0dhNIPmu",
"udxERIheAGJJJFBGJJJFBFJJJJJJGBFJJJGBFJJJGBthPNddda",
"ucKRERxeBGJJJFBGJJJF:GJJJJJJGBFJJJGBFJJJJBehIPNKca",
"uNUURWceBGJJJFBGJJJFAFJJJJJJGBFJJJFBFJJJFBezIYYYNa",
"uNYUYUheVGJJJFBGJJJFBGJJJGJJGBFJJJGBFJJJJBehIYUUNi",
"ucNMLUheVGJJJFBGJJJFAFJJJJJJFBFJJJJBFJJJFVehIYUYNu",
"udghNPgeVGJJJFBGJJJF:GJJJJJJGBFJJJFBFJJJJVehIIIInu",
"uNUWIdseAGJJJFAJJJJFAFJJJJJJGBFJJJFBFJJJFVekINggda",
"uNYRUMgeBGJJ4=*2>JJF:GJJJJJJGBFJJJJBDJJJJVefNNNNci",
"uNUUYIzeBGJG7.O.=JJFBGJJJJJJFBFJJJGBFJJJJBeafKYYNu",
"uNYYUIheBGJJG3.6GJJFBGJJJJJJG:GJJJGBFJJJJBegPIYQPu",
"ucNNPIheBGJJJ6.HJJJFBFJJJJJJGBFJJJGBFJJJJBezIYYEKa",
"uugfNIgeAGJJG3.6JJJGBGJJJJJJGBFJJJJBFJJJFBegIIIIMu",
"uMIPNgseBGJJ&XOX2JGFBGJJJJJJFBFJJJGBFJJJJBedhhhhdi",
"uNYYPvdeAGS31**=24HF:GJJJJJJGAFJJJGBDJJJJBednMMMca",
"uNYUUIleBG4.SG:G6.SFBGJJJJJJFBFJJJFBFJJJFBehIYUUNu",
"uNUYYUheAJ4.SFAJ6OSFBGJJJJJJGBFJJJGBFJJJJBehIUYYNa",
"ucKKKKdeVJZ854,431HFBFJJJJJJFBFJJJJBFJJJGVexTTUKcu",
"uuddddueVGJG7+..1JJFBGJJJJJJGBFJJJFBFJJJGVecWRPhaa",
"umPPPPgeVGJJHC;CHJJFBFJJJJJJGBFJJJGBFJJJJBedvccPnu",
"uNYYYIheVGJJJFVGJJJFBGJJJJJJGBFJJJGBFJJJGVedvvMUNu",
"uNYUYIheBJJJJFVGJJJGBGJJJJJJGBFJJJGBFJJJGVehIYYYNu",
"uLQYYIheBGJJJFVGJJJFBFJJJJJJGBGJJJGBFJJJJBezIYYWLu",
"uP!PKKgeVGJJJFBGJJJFBFJJJJJJHBFJJJGBFJJJGBegKPYWLu",
"uPWcddseBJJJJFBGJJJFBFJJJJJJGBFJJJGBDJJJGBeaiKUUNu",
"alMLPLgeBGJJJDBGJJJFBGJJJJJJGBFJJJJBFJJJH@0hLNccga",
"agnIYIheVGJJJFVGJJJGBFJJJJJJGBFJJJGBC>CC4+yhIKcvhi",
"iNUYUIzeVGJJJFBGJJJFBFJJJJJJFBFJJJGB@o+..+yhIUUUNu",
"uNYURExeVJJJJFBGJJJFBGJJJJJJGBFJJJGB#ooo++yhIYTWLu",
"uvPLTQceBFJJJFBJJJJFBFJJJJJJGBFJJJGB,%%%%.yhKPT!Pu",
"aaaaPQceBJJJJFBFJJJGBFJJJJJJGBFJJJGBFJJJZXyadKY!Pu",
"uvLLKNfeBJJJJFBJJJJFBFJJJJJJGBFJJJGBFJJJF-qgKNvNca",
"uNYYKkdeBGJJJFBFJJJHBGJJJJJJFBFJJJJBFJJJJVexIKxxgi",
"uNUUUIkeVGJJJFBGJJJFBGJJJJJJFBFJJJGBFJJJJBehIUUUNu",
"uNYWRIzeVGJJJFBGJJJFBFJJJJJJFBFJJJGBFJJJGBehIUUYNu",
"unPRYLheBGJJJFBGJJJFBGJJJJJJGBFJJJGBFJJJJVehITTPvu",
"uiffddaeBGJJJFBJJJJFBFJJJJJJFVFJJJGBFJJJGBehIEWxia",
"uvKKKKgeBJJJJFVGJJJFBGJJJJJJGBFJJJGBFJJJGBedvNKKvu",
"uNYYYIheBGJJJFBGJJJFBGJJJJJJFVFJJJGBFJJJGVeahxvYNu",
"uMUUYIzeVJJJJFBGJJJFBGJJJJJJGBFJJJGVDJJJJVehIIYQPu",
"izNIYIheBGJJJFVGJJJFBFJJJJJJFVFJJJGVFJJJGBehIREEKu",
"ahvPPPheVGJJJGVGJJJFBFJJJJJJFBFJJJGBFJJJGVehPR!YNu",
"uLWcdgdeVGJJJFVGJJJFBGJJJJJJFVFJJJGBFJJJGVeddU!YNu",
"aKRKNNgeVADDDVBADDDABADDDDDDABDDDDABVDDDDBedNKLNku",
"uNYYYIztC>>>:::>::::>>::>>:::>>>:::>C:::>>thIKgcgu",
"uPQYYIhippipppppppppppppppppppppppppppppppihIUUWLu",
"unPNNMdaauaiaiaaiaiasuusissuuusuuudusississdMNNPnu",
"iauuaaaiuuuaaaiasusaissuususisusuuduuuuuisssuuuuua"
};
