/* XPM */
static char *_49c959bd60f4f918e860e41a1c410d5IXcgWaKhQZUB3osT[] = {
/* columns rows colors chars-per-pixel */
"50 42 201 2 ",
"   c None",
".  c #2F1E13",
"X  c #321F13",
"o  c #2F2518",
"O  c #332013",
"+  c #3C2314",
"@  c #322B1A",
"#  c #36291B",
"$  c #3B2F23",
"%  c #332C26",
"&  c #38342E",
"*  c #36322A",
"=  c #442515",
"-  c #4A2514",
";  c #472917",
":  c #4D2917",
">  c #432C1D",
",  c #4A2C1A",
"<  c #542C17",
"1  c #5B2C17",
"2  c #562C18",
"3  c #5A2D18",
"4  c #4D321E",
"5  c #463D1D",
"6  c #4C391F",
"7  c #42321D",
"8  c #5B3617",
"9  c #52321B",
"0  c #5C311A",
"q  c #5B3C1D",
"w  c #573A1C",
"e  c #612F19",
"r  c #64331A",
"t  c #6B331A",
"y  c #6B3A1D",
"u  c #633818",
"i  c #73361A",
"p  c #733B1B",
"a  c #7A3D1B",
"s  c #492F20",
"d  c #453623",
"f  c #4E3322",
"g  c #4D3D28",
"h  c #4A3A24",
"j  c #523424",
"k  c #523E23",
"l  c #5A3A21",
"z  c #413E3B",
"x  c #403F37",
"c  c #6F3C20",
"v  c #48401C",
"b  c #51451C",
"n  c #58481A",
"m  c #67441C",
"M  c #74431E",
"N  c #7D441D",
"B  c #7E4E1F",
"V  c #70591A",
"C  c #74621E",
"Z  c #7B6818",
"A  c #54452B",
"S  c #5B462C",
"D  c #5C4A2C",
"F  c #574528",
"G  c #44433E",
"H  c #5F4E32",
"J  c #534E3D",
"K  c #5B5038",
"L  c #624523",
"P  c #6A4522",
"I  c #6C4C24",
"U  c #654E2E",
"Y  c #654B27",
"T  c #764420",
"R  c #7C4122",
"E  c #6D5423",
"W  c #67542D",
"Q  c #745C21",
"!  c #71552D",
"~  c #7B5E2A",
"^  c #725327",
"/  c #614D30",
"(  c #635234",
")  c #6D5A36",
"_  c #685838",
"`  c #745C33",
"'  c #725F3C",
"]  c #795D35",
"[  c #7E6324",
"{  c #74623D",
"}  c #79663D",
"|  c #796438",
" . c #464542",
".. c #4B4A46",
"X. c #494949",
"o. c #565242",
"O. c #545349",
"+. c #5E5E52",
"@. c #655642",
"#. c #645D4A",
"$. c #605947",
"%. c #6F6A4C",
"&. c #746C44",
"*. c #7C6B43",
"=. c #746845",
"-. c #7B7143",
";. c #696751",
":. c #747359",
">. c #7B7856",
",. c #833E1C",
"<. c #84441B",
"1. c #8B431B",
"2. c #8E491C",
"3. c #99471E",
"4. c #934C1C",
"5. c #9D4B1D",
"6. c #95471D",
"7. c #8B5F18",
"8. c #98541B",
"9. c #A14C1D",
"0. c #AA4E1C",
"q. c #AC511E",
"w. c #A1591B",
"e. c #A1501B",
"r. c #B4551E",
"t. c #836C1B",
"y. c #8D6116",
"u. c #9B6C15",
"i. c #8D731C",
"p. c #9A771B",
"a. c #B96718",
"s. c #A6731C",
"d. c #A57B1D",
"f. c #A66618",
"g. c #824622",
"h. c #8F4B20",
"j. c #8E5E23",
"k. c #915521",
"l. c #995623",
"z. c #945B20",
"x. c #816325",
"c. c #896725",
"v. c #976E26",
"b. c #8F7E2F",
"n. c #937029",
"m. c #826A37",
"M. c #8F7735",
"N. c #887437",
"B. c #937A38",
"V. c #CA7416",
"C. c #CE7F15",
"Z. c #D67C15",
"A. c #C8691B",
"S. c #826E44",
"D. c #826F49",
"F. c #847146",
"G. c #8A7642",
"H. c #857348",
"J. c #897549",
"K. c #8F794B",
"L. c #8F7C43",
"P. c #927C44",
"I. c #927C4E",
"U. c #807055",
"Y. c #9D811D",
"T. c #BB870F",
"R. c #A98A1E",
"E. c #9D8B3A",
"W. c #A29135",
"Q. c #B0973F",
"!. c #E28D11",
"~. c #9D864B",
"^. c #9C8749",
"/. c #89855A",
"(. c #9B8553",
"). c #998552",
"_. c #A18B57",
"`. c #A58F5A",
"'. c #AA935D",
"]. c #A69156",
"[. c #B19A5A",
"{. c #BBA843",
"}. c #BAA35E",
"|. c #8B8962",
" X c #A09B65",
".X c #B29B62",
"XX c #BAA265",
"oX c #BEA66A",
"OX c #C7B14D",
"+X c #C8AF5B",
"@X c #CBB557",
"#X c #C2AB6B",
"$X c #C7AE65",
"%X c #CAB167",
"&X c #CEB56D",
"*X c #D6BC63",
"=X c #CCB472",
"-X c #D4BB75",
";X c #D6BD76",
":X c #9F9383",
">X c #C5B485",
/* pixels */
"                                                                                                    ",
"                                                                                                    ",
"                                                                                                    ",
"                                                                                                    ",
"                                                        <.<.                                        ",
"                                              : 3 t i y a.a.                                        ",
"                                            3 t 1.q.3.w.!.!.u.                                      ",
"                                          2 t i 6.r.2.V.Z.C.T.                                      ",
"                                          e i a ,.,.5.A.Z.a.a.                                      ",
"                                        < e t 0 r N 8.q.r.a.V.                                      ",
"                                        : e 2 L ~ ~ n.d.y.8.f.E A % *                               ",
"                                        1 3 9 ^ b @ @ n Y.p.t.) _ & & o.        ^.E.                ",
"                                        1 t 2 T n.c.[ C 5 n 5 ( A & X.o.A v ( &.L.{.                ",
"                              x.x.# u 1.3 t r r 1.w.7.R.v Y.V $ &  .O.K S.} H.H.-.{.b.              ",
"                              m c.a p T 1 2 t t y 0.5.i.b p.a   * X.J =.J.J.H.H.H.OXW.              ",
"                            = r a k.j.! 2 = 1 t r i h.Z V y.    $ & $ _ -.H.H.H.G.@XE.              ",
"                            = 2 c B.B.Y I = - < 1 1 g.Z Z n   > j       O.$.#.$.#. X-.              ",
"                            w u ` #X`./ ~ 8 - = - : T n.^     , g       G X.X.X.+.|.                ",
"                          ( U U I.#X(.I.W [ 9 = + = 3 I h     j          .X.X...U.%.                ",
"                          *..X.X#XJ.#X=XK.! ! c j k | h       f       & X.X...:.>.                  ",
"                        U ).=X;X}.).;X%X=X.XK.S.S.[.OX        j   %.:.O.o.;./.>.                    ",
"                        S.#X[.%X^.'.;X%X;X;X=XXX;X*XE.      s l   -.|./././.=.                      ",
"                        I.-X+Xm.` `.oX.X`.(.D.)._.{         s l                                     ",
"                        F.XX-X{.m m.~.K.K.D.U.(.| Q         l                                       ",
"                        ' _.#X+XE m y.u.s.] :X>XF.M.M.    6 P                                       ",
"                        g H.oX-X}.~.( 6 I S @.@.U } P.L.m.S l                                       ",
"                          / '.;X=X&X~.U D ( / S D D G.{ D } `                                       ",
"                            =.[..X$X%XG.d k h d h A D F ) P.N.                                      ",
"                              ' .X&X(.) 7   @ @ $ d F E P.^.                                        ",
"                              A S.S.A F q     o @ # B s.m.                                          ",
"                                d 4 0 N 4.      : g.l.z.                                            ",
"                                1 t 9.9.<.    : r g.l.M                                             ",
"                              r i i 9.8.u   ; < y g.k.                                              ",
"                            < i t ,.9.1.    < 0 r R T                                               ",
"                            r t ,.9.3.r     < < 0 R c                                               ",
"                            e i <.3.1.      < 0 0 y c 9                                             ",
"                            - e t ,.g.,.    + ; , c a g.T                                           ",
"                            : : t 1.3.9.p   + + = 2 r c c                                           ",
"                            + = : : < 2 +     O X X O O .                                           ",
"                                                                                                    ",
"                                                                                                    ",
"                                                                                                    "
};
