/* XPM */
static char *a751c410f27d40edcdb2939a5b984545fxSirI46b3o2GpEj[] = {
/* columns rows colors chars-per-pixel */
"50 66 142 2 ",
"   c None",
".  c #3E3729",
"X  c #3F382A",
"o  c #2F2F30",
"O  c #343432",
"+  c #443A27",
"@  c #4C3E24",
"#  c #423929",
"$  c #483E28",
"%  c #55411B",
"&  c #58441B",
"*  c #5E491D",
"=  c #73510D",
"-  c #7D560B",
";  c #654C1A",
":  c #694E19",
">  c #6F5117",
",  c #755514",
"<  c #7A5711",
"1  c #7C5913",
"2  c #745619",
"3  c #795B1F",
"4  c #4F4023",
"5  c #534322",
"6  c #584520",
"7  c #5C523D",
"8  c #6E5523",
"9  c #66532D",
"0  c #69542A",
"q  c #725621",
"w  c #605236",
"e  c #4E4E4E",
"r  c #524E47",
"t  c #514F4C",
"y  c #565045",
"u  c #595246",
"i  c #53504A",
"p  c #4E4F51",
"a  c #4F5050",
"s  c #535353",
"d  c #5D5D5D",
"f  c #6A665F",
"g  c #5E5F60",
"h  c #646464",
"j  c #6A6761",
"k  c #6C6C6C",
"l  c #747474",
"z  c #7C7C7C",
"x  c #855901",
"c  c #8B5D01",
"v  c #825A09",
"b  c #895F0C",
"n  c #8F6001",
"m  c #8E6209",
"M  c #936201",
"N  c #9A6701",
"B  c #9E6A01",
"V  c #926408",
"C  c #A36D01",
"Z  c #A87000",
"A  c #7F7F80",
"S  c #808080",
"D  c #818181",
"F  c #818182",
"G  c gray51",
"H  c #838383",
"J  c #828384",
"K  c #838484",
"L  c #838485",
"P  c #848484",
"I  c #848485",
"U  c gray52",
"Y  c #868686",
"T  c gray53",
"R  c #838383",
"E  c #888888",
"W  c #898989",
"Q  c gray54",
"!  c #8B8B8B",
"~  c gray55",
"^  c #8D8D8D",
"/  c #8E8E8E",
"(  c gray56",
")  c #8B8B8B",
"_  c #909090",
"`  c gray57",
"'  c #929292",
"]  c #939393",
"[  c gray58",
"{  c #959595",
"}  c gray59",
"|  c #979797",
" . c #929292",
".. c #989898",
"X. c #9A9A9A",
"o. c #9B9B9B",
"O. c gray61",
"+. c #9D9D9D",
"@. c gray62",
"#. c #9F9F9F",
"$. c #9A9A9A",
"%. c #A0A0A0",
"&. c gray63",
"*. c #A2A2A2",
"=. c gray64",
"-. c #A4A4A4",
";. c #A5A5A5",
":. c gray65",
">. c #A7A7A7",
",. c #A6A6A6",
"<. c gray66",
"1. c #A9A9A9",
"2. c #AAAAAA",
"3. c gray67",
"4. c #ACACAC",
"5. c #AFAFAF",
"6. c #A9A9A9",
"7. c gray69",
"8. c #B2B2B2",
"9. c gray71",
"0. c #B6B6B6",
"q. c #B7B7B7",
"w. c gray70",
"e. c gray72",
"r. c #B9B9B9",
"t. c gray73",
"y. c #BBBBBB",
"u. c #BCBCBC",
"i. c gray",
"p. c gray75",
"a. c #BBBBBB",
"s. c #C0C0C0",
"d. c #C1C1C1",
"f. c gray76",
"g. c #C3C3C3",
"h. c gray77",
"j. c #C5C5C5",
"k. c #C6C6C6",
"l. c gray78",
"z. c #C0C0C0",
"x. c #CECECE",
"c. c gray81",
/* pixels */
"                            s s s s s s s s s s                                                     ",
"                        s k S d / [ } } [ z h T s s                                                 ",
"                  e e z #.5./ h %.>.>.d.a.S k &.~ E g t                                             ",
"              s s z | P 5.c.( d -.g.7.x.j.S j >.%.z z F k e                                         ",
"            e s E >.i.' E ' l s S | Y ' ~ k h z A z #.u.| h e                                       ",
"          d k l 1.1.>.| k e s s s s s s s d g s s H %.g.-.z l z                                     ",
"        d z 8.O.k E | l d d h h g g g g g g h g g h T ] l S e.9.k               x c c c x x         ",
"      d l 5.l.O.' k s l / z h h g h h g h h h k E ( j s z ..%.>./ k     y q x x c B C C M x x       ",
"    d S S l ' h h S k h k h h d g d g g h h h h k ~ T k d d l ! k 8.j r 2 v c N c B C C c x x x x   ",
"  s %.8.O.S k P P / k g f g h h h h f P ....T j h k k h l T z g s f q - v M C N c C C C M M C M x x ",
"s P z l k k P / l k h l l g d d g g g k l l k g h F h g h J ( l i 2 N B c M C N x C C C M M C N x x ",
"s | / S k d l l z z A / z k ! ! E ~ ~ ~ E ~ E S h / P A F l l k u v B C M M C B c C C C M M C N x x ",
"s | y.9.z d l h / | | $.z k P L S P P S P S H z h _ | | ] z h k u v B C n M C N c C C C c M C N x x ",
"s z 9.y.z k P k / ' | E k k z l z l l z l z l l h S F / | z l J u v B C M M C N x C C C M M C N x x ",
"e h S ' l h E h S P P l k z >.>.>.>.>.<.1.1.>.O.l h d z T l l J u v C C c M C B c C C C M M Z N x x ",
"s / l h s h S h h k h z z l $.$.o.$.$.$.$.$.$.$.' k h h h h k z u v B C M M C N c C C C c M C N x x ",
"s | >.%.z s h k E / k S z h k k h k k k h k k h h k P k z z h h r v B C M M C N x C C C M M C N x x ",
"s ' g.y.z h E ~ | ' k z z z o.o.o.o.$.o.o.o.o.o.' k T k z ] ~ z u v B C M M Z N c C C C M M C N x x ",
"s h k k d h | ' | ' k h j z <.1.<.1.<.<.<.<.<.<.O.k h h z | | P u v C C c M C N c C C C c M C N x x ",
"s | ' P k h | ' l l P l g k l l l l l z l z l l l h h d k S | P t 6 M C M M C N c C C C c N C N x x ",
"s 1.l.9.z d l z z l S P P S J S H S P S J J S J S J k l l z z k e O * M M M C N c C C C M M C N x x ",
"s ] g.9.z d k h / | l / 1.<.1.1.1.<.1.1.1.<.<.<.<.-.l P $.z h k e O o ; v M C N c C C C M M C N x x ",
"d [ ] / k h P k ' E k S ] ' ' ' ' ' ] ' ' ' ' ' ' / k z _ z k P e O $ @ = M C N c N C C M M C N x x ",
"s P z h d k E h P k k k k k k k k k k k k k k k l k k h z l l J e $ V C M M C N c C C C M M C N x x ",
"s d 5.y.z h S h h h ' %.%.%.-.%.%.%.%.%.%.%.%.%.=.%.%.l h h k z y - B C M M C N c C C C M M C N x x ",
"s E 1.l.$.s h k P k ' >.%.-.-.-.-.-.%.>.-.>.>.%.-.-.>.l z z h h u v B C c M C N x C C C M M C N x x ",
"s [ >.5.P h P E ' k k k k l k k l k k l k k l k l k k h A ( T z u v B C M M C B c C C C c M C N x x ",
"s h k / z h | | ' k S ( / / ( / ~ ~ / / ~ / ~ / ~ / ~ l A | | P u v B C M M C N c C C C M M C N x x ",
"s l ' P h h | / l k | 1.1.<.1.<.<.<.1.1.<.<.1.<.<.1.>.z k S ..P u v B C M M C N c C C C c N C N x x ",
"s | g.| h g z z l h z T T P P P P P P P T P P P P P T k k z z l u v B C c M C N x C C C M M C N x x ",
"s | 1.1.z d k k / k l l l l l l l l l l l l l l l l l k A z h h u v B C M M C B c C C C n M C N x x ",
"s P ] %.z j L h E k ] >.>.>.-.>.>.>.>.-.>.>.-.>.>.>.-.l z z l S u v B C M M C N x C C C M M C N x x ",
"a d d J z h T h J k ~ #.O.O.o.o.O.O.O.O.O.O.O.O.#.O.O.l z l l J u v B C M M C N c C C C c M C N x x ",
"s ~ O.z s h P h h h k k k k k k k k k k k k k k k k k h k h k J u v B C c M C N c C C N b M C N x x ",
"s ] <.O.l d h k ( k T $.| | | | ....| | ....| | ..| | ..z g h h y v B C M M C B c B C 6 + , C N x x ",
"s | <.1.z g J S l k ] <.<.<.<.<.>.>.>.>.>.>.<.<.>.>.>.<.z l P l u v B C M M C N c C C b $ # , N x x ",
"s k l l g h | / k h l z z z z z z z z z z z z z z z z z k z | P u v B C M M C N c B C C 6 4 b N x x ",
"a k l l h j | ( k l A z z z z z z z z z z z z z z z z z k z ] P u v B C c M C N c C C 1 # > Z M x x ",
"s ] 2.<.F d P z k o.<.<.>.>.<.<.>.>.<.>.>.>.>.>.>.>.1.<.z l J l u v B C M M C B c C v * 4 ; m N x x ",
"s #.4.<.z d h g h $.<.<.>.>.<.<.>.>.>.>.>.>.>.>.>.>.>.>.A g h h y v B C M M C N c V # b M % ; N x x ",
"d p.7.$.l j I h h ] O.o.o.O.#.o.O.O.$.O.O.$.o.O.$.o.O.$.z d l S u v C C c M C N c M 5 v v & : N x x ",
"s q.P d s k T g h k k k k k k h k k k k k k k k k k k k k h l P u - N C M M C B c C V 6 . > B N x x ",
"s h ~ ..l h T g j ( $...| | | | | | ......| | | ....| $.$.S l S e $ V C M M C N c C C V - c C N x x ",
"s S %.2.F d l E k o.<.>.<.<.<.<.>.>.>.>.>.>.>.>.>.>.>.1.<.P h k e O @ m M M C N c C C C M N C N x x ",
"s ..6.u._ d F l k $.>.>.>.<.>.<.>.<.<.1.>.>.>.>.1.1.>.1.1.E k l e o O 4 = M C B c C C C c M C N x x ",
"s k z t.%.h E h h z S H H S H H S H S P S H H S S P S S J l l P e O 6 : - N C N c C C C V M C N x x ",
"s h k ] A j E k l z l l l z l l l z l l l l l z l l z l z k l P t % M C c M C N c C C C M M C N x x ",
"s | <.J s h A k #.>.1.-.>.>.>.>.>.>.>.>.<.>.>.>.-.>.>.>.<.P k z y v C C M M C N c B C C c M Z N x x ",
"s ] 7.6.A s g k #.-.<.-.<.-.<.-.>.-.>.>.>.-.>.>.%.>.>.>.>.P h d r v B C M M C N x C C C n N C N x x ",
"s ] z.9.A s h l %.<.-.<.-.<.-.<.>.>.>.-.>.>.>.>.>.>.%.>.1.E h g y v B C M M C N c C C C n M C N x x ",
"a d h h s s k o.-.-.-.-.-.<.-.-.%.>.%.>.%.>.%.>.>.%.>.%.>.%.P h y v B C M M Z N c C C C n M C N x x ",
"s J _ ] l a g k k l k l k k l k l k l l l k l k l l k l k l k d y v C C c M C N x C C C M M C N x x ",
"s | 1.1.F s j Q ~ ~ ~ ~ _ ~ ! ! E / E E / E / E E E E / E / z g u v C C c M C N c C C C c M C N x x ",
"s k $.4.z s l -.<.-.<.-.<.<.-.<.>.>.1.>.>.>.>.>.>.1.>.>.>.1.' g y v B C M M C N c C C C M M C B x x ",
"s z P P k s l -.-.<.<.<.<.<.<.<.>.>.>.>.>.>.>.>.>.>.>.>.>.1./ g y v B C M M C N x C C C M M C N x x ",
"s 9.T h d s k _ ' ' ' ' _ ' ] _ ' ' ' ' ' ' ' ' ' ' ' ' ' ' S d y v B C M M C N c C C C M M C N x x ",
"s O.1.1.z s d d d d d d d g d d d d d d d d d d d d d d d d d d y v N C V M C B c C C C c M C B x x ",
"d 8.5.O.z e p s a a a a a a s a s e e s e e e s s a e s a e p a u - v M c M C N x C C C M M C N x x ",
"e d d d s e p t a a t a t p t t s e e e e s e e e e t p e a p t t y y 1 c M C B c C C C M M Z N x x ",
"                                                                      7 , x M N c B C C c M C N x x ",
"                                                                        7 w q c c C C C M M C N x x ",
"                                                                          a u 9 8 M M C M M C N x x ",
"                                                                            e a r 8 q m c M C N x x ",
"                                                                                  p t q 2 b N M x x ",
"                                                                                      t e 0 < < < < ",
"                                                                                          i i i i i "
};
