/* XPM */
static char *_269f714b9744b75c7e82585677d8518xtd2JgFtHSlWhvVh[] = {
/* columns rows colors chars-per-pixel */
"50 50 89 1 ",
"  c #4B4B57",
". c #4E4C59",
"X c #534D5B",
"o c #52505D",
"O c #5D5765",
"+ c #5B5966",
"@ c #5E5C69",
"# c #625E6C",
"$ c #63626E",
"% c #6B646E",
"& c #666471",
"* c #6A6573",
"= c #6B6975",
"- c #6E6C79",
"; c #736C75",
": c #796D77",
"> c #726D7B",
", c #7B6F79",
"< c #74717E",
"1 c #7C747D",
"2 c #7D787F",
"3 c #767481",
"4 c #797583",
"5 c #7D7A85",
"6 c #7E7C89",
"7 c #817A85",
"8 c #827E8B",
"9 c #83818D",
"0 c #89828C",
"q c #868491",
"w c #8A8694",
"e c #8B8A96",
"r c #8E8C99",
"t c #938B95",
"y c #928E9B",
"u c #94929D",
"i c #99939D",
"p c #9694A1",
"a c #9A96A3",
"s c #9C9AA5",
"d c #9E9CA9",
"f c #A09AA6",
"g c #A19EAB",
"h c #A3A1AE",
"j c #A6A4B1",
"k c #AAA6B3",
"l c #A6A8B5",
"z c #ABAAB6",
"x c #AEACB9",
"c c #B1A6B6",
"v c #B1AEBB",
"b c #B3B1BE",
"n c #B5B4C1",
"m c #B9B6C3",
"M c #B6BAC6",
"N c #BBBAC6",
"B c #BDBDC9",
"V c #C1B6C6",
"C c #C1BECB",
"Z c #BEC1CC",
"A c #BFC1D0",
"S c #C2C1CE",
"D c #C5C4D1",
"F c #C9C6D4",
"G c #C5C9D4",
"H c #CBC9D6",
"J c #CECCD9",
"K c #D0C8D7",
"L c #D1CDDB",
"P c #CFD1DD",
"I c #D3D1DE",
"U c #D9D6DF",
"Y c #D5D4E1",
"T c #D9D5E2",
"R c #DBD9E5",
"E c #DEDCE9",
"W c #E2D7E7",
"Q c #E1DEEB",
"! c #DEE0EC",
"~ c #E2E1ED",
"^ c #E6E4F1",
"/ c #E9E7F4",
"( c #E7E9F5",
") c #EAE9F4",
"_ c #EDEDF9",
"` c #F1EFFC",
"' c #F5F3FE",
"] c #F8F6FF",
"[ c #FEFCFF",
/* pixels */
"JSNbvNL^RJNnnCCl-=B!!KJ(RYKBDFYRRLFDBnjjFuowljnKTT",
"YLJJHFLR~LFHLTTK8yTJCFFFCFDFDFFFTLLTTLPT(n4nPCHLYY",
"DSDFFCCCJBCFCFJJ8uYBMFKBBBCDCDBBmmmCDBCFJu3nKCHBBZ",
"DCCCDDSSCCCFCCCC83nBCDBKKDDCCCCDHFFLJDFCn4+nBmHBZS",
"DDCCFFFFFFHCCDCne=dnBBmCHFFCDDFKCCCCCCBNl8&nnzCCDS",
"NCCCDFSNBCCBnBnd83dgnBBBBBCCFFFGCCCFCBBmg4#gjgnBSB",
"CCDCFFDCCCCBnnxd43dsgnmnnmBBCBBBCCBNBnzlu4#dzgnmZb",
"nNNnnNCNCmNCnjhd3=hjjjjnBBBmBmBBNNNmnnzjr6@dnddgbb",
"dgazjskddadhhar8&-qaaaapgadnvknzxzljddghr3-rjjjjhh",
"yv55pbvNbjsashznQmnKJNnNlgae>8y8rew8888q4&+-68680e",
"']N3QE'[/QYJHFJYEFH~`'`/``/n3xndncnxzxnnnjjznBmnPI",
"ETB8[LJLFFHJJHJLJJIHCCBxmmHj*JEYHJJLJJJLDFJLYTYLGP",
"DCddFYnNHFFJHHLTRCDLCBFQLCYk@nBmCCCCCCCDBCDCCCCmSS",
"DNp-wCCCDDCCCNNNICCCBBBBFBBp@dnmBCDDDDCCFHFCCFFHGG",
"Nnj@axNnNNNDHHFFCDFCCLLmBBnq*ynnCCCHDCDDCCCCCCFHSC",
"Nnw&rxdDFCNCCDCCJCBFBnBCnCnq3rnanNCCCCCDCCDJJCNBMN",
"zg6$uMgbmnmMmmBMBCnNBmnCmlnr@endjznBBBNnmCBCnNnNMM",
"zxe@wbhjdgnmnnBnNNNCCmnmlaj8#wlghxNBmnmBBxnFnHFkhz",
"qe<+8hpgjuppajnhnjhgdq66duu4=8pdaddddgjjaxkgruqeii",
"dsphCSMPnBFBhe668=448wpdayr4366raw33683*433gNLNnii",
"GGBY~PP!]!L!((Ap-+ramDR^`/(RRRLQ/TCNBCnhu.q`T`[HUH",
"ZHBMZZSZMBHHBBY!q4BH~RRTYYTLYYFY~EYILILLC6z`NnHCSG",
"APAAAZJAMAPYJABM83BDYFHCCCJFFLCJNBCCDDHJCq3nCCBLSG",
"ZDMJJMAZGBAABGBnr-NxBmCHFCJBBCCCFCCCDFCNm4=zmCBCHG",
"JMSZDZJNCCAGBBMn8-jnvDBBBKCCCmCYLHCCCCBNGu$fjSBHSS",
"MDJDGNZGCNCBMMng5-dzjBNCBBCBYHCJDDDDDCNMj0$hzbvbBN",
"MNvbCMbDCNVVNnja3*alhnnnBBBnJmnCNNNNNnxzu<$hjzzMBB",
"NMvCDDNBmnmmnjd8=3azjzjznnmnLCCCDCNnnvxca5$hjzbSbx",
"aaccaypei8i88tt4*3edddssdagdnlgyasaayreq9=+eiuuifi",
"g88::>8*:*3*334-@$3688qrraja38nmvnBDCMbxurevbkseii",
"WVt#ccmfcccccnVnznznNNBC~``H$8BJYE^//QERRR!_[~~GUU",
"CWc%TTLCKCWKCCJFFJDKYFDCBDJC&xELLLYLJJYYPUIIHH!HPG",
"KCj#hMDZDDBBBSDDAMBAGAAGGZbh@zCBCHJJJJUUPJPIYJHJZZ",
"CmdOpnDBNCDDDJPYAAAAZAZbZGSh#gNCCBCCDDGHJGSDGDDBGG",
"Bnd#exMnSGHDBBBMMGPGAGJAmNvi#ygcBBCFSSSGZSSSBAGHNN",
"mld*qlMlnNBBSHGDGBBFZMnZFMzu4sgknnMBBZZZSGHSBBBBBN",
"jpw&6lMnxlxxMCBnCmmCFCnnCvf8>ygcllxbNZZZMbxMBSNvxb",
"ldq=qnnnSMbMNMnbnNCCCKCcvjc8#8gvcklzzxxxnMZSBnbMzh",
"pe= 3prusrepsyplgjgafgatt8g8#4twprryuiiuiiisu77qtt",
"MBp6lPBPbhslsqrz7-348tgcjgKCgmVirqwrijzzi1%uBGZbbz",
"IGPUUHH!P(_!YSI[nXfcKWTLWWUUULJUUHHHU~)')G0PUUUMUU",
"GDDSZSSSZZbbGGSGk>IIKCCKDCVSSSSGHHGSSDGGMZz)ZbZGUU",
"SGSSZSSNZGDZFGSSy;KHCVVCSCSSSSZSSSSSSBZBz0$MMSGBGS",
"HGGSSGSSNIRHBNBBw*vnCIFCFFSFFSDGSSSSGSSZM2$xznGBBZ",
"SZSSSNSHZSSbBDCj8-kcvSSSCBSSGZGGHGSSZZMMl22MbzBSZN",
"SNSHDNSPSSZZBGSh4>gjzCbMCCZDAZZZSSBBMMMbh&=szbnnZZ",
"BNNSSSSHSbZbxxxs8<avbDbbZMZSZZMZMNNNMMMll22uhihbbn",
"zbvzbbbvZxxxhjki<>uhjzdlhlxbMbbbbbNNMlldr&;txbffzz",
"fiiissiiititittt110ifdhdisssfdhsiiiiiiii2;:2tzffii",
"22111222:11:,,::%@;2777979079722222222120%;;2t0222"
};
